%TF.GenerationSoftware,KiCad,Pcbnew,7.0.1-0*%
%TF.CreationDate,2023-05-06T11:58:54+02:00*%
%TF.ProjectId,video_patch_bay_top,76696465-6f5f-4706-9174-63685f626179,rev?*%
%TF.SameCoordinates,Original*%
%TF.FileFunction,Legend,Top*%
%TF.FilePolarity,Positive*%
%FSLAX46Y46*%
G04 Gerber Fmt 4.6, Leading zero omitted, Abs format (unit mm)*
G04 Created by KiCad (PCBNEW 7.0.1-0) date 2023-05-06 11:58:54*
%MOMM*%
%LPD*%
G01*
G04 APERTURE LIST*
%ADD10C,0.150000*%
G04 APERTURE END LIST*
D10*
X41456466Y-99822000D02*
X246484000Y-99822000D01*
X246484000Y-122656000D01*
X41456466Y-122656000D01*
X41456466Y-99822000D01*
G36*
X41456466Y-99822000D02*
G01*
X246484000Y-99822000D01*
X246484000Y-122656000D01*
X41456466Y-122656000D01*
X41456466Y-99822000D01*
G37*
%TO.C,G\u002A\u002A\u002A*%
G36*
X51092485Y-23267939D02*
G01*
X51092485Y-23575818D01*
X45743091Y-23575818D01*
X40393697Y-23575818D01*
X40393697Y-23267939D01*
X40393697Y-22960061D01*
X45743091Y-22960061D01*
X51092485Y-22960061D01*
X51092485Y-23267939D01*
G37*
G36*
X51092485Y-24076121D02*
G01*
X51092485Y-24345515D01*
X45743091Y-24345515D01*
X40393697Y-24345515D01*
X40393697Y-24076121D01*
X40393697Y-23806727D01*
X45743091Y-23806727D01*
X51092485Y-23806727D01*
X51092485Y-24076121D01*
G37*
G36*
X51092485Y-24845818D02*
G01*
X51092485Y-25115212D01*
X45743091Y-25115212D01*
X40393697Y-25115212D01*
X40393697Y-24845818D01*
X40393697Y-24576424D01*
X45743091Y-24576424D01*
X51092485Y-24576424D01*
X51092485Y-24845818D01*
G37*
G36*
X51092485Y-25654000D02*
G01*
X51092485Y-25961879D01*
X45743091Y-25961879D01*
X40393697Y-25961879D01*
X40393697Y-25654000D01*
X40393697Y-25346121D01*
X45743091Y-25346121D01*
X51092485Y-25346121D01*
X51092485Y-25654000D01*
G37*
G36*
X51092485Y-26462182D02*
G01*
X51092485Y-26731576D01*
X45743091Y-26731576D01*
X40393697Y-26731576D01*
X40393697Y-26462182D01*
X40393697Y-26192788D01*
X45743091Y-26192788D01*
X51092485Y-26192788D01*
X51092485Y-26462182D01*
G37*
G36*
X51092485Y-27231879D02*
G01*
X51092485Y-27501273D01*
X45743091Y-27501273D01*
X40393697Y-27501273D01*
X40393697Y-27231879D01*
X40393697Y-26962485D01*
X45743091Y-26962485D01*
X51092485Y-26962485D01*
X51092485Y-27231879D01*
G37*
G36*
X51092485Y-28040061D02*
G01*
X51092485Y-28347939D01*
X45743091Y-28347939D01*
X40393697Y-28347939D01*
X40393697Y-28040061D01*
X40393697Y-27732182D01*
X45743091Y-27732182D01*
X51092485Y-27732182D01*
X51092485Y-28040061D01*
G37*
G36*
X53387210Y-23210212D02*
G01*
X53363091Y-23460364D01*
X52612637Y-23482393D01*
X51862182Y-23504423D01*
X51862182Y-23232242D01*
X51862182Y-22960061D01*
X52636756Y-22960061D01*
X53411329Y-22960061D01*
X53387210Y-23210212D01*
G37*
G36*
X54171273Y-25615515D02*
G01*
X54171273Y-25884909D01*
X53016728Y-25884909D01*
X51862182Y-25884909D01*
X51862182Y-25615515D01*
X51862182Y-25346121D01*
X53016728Y-25346121D01*
X54171273Y-25346121D01*
X54171273Y-25615515D01*
G37*
G36*
X56153243Y-25363306D02*
G01*
X57288546Y-25384606D01*
X57312665Y-25634758D01*
X57336784Y-25884909D01*
X56177362Y-25884909D01*
X55017940Y-25884909D01*
X55017940Y-25613458D01*
X55017940Y-25342006D01*
X56153243Y-25363306D01*
G37*
G36*
X57288546Y-24807333D02*
G01*
X57288546Y-25076727D01*
X56533275Y-25098815D01*
X55778005Y-25120903D01*
X55802063Y-24829421D01*
X55826121Y-24537939D01*
X56557334Y-24537939D01*
X57288546Y-24537939D01*
X57288546Y-24807333D01*
G37*
G36*
X57312665Y-23210212D02*
G01*
X57288546Y-23460364D01*
X56538091Y-23482393D01*
X55787637Y-23504423D01*
X55787637Y-23232242D01*
X55787637Y-22960061D01*
X56562210Y-22960061D01*
X57336784Y-22960061D01*
X57312665Y-23210212D01*
G37*
G36*
X62849606Y-25362576D02*
G01*
X63600061Y-25384606D01*
X63600061Y-25615515D01*
X63600061Y-25846424D01*
X62849606Y-25868454D01*
X62099152Y-25890484D01*
X62099152Y-25615515D01*
X62099152Y-25340547D01*
X62849606Y-25362576D01*
G37*
G36*
X66698091Y-26978940D02*
G01*
X67448546Y-27000970D01*
X67472665Y-27251121D01*
X67496784Y-27501273D01*
X66722210Y-27501273D01*
X65947637Y-27501273D01*
X65947637Y-27229092D01*
X65947637Y-26956910D01*
X66698091Y-26978940D01*
G37*
G36*
X67448546Y-24807333D02*
G01*
X67448546Y-25076727D01*
X66693275Y-25098815D01*
X65938005Y-25120903D01*
X65962063Y-24829421D01*
X65986121Y-24537939D01*
X66717334Y-24537939D01*
X67448546Y-24537939D01*
X67448546Y-24807333D01*
G37*
G36*
X67448546Y-26423697D02*
G01*
X67448546Y-26693091D01*
X66693275Y-26715179D01*
X65938005Y-26737266D01*
X65962063Y-26445785D01*
X65986121Y-26154303D01*
X66717334Y-26154303D01*
X67448546Y-26154303D01*
X67448546Y-26423697D01*
G37*
G36*
X68275970Y-22978174D02*
G01*
X70604303Y-22998546D01*
X70604303Y-23229455D01*
X70604303Y-23460364D01*
X68275970Y-23480735D01*
X65947637Y-23501106D01*
X65947637Y-23229455D01*
X65947637Y-22957803D01*
X68275970Y-22978174D01*
G37*
G36*
X68275970Y-25364235D02*
G01*
X70604303Y-25384606D01*
X70604303Y-25615515D01*
X70604303Y-25846424D01*
X68275970Y-25866795D01*
X65947637Y-25887166D01*
X65947637Y-25615515D01*
X65947637Y-25343864D01*
X68275970Y-25364235D01*
G37*
G36*
X70604303Y-28040061D02*
G01*
X70604303Y-28309455D01*
X68271256Y-28329833D01*
X65938209Y-28350211D01*
X65962165Y-28060439D01*
X65986121Y-27770667D01*
X68295212Y-27770667D01*
X70604303Y-27770667D01*
X70604303Y-28040061D01*
G37*
G36*
X71374000Y-24807333D02*
G01*
X71374000Y-25076727D01*
X70618730Y-25098815D01*
X69863459Y-25120903D01*
X69887518Y-24829421D01*
X69911576Y-24537939D01*
X70642788Y-24537939D01*
X71374000Y-24537939D01*
X71374000Y-24807333D01*
G37*
G36*
X71374000Y-26423697D02*
G01*
X71374000Y-26693091D01*
X70618730Y-26715179D01*
X69863459Y-26737266D01*
X69887518Y-26445785D01*
X69911576Y-26154303D01*
X70642788Y-26154303D01*
X71374000Y-26154303D01*
X71374000Y-26423697D01*
G37*
G36*
X71412485Y-27231879D02*
G01*
X71412485Y-27501273D01*
X70642788Y-27501273D01*
X69873091Y-27501273D01*
X69873091Y-27231879D01*
X69873091Y-26962485D01*
X70642788Y-26962485D01*
X71412485Y-26962485D01*
X71412485Y-27231879D01*
G37*
G36*
X76935061Y-22976516D02*
G01*
X77685515Y-22998546D01*
X77685515Y-23229455D01*
X77685515Y-23460364D01*
X76935061Y-23482393D01*
X76184606Y-23504423D01*
X76184606Y-23229455D01*
X76184606Y-22954486D01*
X76935061Y-22976516D01*
G37*
G36*
X76935061Y-25362576D02*
G01*
X77685515Y-25384606D01*
X77685515Y-25615515D01*
X77685515Y-25846424D01*
X76935061Y-25868454D01*
X76184606Y-25890484D01*
X76184606Y-25615515D01*
X76184606Y-25340547D01*
X76935061Y-25362576D01*
G37*
G36*
X76935061Y-26978940D02*
G01*
X77685515Y-27000970D01*
X77685515Y-27231879D01*
X77685515Y-27462788D01*
X76935061Y-27484818D01*
X76184606Y-27506847D01*
X76184606Y-27231879D01*
X76184606Y-26956910D01*
X76935061Y-26978940D01*
G37*
G36*
X77685515Y-26423697D02*
G01*
X77685515Y-26693091D01*
X76930245Y-26715179D01*
X76174974Y-26737266D01*
X76199033Y-26445785D01*
X76223091Y-26154303D01*
X76954303Y-26154303D01*
X77685515Y-26154303D01*
X77685515Y-26423697D01*
G37*
G36*
X86344606Y-25612728D02*
G01*
X86344606Y-25884909D01*
X85570033Y-25884909D01*
X84795459Y-25884909D01*
X84819578Y-25634758D01*
X84843697Y-25384606D01*
X85594152Y-25362576D01*
X86344606Y-25340547D01*
X86344606Y-25612728D01*
G37*
G36*
X89500364Y-27229092D02*
G01*
X89500364Y-27501273D01*
X88725790Y-27501273D01*
X87951217Y-27501273D01*
X87975336Y-27251121D01*
X87999455Y-27000970D01*
X88749909Y-26978940D01*
X89500364Y-26956910D01*
X89500364Y-27229092D01*
G37*
G36*
X246749455Y-23267939D02*
G01*
X246749455Y-23575818D01*
X171934909Y-23575818D01*
X97120364Y-23575818D01*
X97120364Y-23267939D01*
X97120364Y-22960061D01*
X171934909Y-22960061D01*
X246749455Y-22960061D01*
X246749455Y-23267939D01*
G37*
G36*
X246749455Y-24076121D02*
G01*
X246749455Y-24345515D01*
X171934909Y-24345515D01*
X97120364Y-24345515D01*
X97120364Y-24076121D01*
X97120364Y-23806727D01*
X171934909Y-23806727D01*
X246749455Y-23806727D01*
X246749455Y-24076121D01*
G37*
G36*
X246749455Y-24845818D02*
G01*
X246749455Y-25115212D01*
X171934909Y-25115212D01*
X97120364Y-25115212D01*
X97120364Y-24845818D01*
X97120364Y-24576424D01*
X171934909Y-24576424D01*
X246749455Y-24576424D01*
X246749455Y-24845818D01*
G37*
G36*
X246749455Y-25654000D02*
G01*
X246749455Y-25961879D01*
X171934909Y-25961879D01*
X97120364Y-25961879D01*
X97120364Y-25654000D01*
X97120364Y-25346121D01*
X171934909Y-25346121D01*
X246749455Y-25346121D01*
X246749455Y-25654000D01*
G37*
G36*
X246749455Y-26462182D02*
G01*
X246749455Y-26731576D01*
X171934909Y-26731576D01*
X97120364Y-26731576D01*
X97120364Y-26462182D01*
X97120364Y-26192788D01*
X171934909Y-26192788D01*
X246749455Y-26192788D01*
X246749455Y-26462182D01*
G37*
G36*
X246749455Y-27231879D02*
G01*
X246749455Y-27501273D01*
X171934909Y-27501273D01*
X97120364Y-27501273D01*
X97120364Y-27231879D01*
X97120364Y-26962485D01*
X171934909Y-26962485D01*
X246749455Y-26962485D01*
X246749455Y-27231879D01*
G37*
G36*
X246749455Y-28040061D02*
G01*
X246749455Y-28347939D01*
X171934909Y-28347939D01*
X97120364Y-28347939D01*
X97120364Y-28040061D01*
X97120364Y-27732182D01*
X171934909Y-27732182D01*
X246749455Y-27732182D01*
X246749455Y-28040061D01*
G37*
G36*
X53140467Y-24520352D02*
G01*
X53300072Y-24567102D01*
X53375615Y-24653814D01*
X53390107Y-24788436D01*
X53387013Y-24829217D01*
X53363091Y-25076727D01*
X52607821Y-25098815D01*
X51852550Y-25120903D01*
X51876609Y-24829421D01*
X51900667Y-24537939D01*
X52477033Y-24514955D01*
X52873791Y-24505619D01*
X53140467Y-24520352D01*
G37*
G36*
X96581576Y-23229455D02*
G01*
X96581576Y-23498849D01*
X95863192Y-23498849D01*
X95544563Y-23493674D01*
X95286528Y-23479795D01*
X95126098Y-23459680D01*
X95093495Y-23447535D01*
X95055896Y-23339878D01*
X95042182Y-23178141D01*
X95042182Y-22960061D01*
X95811879Y-22960061D01*
X96581576Y-22960061D01*
X96581576Y-23229455D01*
G37*
G36*
X52612637Y-23746213D02*
G01*
X53363091Y-23768243D01*
X53363091Y-24037636D01*
X53363091Y-24307030D01*
X52666633Y-24328956D01*
X52352794Y-24333048D01*
X52099409Y-24325533D01*
X51944298Y-24308027D01*
X51916178Y-24296885D01*
X51879246Y-24189372D01*
X51862300Y-24000792D01*
X51862182Y-23983536D01*
X51862182Y-23724183D01*
X52612637Y-23746213D01*
G37*
G36*
X66698091Y-23746213D02*
G01*
X67448546Y-23768243D01*
X67448546Y-24037636D01*
X67448546Y-24307030D01*
X66752087Y-24328956D01*
X66438248Y-24333048D01*
X66184864Y-24325533D01*
X66029753Y-24308027D01*
X66001633Y-24296885D01*
X65964701Y-24189372D01*
X65947754Y-24000792D01*
X65947637Y-23983536D01*
X65947637Y-23724183D01*
X66698091Y-23746213D01*
G37*
G36*
X76935061Y-23746213D02*
G01*
X77685515Y-23768243D01*
X77685515Y-24037636D01*
X77685515Y-24307030D01*
X76989057Y-24328956D01*
X76675218Y-24333048D01*
X76421833Y-24325533D01*
X76266722Y-24308027D01*
X76238603Y-24296885D01*
X76201671Y-24189372D01*
X76184724Y-24000792D01*
X76184606Y-23983536D01*
X76184606Y-23724183D01*
X76935061Y-23746213D01*
G37*
G36*
X54568462Y-27746286D02*
G01*
X54585092Y-27747474D01*
X54787204Y-27771444D01*
X54882605Y-27832418D01*
X54918405Y-27973442D01*
X54926374Y-28059303D01*
X54950263Y-28347939D01*
X54604896Y-28347939D01*
X54376232Y-28332988D01*
X54262421Y-28279240D01*
X54231671Y-28213243D01*
X54222499Y-28027700D01*
X54235755Y-27901413D01*
X54275508Y-27789226D01*
X54370835Y-27744380D01*
X54568462Y-27746286D01*
G37*
G36*
X59242922Y-25349428D02*
G01*
X59462409Y-25363077D01*
X59588338Y-25392662D01*
X59650862Y-25443776D01*
X59671165Y-25489217D01*
X59705356Y-25658364D01*
X59667493Y-25772263D01*
X59537529Y-25841155D01*
X59295418Y-25875283D01*
X58921113Y-25884889D01*
X58896674Y-25884909D01*
X58173697Y-25884909D01*
X58173697Y-25615515D01*
X58173697Y-25346121D01*
X58899723Y-25346121D01*
X59242922Y-25349428D01*
G37*
G36*
X59242922Y-26965792D02*
G01*
X59462409Y-26979441D01*
X59588338Y-27009026D01*
X59650862Y-27060139D01*
X59671165Y-27105581D01*
X59705356Y-27274728D01*
X59667493Y-27388626D01*
X59537529Y-27457519D01*
X59295418Y-27491647D01*
X58921113Y-27501252D01*
X58896674Y-27501273D01*
X58173697Y-27501273D01*
X58173697Y-27231879D01*
X58173697Y-26962485D01*
X58899723Y-26962485D01*
X59242922Y-26965792D01*
G37*
G36*
X63423765Y-24547884D02*
G01*
X63569614Y-24625814D01*
X63625609Y-24756692D01*
X63623195Y-24877715D01*
X63607179Y-24968880D01*
X63565226Y-25027830D01*
X63468100Y-25062871D01*
X63286567Y-25082304D01*
X62991392Y-25094435D01*
X62844790Y-25098815D01*
X62089520Y-25120903D01*
X62113578Y-24829421D01*
X62137637Y-24537939D01*
X62780096Y-24515464D01*
X63167460Y-24514051D01*
X63423765Y-24547884D01*
G37*
G36*
X73604574Y-24551720D02*
G01*
X73745362Y-24633342D01*
X73789171Y-24769605D01*
X73767189Y-24921788D01*
X73738367Y-25011306D01*
X73685912Y-25067814D01*
X73579107Y-25098902D01*
X73387235Y-25112158D01*
X73079578Y-25115170D01*
X72984251Y-25115212D01*
X72249859Y-25115212D01*
X72273748Y-24826576D01*
X72297637Y-24537939D01*
X72959352Y-24515872D01*
X73348630Y-24515608D01*
X73604574Y-24551720D01*
G37*
G36*
X77509220Y-24547884D02*
G01*
X77655069Y-24625814D01*
X77711063Y-24756692D01*
X77708649Y-24877715D01*
X77692634Y-24968880D01*
X77650680Y-25027830D01*
X77553554Y-25062871D01*
X77372021Y-25082304D01*
X77076847Y-25094435D01*
X76930245Y-25098815D01*
X76174974Y-25120903D01*
X76199033Y-24829421D01*
X76223091Y-24537939D01*
X76865551Y-24515464D01*
X77252915Y-24514051D01*
X77509220Y-24547884D01*
G37*
G36*
X80033091Y-25615515D02*
G01*
X80033091Y-25884909D01*
X79310114Y-25884909D01*
X78947084Y-25878917D01*
X78713849Y-25858700D01*
X78586646Y-25820903D01*
X78545681Y-25776878D01*
X78529951Y-25616508D01*
X78546424Y-25507485D01*
X78577750Y-25431929D01*
X78644138Y-25384476D01*
X78776191Y-25358667D01*
X79004511Y-25348042D01*
X79310856Y-25346121D01*
X80033091Y-25346121D01*
X80033091Y-25615515D01*
G37*
G36*
X80033091Y-27231879D02*
G01*
X80033091Y-27501273D01*
X79310114Y-27501273D01*
X78947084Y-27495280D01*
X78713849Y-27475064D01*
X78586646Y-27437266D01*
X78545681Y-27393242D01*
X78529951Y-27232871D01*
X78546424Y-27123848D01*
X78577750Y-27048292D01*
X78644138Y-27000840D01*
X78776191Y-26975031D01*
X79004511Y-26964405D01*
X79310856Y-26962485D01*
X80033091Y-26962485D01*
X80033091Y-27231879D01*
G37*
G36*
X83188849Y-27229092D02*
G01*
X83188849Y-27501273D01*
X82455221Y-27501273D01*
X82092754Y-27495772D01*
X81858910Y-27476888D01*
X81728686Y-27441045D01*
X81679014Y-27390314D01*
X81655572Y-27219398D01*
X81663079Y-27140163D01*
X81693735Y-27074773D01*
X81774710Y-27031424D01*
X81934525Y-27004190D01*
X82201701Y-26987148D01*
X82439286Y-26978940D01*
X83188849Y-26956910D01*
X83188849Y-27229092D01*
G37*
G36*
X83557208Y-25348706D02*
G01*
X83772752Y-25360766D01*
X83895590Y-25388762D01*
X83956325Y-25439152D01*
X83982789Y-25507485D01*
X84010691Y-25671298D01*
X83977542Y-25779938D01*
X83861093Y-25844401D01*
X83639096Y-25875682D01*
X83289300Y-25884778D01*
X83219099Y-25884909D01*
X82496121Y-25884909D01*
X82496121Y-25615515D01*
X82496121Y-25346121D01*
X83218356Y-25346121D01*
X83557208Y-25348706D01*
G37*
G36*
X86344606Y-27229092D02*
G01*
X86344606Y-27501273D01*
X85610978Y-27501273D01*
X85248512Y-27495772D01*
X85014668Y-27476888D01*
X84884443Y-27441045D01*
X84834772Y-27390314D01*
X84811330Y-27219398D01*
X84818837Y-27140163D01*
X84849493Y-27074773D01*
X84930468Y-27031424D01*
X85090283Y-27004190D01*
X85357458Y-26987148D01*
X85595043Y-26978940D01*
X86344606Y-26956910D01*
X86344606Y-27229092D01*
G37*
G36*
X89569860Y-24515872D02*
G01*
X90231576Y-24537939D01*
X90255465Y-24826576D01*
X90279353Y-25115212D01*
X89544961Y-25115212D01*
X89204660Y-25113539D01*
X88987579Y-25103458D01*
X88863001Y-25077383D01*
X88800208Y-25027724D01*
X88768483Y-24946893D01*
X88762023Y-24921788D01*
X88742105Y-24735931D01*
X88804816Y-24611928D01*
X88968332Y-24540644D01*
X89250831Y-24512948D01*
X89569860Y-24515872D01*
G37*
G36*
X90270061Y-25612728D02*
G01*
X90270061Y-25884909D01*
X89536433Y-25884909D01*
X89173966Y-25879409D01*
X88940122Y-25860524D01*
X88809898Y-25824681D01*
X88760226Y-25773951D01*
X88736784Y-25603034D01*
X88744291Y-25523799D01*
X88774948Y-25458410D01*
X88855922Y-25415060D01*
X89015737Y-25387826D01*
X89282913Y-25370785D01*
X89520498Y-25362576D01*
X90270061Y-25340547D01*
X90270061Y-25612728D01*
G37*
G36*
X93425818Y-23226667D02*
G01*
X93425818Y-23498849D01*
X92692191Y-23498849D01*
X92329724Y-23493348D01*
X92095880Y-23474463D01*
X91965656Y-23438621D01*
X91915984Y-23387890D01*
X91892542Y-23216974D01*
X91900049Y-23137739D01*
X91930705Y-23072349D01*
X92011680Y-23028999D01*
X92171495Y-23001766D01*
X92438670Y-22984724D01*
X92676256Y-22976516D01*
X93425818Y-22954486D01*
X93425818Y-23226667D01*
G37*
G36*
X59413993Y-24515918D02*
G01*
X59534937Y-24545175D01*
X59604388Y-24602164D01*
X59636107Y-24653367D01*
X59685381Y-24844006D01*
X59673684Y-24964180D01*
X59636914Y-25034884D01*
X59560746Y-25079424D01*
X59414738Y-25103706D01*
X59168447Y-25113633D01*
X58895076Y-25115212D01*
X58164405Y-25115212D01*
X58188293Y-24826576D01*
X58212182Y-24537939D01*
X58881388Y-24515763D01*
X59207497Y-24508184D01*
X59413993Y-24515918D01*
G37*
G36*
X59455458Y-27743940D02*
G01*
X59573394Y-27767467D01*
X59631714Y-27817573D01*
X59661827Y-27901251D01*
X59665499Y-27915721D01*
X59697869Y-28101393D01*
X59669644Y-28225205D01*
X59558972Y-28299366D01*
X59344002Y-28336087D01*
X59002884Y-28347578D01*
X58892028Y-28347939D01*
X58164405Y-28347939D01*
X58188293Y-28059303D01*
X58212182Y-27770667D01*
X58915113Y-27748656D01*
X59246500Y-27740000D01*
X59455458Y-27743940D01*
G37*
G36*
X73328099Y-25347941D02*
G01*
X73544143Y-25358367D01*
X73667810Y-25384849D01*
X73729877Y-25434836D01*
X73761124Y-25515778D01*
X73765841Y-25534171D01*
X73783873Y-25709029D01*
X73762764Y-25803565D01*
X73664322Y-25841910D01*
X73440881Y-25869641D01*
X73121194Y-25883746D01*
X72985821Y-25884909D01*
X72259152Y-25884909D01*
X72259152Y-25615515D01*
X72259152Y-25346121D01*
X72988897Y-25346121D01*
X73328099Y-25347941D01*
G37*
G36*
X73328099Y-26964305D02*
G01*
X73544143Y-26974731D01*
X73667810Y-27001213D01*
X73729877Y-27051200D01*
X73761124Y-27132142D01*
X73765841Y-27150535D01*
X73783873Y-27325393D01*
X73762764Y-27419928D01*
X73664322Y-27458274D01*
X73440881Y-27486005D01*
X73121194Y-27500110D01*
X72985821Y-27501273D01*
X72259152Y-27501273D01*
X72259152Y-27231879D01*
X72259152Y-26962485D01*
X72988897Y-26962485D01*
X73328099Y-26964305D01*
G37*
G36*
X73333543Y-22968428D02*
G01*
X73595539Y-22991521D01*
X73743059Y-23026332D01*
X73762764Y-23041405D01*
X73784296Y-23172952D01*
X73765841Y-23310799D01*
X73736869Y-23398091D01*
X73682606Y-23453089D01*
X73572272Y-23483245D01*
X73375089Y-23496006D01*
X73060278Y-23498823D01*
X72988897Y-23498849D01*
X72259152Y-23498849D01*
X72259152Y-23229455D01*
X72259152Y-22960061D01*
X72985821Y-22960061D01*
X73333543Y-22968428D01*
G37*
G36*
X73549964Y-26130097D02*
G01*
X73670818Y-26154799D01*
X73731823Y-26204125D01*
X73759170Y-26266950D01*
X73778364Y-26471747D01*
X73760061Y-26577636D01*
X73723640Y-26649618D01*
X73649429Y-26694962D01*
X73506876Y-26719703D01*
X73265425Y-26729874D01*
X72980531Y-26731576D01*
X72249859Y-26731576D01*
X72273748Y-26442939D01*
X72297637Y-26154303D01*
X73003528Y-26132253D01*
X73337967Y-26124441D01*
X73549964Y-26130097D01*
G37*
G36*
X79171342Y-24511209D02*
G01*
X79325400Y-24515763D01*
X79994606Y-24537939D01*
X80018495Y-24826576D01*
X80042384Y-25115212D01*
X79315502Y-25115212D01*
X78975830Y-25112809D01*
X78759464Y-25101191D01*
X78635795Y-25073749D01*
X78574212Y-25023871D01*
X78545111Y-24948829D01*
X78543033Y-24748121D01*
X78578897Y-24638016D01*
X78633939Y-24568070D01*
X78728844Y-24527253D01*
X78896887Y-24510116D01*
X79171342Y-24511209D01*
G37*
G36*
X79171342Y-26127573D02*
G01*
X79325400Y-26132126D01*
X79994606Y-26154303D01*
X80018495Y-26442939D01*
X80042384Y-26731576D01*
X79315502Y-26731576D01*
X78975830Y-26729172D01*
X78759464Y-26717555D01*
X78635795Y-26690113D01*
X78574212Y-26640234D01*
X78545111Y-26565193D01*
X78543033Y-26364485D01*
X78578897Y-26254379D01*
X78633939Y-26184434D01*
X78728844Y-26143617D01*
X78896887Y-26126480D01*
X79171342Y-26127573D01*
G37*
G36*
X80018495Y-24018394D02*
G01*
X79994606Y-24307030D01*
X79292335Y-24329033D01*
X78959358Y-24336888D01*
X78749132Y-24331353D01*
X78630666Y-24306810D01*
X78572968Y-24257643D01*
X78549087Y-24194336D01*
X78533492Y-23986040D01*
X78548365Y-23883697D01*
X78580376Y-23811647D01*
X78650870Y-23766309D01*
X78790125Y-23741609D01*
X79028422Y-23731469D01*
X79315502Y-23729758D01*
X80042384Y-23729758D01*
X80018495Y-24018394D01*
G37*
G36*
X83174253Y-24018394D02*
G01*
X83150364Y-24307030D01*
X82444472Y-24329081D01*
X82110034Y-24336892D01*
X81898036Y-24331236D01*
X81777183Y-24306535D01*
X81716177Y-24257209D01*
X81688831Y-24194384D01*
X81669636Y-23989586D01*
X81687940Y-23883697D01*
X81724361Y-23811716D01*
X81798571Y-23766372D01*
X81941124Y-23741631D01*
X82182575Y-23731459D01*
X82467470Y-23729758D01*
X83198141Y-23729758D01*
X83174253Y-24018394D01*
G37*
G36*
X83740995Y-24517530D02*
G01*
X83862398Y-24547794D01*
X83930042Y-24604912D01*
X83950316Y-24638016D01*
X83995103Y-24830207D01*
X83984102Y-24948829D01*
X83953307Y-25026436D01*
X83889785Y-25075267D01*
X83762924Y-25101932D01*
X83542114Y-25113043D01*
X83213710Y-25115212D01*
X82486829Y-25115212D01*
X82510718Y-24826576D01*
X82534606Y-24537939D01*
X83203813Y-24515763D01*
X83532557Y-24508669D01*
X83740995Y-24517530D01*
G37*
G36*
X83740995Y-26133893D02*
G01*
X83862398Y-26164158D01*
X83930042Y-26221276D01*
X83950316Y-26254379D01*
X83995103Y-26446571D01*
X83984102Y-26565193D01*
X83953307Y-26642800D01*
X83889785Y-26691631D01*
X83762924Y-26718296D01*
X83542114Y-26729407D01*
X83213710Y-26731576D01*
X82486829Y-26731576D01*
X82510718Y-26442939D01*
X82534606Y-26154303D01*
X83203813Y-26132126D01*
X83532557Y-26125032D01*
X83740995Y-26133893D01*
G37*
G36*
X85717616Y-24514475D02*
G01*
X85729755Y-24514955D01*
X86306121Y-24537939D01*
X86330010Y-24826576D01*
X86353899Y-25115212D01*
X85630869Y-25115212D01*
X85311181Y-25110070D01*
X85052017Y-25096273D01*
X84890245Y-25076263D01*
X84856525Y-25063899D01*
X84818827Y-24956156D01*
X84805212Y-24795972D01*
X84825844Y-24660779D01*
X84903603Y-24572266D01*
X85062287Y-24523200D01*
X85325693Y-24506347D01*
X85717616Y-24514475D01*
G37*
G36*
X86330010Y-26442939D02*
G01*
X86353899Y-26731576D01*
X85615625Y-26731576D01*
X85250830Y-26726014D01*
X85015132Y-26707028D01*
X84884012Y-26671165D01*
X84835195Y-26621719D01*
X84811593Y-26459664D01*
X84818368Y-26333083D01*
X84837715Y-26250161D01*
X84887143Y-26197874D01*
X84996482Y-26169172D01*
X85195564Y-26157005D01*
X85514220Y-26154323D01*
X85574909Y-26154303D01*
X86306121Y-26154303D01*
X86330010Y-26442939D01*
G37*
G36*
X88692182Y-28040061D02*
G01*
X88692182Y-28309455D01*
X86785284Y-28330046D01*
X86182101Y-28335347D01*
X85715719Y-28336093D01*
X85369044Y-28331490D01*
X85124984Y-28320743D01*
X84966447Y-28303058D01*
X84876339Y-28277641D01*
X84837568Y-28243696D01*
X84835712Y-28239431D01*
X84811689Y-28076125D01*
X84818368Y-27949446D01*
X84843697Y-27770667D01*
X86767940Y-27770667D01*
X88692182Y-27770667D01*
X88692182Y-28040061D01*
G37*
G36*
X89525684Y-26132253D02*
G01*
X90231576Y-26154303D01*
X90255465Y-26442939D01*
X90279353Y-26731576D01*
X89548682Y-26731576D01*
X89206116Y-26728716D01*
X88986890Y-26716113D01*
X88860450Y-26687734D01*
X88796243Y-26637545D01*
X88769152Y-26577636D01*
X88751129Y-26373899D01*
X88770043Y-26266950D01*
X88805308Y-26193237D01*
X88874727Y-26148729D01*
X89009596Y-26127846D01*
X89241212Y-26125011D01*
X89525684Y-26132253D01*
G37*
G36*
X92798828Y-24514475D02*
G01*
X92810967Y-24514955D01*
X93387334Y-24537939D01*
X93411222Y-24826576D01*
X93435111Y-25115212D01*
X92712081Y-25115212D01*
X92392393Y-25110070D01*
X92133229Y-25096273D01*
X91971458Y-25076263D01*
X91937738Y-25063899D01*
X91900039Y-24956156D01*
X91886424Y-24795972D01*
X91907056Y-24660779D01*
X91984816Y-24572266D01*
X92143499Y-24523200D01*
X92406905Y-24506347D01*
X92798828Y-24514475D01*
G37*
G36*
X94571735Y-26964305D02*
G01*
X94787780Y-26974731D01*
X94911446Y-27001213D01*
X94973514Y-27051200D01*
X95004760Y-27132142D01*
X95009477Y-27150535D01*
X95027509Y-27325393D01*
X95006401Y-27419928D01*
X94907958Y-27458274D01*
X94684517Y-27486005D01*
X94364830Y-27500110D01*
X94229458Y-27501273D01*
X93502788Y-27501273D01*
X93502788Y-27231879D01*
X93502788Y-26962485D01*
X94232534Y-26962485D01*
X94571735Y-26964305D01*
G37*
G36*
X94793601Y-26130097D02*
G01*
X94914454Y-26154799D01*
X94975459Y-26204125D01*
X95002806Y-26266950D01*
X95022001Y-26471747D01*
X95003697Y-26577636D01*
X94967276Y-26649618D01*
X94893066Y-26694962D01*
X94750512Y-26719703D01*
X94509062Y-26729874D01*
X94224167Y-26731576D01*
X93493496Y-26731576D01*
X93517384Y-26442939D01*
X93541273Y-26154303D01*
X94247165Y-26132253D01*
X94581603Y-26124441D01*
X94793601Y-26130097D01*
G37*
G36*
X94793601Y-27746461D02*
G01*
X94914454Y-27771162D01*
X94975459Y-27820488D01*
X95002806Y-27883313D01*
X95022001Y-28088111D01*
X95003697Y-28194000D01*
X94967276Y-28265981D01*
X94893066Y-28311326D01*
X94750512Y-28336066D01*
X94509062Y-28346238D01*
X94224167Y-28347939D01*
X93493496Y-28347939D01*
X93517384Y-28059303D01*
X93541273Y-27770667D01*
X94247165Y-27748616D01*
X94581603Y-27740805D01*
X94793601Y-27746461D01*
G37*
G36*
X96566980Y-24826576D02*
G01*
X96590869Y-25115212D01*
X95852594Y-25115212D01*
X95487800Y-25109650D01*
X95252102Y-25090664D01*
X95120982Y-25054801D01*
X95072164Y-25005355D01*
X95048563Y-24843301D01*
X95055338Y-24716719D01*
X95074685Y-24633798D01*
X95124113Y-24581511D01*
X95233452Y-24552808D01*
X95432534Y-24540641D01*
X95751190Y-24537959D01*
X95811879Y-24537939D01*
X96543091Y-24537939D01*
X96566980Y-24826576D01*
G37*
G36*
X57288546Y-24037636D02*
G01*
X57288546Y-24307030D01*
X56575275Y-24329178D01*
X56224581Y-24335181D01*
X55999979Y-24324750D01*
X55874187Y-24294618D01*
X55819921Y-24241518D01*
X55818734Y-24238564D01*
X55794224Y-24073810D01*
X55800792Y-23947022D01*
X55820140Y-23864101D01*
X55869567Y-23811814D01*
X55978907Y-23783111D01*
X56177988Y-23770944D01*
X56496645Y-23768262D01*
X56557334Y-23768243D01*
X57288546Y-23768243D01*
X57288546Y-24037636D01*
G37*
G36*
X62782441Y-26284964D02*
G01*
X62818839Y-26479947D01*
X62809900Y-26594008D01*
X62790908Y-26633254D01*
X62745863Y-26664264D01*
X62658381Y-26687999D01*
X62512085Y-26705423D01*
X62290592Y-26717497D01*
X61977523Y-26725186D01*
X61556496Y-26729452D01*
X61011132Y-26731257D01*
X60469165Y-26731576D01*
X58164405Y-26731576D01*
X58188293Y-26442939D01*
X58212182Y-26154303D01*
X60465595Y-26133895D01*
X62719007Y-26113487D01*
X62782441Y-26284964D01*
G37*
G36*
X71374000Y-24037636D02*
G01*
X71374000Y-24307030D01*
X70660730Y-24329178D01*
X70310036Y-24335181D01*
X70085434Y-24324750D01*
X69959641Y-24294618D01*
X69905375Y-24241518D01*
X69904188Y-24238564D01*
X69879679Y-24073810D01*
X69886247Y-23947022D01*
X69905594Y-23864101D01*
X69955022Y-23811814D01*
X70064361Y-23783111D01*
X70263443Y-23770944D01*
X70582099Y-23768262D01*
X70642788Y-23768243D01*
X71374000Y-23768243D01*
X71374000Y-24037636D01*
G37*
G36*
X86330180Y-24015549D02*
G01*
X86306121Y-24307030D01*
X85592851Y-24329178D01*
X85242157Y-24335181D01*
X85017555Y-24324750D01*
X84891762Y-24294618D01*
X84837496Y-24241518D01*
X84836310Y-24238564D01*
X84811800Y-24073810D01*
X84818368Y-23947022D01*
X84838154Y-23864898D01*
X84888987Y-23811521D01*
X85000164Y-23779352D01*
X85200982Y-23760851D01*
X85520736Y-23748481D01*
X85598968Y-23746155D01*
X86354238Y-23724067D01*
X86330180Y-24015549D01*
G37*
G36*
X89461879Y-24037636D02*
G01*
X89461879Y-24307030D01*
X88748609Y-24329178D01*
X88397914Y-24335181D01*
X88173312Y-24324750D01*
X88047520Y-24294618D01*
X87993254Y-24241518D01*
X87992067Y-24238564D01*
X87967558Y-24073810D01*
X87974125Y-23947022D01*
X87993473Y-23864101D01*
X88042901Y-23811814D01*
X88152240Y-23783111D01*
X88351322Y-23770944D01*
X88669978Y-23768262D01*
X88730667Y-23768243D01*
X89461879Y-23768243D01*
X89461879Y-24037636D01*
G37*
G36*
X93411392Y-24015549D02*
G01*
X93387334Y-24307030D01*
X92674063Y-24329178D01*
X92323369Y-24335181D01*
X92098767Y-24324750D01*
X91972975Y-24294618D01*
X91918709Y-24241518D01*
X91917522Y-24238564D01*
X91893012Y-24073810D01*
X91899580Y-23947022D01*
X91919366Y-23864898D01*
X91970199Y-23811521D01*
X92081376Y-23779352D01*
X92282194Y-23760851D01*
X92601948Y-23748481D01*
X92680180Y-23746155D01*
X93435450Y-23724067D01*
X93411392Y-24015549D01*
G37*
G36*
X96543091Y-24037636D02*
G01*
X96543091Y-24307030D01*
X95829821Y-24329178D01*
X95479126Y-24335181D01*
X95254525Y-24324750D01*
X95128732Y-24294618D01*
X95074466Y-24241518D01*
X95073279Y-24238564D01*
X95048770Y-24073810D01*
X95055338Y-23947022D01*
X95074685Y-23864101D01*
X95124113Y-23811814D01*
X95233452Y-23783111D01*
X95432534Y-23770944D01*
X95751190Y-23768262D01*
X95811879Y-23768243D01*
X96543091Y-23768243D01*
X96543091Y-24037636D01*
G37*
G36*
X62849606Y-23746213D02*
G01*
X63194569Y-23758331D01*
X63414999Y-23775238D01*
X63540278Y-23804490D01*
X63599788Y-23853642D01*
X63622911Y-23930250D01*
X63625212Y-23945661D01*
X63623519Y-24123718D01*
X63544522Y-24241977D01*
X63367280Y-24311018D01*
X63070853Y-24341418D01*
X62833768Y-24345515D01*
X62535433Y-24339652D01*
X62299152Y-24324063D01*
X62164873Y-24301747D01*
X62150465Y-24294202D01*
X62115400Y-24188706D01*
X62099270Y-24001254D01*
X62099152Y-23983536D01*
X62099152Y-23724183D01*
X62849606Y-23746213D01*
G37*
G36*
X73327926Y-23731458D02*
G01*
X73543845Y-23741668D01*
X73667484Y-23768049D01*
X73729670Y-23818262D01*
X73761231Y-23899968D01*
X73767189Y-23923181D01*
X73785307Y-24107692D01*
X73718048Y-24232027D01*
X73547085Y-24306196D01*
X73254092Y-24340204D01*
X72993768Y-24345515D01*
X72695433Y-24339652D01*
X72459152Y-24324063D01*
X72324873Y-24301747D01*
X72310465Y-24294202D01*
X72275244Y-24188573D01*
X72259241Y-24001563D01*
X72259152Y-23986323D01*
X72259152Y-23729758D01*
X72988897Y-23729758D01*
X73327926Y-23731458D01*
G37*
G36*
X59241470Y-23732757D02*
G01*
X59459877Y-23745727D01*
X59585489Y-23774630D01*
X59648853Y-23825426D01*
X59673684Y-23880790D01*
X59677539Y-24068855D01*
X59637677Y-24188668D01*
X59578761Y-24266737D01*
X59481660Y-24313808D01*
X59311578Y-24337433D01*
X59033719Y-24345164D01*
X58915030Y-24345515D01*
X58615073Y-24339712D01*
X58377046Y-24324271D01*
X58240644Y-24302143D01*
X58225010Y-24294202D01*
X58189790Y-24188573D01*
X58173786Y-24001563D01*
X58173697Y-23986323D01*
X58173697Y-23729758D01*
X58899723Y-23729758D01*
X59241470Y-23732757D01*
G37*
G36*
X93972397Y-25359862D02*
G01*
X94262637Y-25363768D01*
X95773394Y-25384606D01*
X95797513Y-25634758D01*
X95821632Y-25884909D01*
X94285597Y-25884909D01*
X93744908Y-25883058D01*
X93339830Y-25876670D01*
X93052069Y-25864492D01*
X92863332Y-25845270D01*
X92755325Y-25817754D01*
X92709755Y-25780689D01*
X92708106Y-25776878D01*
X92692496Y-25616848D01*
X92709265Y-25505889D01*
X92728701Y-25450167D01*
X92767427Y-25409210D01*
X92846071Y-25381133D01*
X92985262Y-25364046D01*
X93205627Y-25356064D01*
X93527796Y-25355299D01*
X93972397Y-25359862D01*
G37*
G36*
X56525347Y-26306730D02*
G01*
X56555047Y-26434332D01*
X56561419Y-26533425D01*
X56528083Y-26607613D01*
X56438662Y-26660502D01*
X56276776Y-26695693D01*
X56026047Y-26716793D01*
X55670095Y-26727404D01*
X55192543Y-26731130D01*
X54594606Y-26731576D01*
X53991515Y-26730244D01*
X53525482Y-26725609D01*
X53179647Y-26716713D01*
X52937145Y-26702597D01*
X52781116Y-26682302D01*
X52694695Y-26654871D01*
X52661861Y-26621719D01*
X52638260Y-26459664D01*
X52645035Y-26333083D01*
X52670364Y-26154303D01*
X54573561Y-26133720D01*
X56476758Y-26113137D01*
X56525347Y-26306730D01*
G37*
G36*
X82419152Y-23229455D02*
G01*
X82419152Y-23498849D01*
X80503886Y-23498849D01*
X79912543Y-23498474D01*
X79456927Y-23496349D01*
X79118828Y-23490974D01*
X78880035Y-23480846D01*
X78722337Y-23464464D01*
X78627522Y-23440327D01*
X78577380Y-23406934D01*
X78553698Y-23362784D01*
X78546424Y-23337485D01*
X78520146Y-23224600D01*
X78518381Y-23136818D01*
X78557493Y-23070982D01*
X78653851Y-23023936D01*
X78823820Y-22992523D01*
X79083768Y-22973586D01*
X79450060Y-22963968D01*
X79939063Y-22960512D01*
X80503144Y-22960061D01*
X82419152Y-22960061D01*
X82419152Y-23229455D01*
G37*
G36*
X88716401Y-23208880D02*
G01*
X88692182Y-23460364D01*
X86785284Y-23480955D01*
X86182948Y-23486277D01*
X85717318Y-23487096D01*
X85371201Y-23482603D01*
X85127407Y-23471991D01*
X84968747Y-23454449D01*
X84878030Y-23429170D01*
X84838065Y-23395346D01*
X84835289Y-23389239D01*
X84811461Y-23216969D01*
X84818963Y-23137739D01*
X84836539Y-23094839D01*
X84882608Y-23061382D01*
X84974936Y-23035928D01*
X85131288Y-23017041D01*
X85369428Y-23003283D01*
X85707123Y-22993216D01*
X86162136Y-22985403D01*
X86752234Y-22978405D01*
X86793176Y-22977971D01*
X88740619Y-22957396D01*
X88716401Y-23208880D01*
G37*
G36*
X61131217Y-22960618D02*
G01*
X61651018Y-22962918D01*
X62049546Y-22967904D01*
X62343134Y-22976519D01*
X62548114Y-22989707D01*
X62680817Y-23008411D01*
X62757578Y-23033574D01*
X62794726Y-23066139D01*
X62806129Y-23094758D01*
X62818839Y-23291388D01*
X62809463Y-23364152D01*
X62791773Y-23402613D01*
X62746190Y-23433003D01*
X62656418Y-23456264D01*
X62506160Y-23473338D01*
X62279119Y-23485164D01*
X61958999Y-23492684D01*
X61529503Y-23496840D01*
X60974334Y-23498573D01*
X60477144Y-23498849D01*
X58173697Y-23498849D01*
X58173697Y-23229455D01*
X58173697Y-22960061D01*
X60473811Y-22960061D01*
X61131217Y-22960618D01*
G37*
G36*
X76338720Y-27743397D02*
G01*
X76574768Y-27751152D01*
X76730031Y-27766022D01*
X76822794Y-27789279D01*
X76871342Y-27822194D01*
X76893960Y-27866041D01*
X76899289Y-27884797D01*
X76914487Y-28093072D01*
X76899635Y-28194000D01*
X76881465Y-28241501D01*
X76842801Y-28278074D01*
X76765489Y-28305148D01*
X76631375Y-28324146D01*
X76422304Y-28336494D01*
X76120122Y-28343620D01*
X75706675Y-28346947D01*
X75163808Y-28347902D01*
X74939468Y-28347939D01*
X73019556Y-28347939D01*
X73043445Y-28059303D01*
X73067334Y-27770667D01*
X74963010Y-27750100D01*
X75551126Y-27744143D01*
X76003601Y-27741484D01*
X76338720Y-27743397D01*
G37*
G36*
X79718871Y-27742736D02*
G01*
X80255920Y-27747650D01*
X80484990Y-27750100D01*
X82380667Y-27770667D01*
X82380667Y-28040061D01*
X82380667Y-28309455D01*
X80484990Y-28330021D01*
X79896875Y-28335978D01*
X79444400Y-28338637D01*
X79109281Y-28336724D01*
X78873232Y-28328969D01*
X78717969Y-28314099D01*
X78625206Y-28290843D01*
X78576658Y-28257927D01*
X78554041Y-28214081D01*
X78548711Y-28195324D01*
X78533696Y-27986201D01*
X78548711Y-27884797D01*
X78566461Y-27836693D01*
X78603541Y-27799979D01*
X78678236Y-27773382D01*
X78808831Y-27755632D01*
X79013612Y-27745456D01*
X79310864Y-27741581D01*
X79718871Y-27742736D01*
G37*
G36*
X55320781Y-26973309D02*
G01*
X55524006Y-26983348D01*
X55643899Y-27005338D01*
X55703970Y-27041623D01*
X55727730Y-27094549D01*
X55727861Y-27095159D01*
X55736146Y-27292560D01*
X55724917Y-27366576D01*
X55698140Y-27419652D01*
X55631698Y-27456758D01*
X55501956Y-27480682D01*
X55285284Y-27494212D01*
X54958048Y-27500135D01*
X54583214Y-27501273D01*
X54132188Y-27498475D01*
X53813385Y-27488693D01*
X53605165Y-27469841D01*
X53485888Y-27439837D01*
X53433917Y-27396596D01*
X53431136Y-27390314D01*
X53407732Y-27219415D01*
X53415275Y-27140163D01*
X53438931Y-27085532D01*
X53501129Y-27046344D01*
X53625240Y-27019354D01*
X53834636Y-27001314D01*
X54152688Y-26988977D01*
X54570297Y-26979704D01*
X55010714Y-26972876D01*
X55320781Y-26973309D01*
G37*
%TD*%
M02*
