%TF.GenerationSoftware,KiCad,Pcbnew,7.0.1-0*%
%TF.CreationDate,2023-05-06T12:03:47+02:00*%
%TF.ProjectId,video_patch_bay,76696465-6f5f-4706-9174-63685f626179,rev?*%
%TF.SameCoordinates,Original*%
%TF.FileFunction,Soldermask,Bot*%
%TF.FilePolarity,Negative*%
%FSLAX46Y46*%
G04 Gerber Fmt 4.6, Leading zero omitted, Abs format (unit mm)*
G04 Created by KiCad (PCBNEW 7.0.1-0) date 2023-05-06 12:03:47*
%MOMM*%
%LPD*%
G01*
G04 APERTURE LIST*
%ADD10C,3.000000*%
%ADD11C,2.550000*%
%ADD12R,1.930000X1.830000*%
%ADD13C,2.130000*%
%ADD14C,6.400000*%
G04 APERTURE END LIST*
D10*
%TO.C,J13*%
X42350000Y-54291068D03*
X52650000Y-54291068D03*
D11*
X47500000Y-52691068D03*
%TD*%
D12*
%TO.C,J44*%
X170175000Y-85511068D03*
D13*
X170175000Y-96911068D03*
X170175000Y-88611068D03*
%TD*%
D12*
%TO.C,J38*%
X65175000Y-85511068D03*
D13*
X65175000Y-96911068D03*
X65175000Y-88611068D03*
%TD*%
D10*
%TO.C,J11*%
X217500000Y-36855534D03*
X227800000Y-36855534D03*
D11*
X222650000Y-35255534D03*
%TD*%
D12*
%TO.C,J26*%
X65175000Y-65255534D03*
D13*
X65175000Y-76655534D03*
X65175000Y-68355534D03*
%TD*%
D10*
%TO.C,J4*%
X95000000Y-36855534D03*
X105300000Y-36855534D03*
D11*
X100150000Y-35255534D03*
%TD*%
D10*
%TO.C,J12*%
X235000000Y-36855534D03*
X245300000Y-36855534D03*
D11*
X240150000Y-35255534D03*
%TD*%
D12*
%TO.C,J36*%
X240175000Y-65255534D03*
D13*
X240175000Y-76655534D03*
X240175000Y-68355534D03*
%TD*%
D10*
%TO.C,J1*%
X42350000Y-36855534D03*
X52650000Y-36855534D03*
D11*
X47500000Y-35255534D03*
%TD*%
D12*
%TO.C,J45*%
X187675000Y-85511068D03*
D13*
X187675000Y-96911068D03*
X187675000Y-88611068D03*
%TD*%
D10*
%TO.C,J10*%
X200000000Y-36855534D03*
X210300000Y-36855534D03*
D11*
X205150000Y-35255534D03*
%TD*%
D12*
%TO.C,J33*%
X187675000Y-65255534D03*
D13*
X187675000Y-76655534D03*
X187675000Y-68355534D03*
%TD*%
D10*
%TO.C,J17*%
X112500000Y-54291068D03*
X122800000Y-54291068D03*
D11*
X117650000Y-52691068D03*
%TD*%
D10*
%TO.C,J6*%
X130000000Y-36855534D03*
X140300000Y-36855534D03*
D11*
X135150000Y-35255534D03*
%TD*%
D10*
%TO.C,J20*%
X165000000Y-54291068D03*
X175300000Y-54291068D03*
D11*
X170150000Y-52691068D03*
%TD*%
D10*
%TO.C,J16*%
X95000000Y-54291068D03*
X105300000Y-54291068D03*
D11*
X100150000Y-52691068D03*
%TD*%
D14*
%TO.C,REF\u002A\u002A*%
X250100000Y-126700000D03*
%TD*%
D10*
%TO.C,J18*%
X130000000Y-54291068D03*
X140300000Y-54291068D03*
D11*
X135150000Y-52691068D03*
%TD*%
D14*
%TO.C,REF\u002A\u002A*%
X250100000Y-19400000D03*
%TD*%
D12*
%TO.C,J41*%
X117675000Y-85511068D03*
D13*
X117675000Y-96911068D03*
X117675000Y-88611068D03*
%TD*%
D12*
%TO.C,J29*%
X117675000Y-65255534D03*
D13*
X117675000Y-76655534D03*
X117675000Y-68355534D03*
%TD*%
D12*
%TO.C,J46*%
X205175000Y-85511068D03*
D13*
X205175000Y-96911068D03*
X205175000Y-88611068D03*
%TD*%
D12*
%TO.C,J34*%
X205175000Y-65255534D03*
D13*
X205175000Y-76655534D03*
X205175000Y-68355534D03*
%TD*%
D12*
%TO.C,J47*%
X222675000Y-85511068D03*
D13*
X222675000Y-96911068D03*
X222675000Y-88611068D03*
%TD*%
D12*
%TO.C,J43*%
X152675000Y-85511068D03*
D13*
X152675000Y-96911068D03*
X152675000Y-88611068D03*
%TD*%
D10*
%TO.C,J2*%
X60000000Y-36855534D03*
X70300000Y-36855534D03*
D11*
X65150000Y-35255534D03*
%TD*%
D12*
%TO.C,J35*%
X222675000Y-65255534D03*
D13*
X222675000Y-76655534D03*
X222675000Y-68355534D03*
%TD*%
D12*
%TO.C,J28*%
X100175000Y-65255534D03*
D13*
X100175000Y-76655534D03*
X100175000Y-68355534D03*
%TD*%
D12*
%TO.C,J37*%
X47525000Y-85511068D03*
D13*
X47525000Y-96911068D03*
X47525000Y-88611068D03*
%TD*%
D12*
%TO.C,J48*%
X240175000Y-85511068D03*
D13*
X240175000Y-96911068D03*
X240175000Y-88611068D03*
%TD*%
D10*
%TO.C,J22*%
X200000000Y-54291068D03*
X210300000Y-54291068D03*
D11*
X205150000Y-52691068D03*
%TD*%
D12*
%TO.C,J40*%
X100175000Y-85511068D03*
D13*
X100175000Y-96911068D03*
X100175000Y-88611068D03*
%TD*%
D10*
%TO.C,J21*%
X182500000Y-54291068D03*
X192800000Y-54291068D03*
D11*
X187650000Y-52691068D03*
%TD*%
D12*
%TO.C,J42*%
X135175000Y-85511068D03*
D13*
X135175000Y-96911068D03*
X135175000Y-88611068D03*
%TD*%
D12*
%TO.C,J39*%
X82525000Y-85511068D03*
D13*
X82525000Y-96911068D03*
X82525000Y-88611068D03*
%TD*%
D12*
%TO.C,J25*%
X47525000Y-65255534D03*
D13*
X47525000Y-76655534D03*
X47525000Y-68355534D03*
%TD*%
D12*
%TO.C,J32*%
X170175000Y-65255534D03*
D13*
X170175000Y-76655534D03*
X170175000Y-68355534D03*
%TD*%
D10*
%TO.C,J19*%
X147500000Y-54291068D03*
X157800000Y-54291068D03*
D11*
X152650000Y-52691068D03*
%TD*%
D10*
%TO.C,J23*%
X217500000Y-54291068D03*
X227800000Y-54291068D03*
D11*
X222650000Y-52691068D03*
%TD*%
D10*
%TO.C,J14*%
X60000000Y-54291068D03*
X70300000Y-54291068D03*
D11*
X65150000Y-52691068D03*
%TD*%
D14*
%TO.C,REF\u002A\u002A*%
X37400000Y-19400000D03*
%TD*%
D10*
%TO.C,J5*%
X112500000Y-36855534D03*
X122800000Y-36855534D03*
D11*
X117650000Y-35255534D03*
%TD*%
D12*
%TO.C,J30*%
X135175000Y-65255534D03*
D13*
X135175000Y-76655534D03*
X135175000Y-68355534D03*
%TD*%
D14*
%TO.C,REF\u002A\u002A*%
X37400000Y-126700000D03*
%TD*%
D10*
%TO.C,J24*%
X235000000Y-54291068D03*
X245300000Y-54291068D03*
D11*
X240150000Y-52691068D03*
%TD*%
D10*
%TO.C,J9*%
X182500000Y-36855534D03*
X192800000Y-36855534D03*
D11*
X187650000Y-35255534D03*
%TD*%
D10*
%TO.C,J7*%
X147500000Y-36855534D03*
X157800000Y-36855534D03*
D11*
X152650000Y-35255534D03*
%TD*%
D10*
%TO.C,J3*%
X77350000Y-36855534D03*
X87650000Y-36855534D03*
D11*
X82500000Y-35255534D03*
%TD*%
D10*
%TO.C,J15*%
X77350000Y-54291068D03*
X87650000Y-54291068D03*
D11*
X82500000Y-52691068D03*
%TD*%
D12*
%TO.C,J27*%
X82525000Y-65255534D03*
D13*
X82525000Y-76655534D03*
X82525000Y-68355534D03*
%TD*%
D12*
%TO.C,J31*%
X152675000Y-65255534D03*
D13*
X152675000Y-76655534D03*
X152675000Y-68355534D03*
%TD*%
D10*
%TO.C,J8*%
X165000000Y-36855534D03*
X175300000Y-36855534D03*
D11*
X170150000Y-35255534D03*
%TD*%
M02*
