%TF.GenerationSoftware,KiCad,Pcbnew,7.0.1-0*%
%TF.CreationDate,2023-05-06T12:03:47+02:00*%
%TF.ProjectId,video_patch_bay,76696465-6f5f-4706-9174-63685f626179,rev?*%
%TF.SameCoordinates,Original*%
%TF.FileFunction,Legend,Top*%
%TF.FilePolarity,Positive*%
%FSLAX46Y46*%
G04 Gerber Fmt 4.6, Leading zero omitted, Abs format (unit mm)*
G04 Created by KiCad (PCBNEW 7.0.1-0) date 2023-05-06 12:03:47*
%MOMM*%
%LPD*%
G01*
G04 APERTURE LIST*
%ADD10C,0.150000*%
%ADD11C,0.127000*%
%ADD12C,0.120000*%
G04 APERTURE END LIST*
D10*
X41964466Y-106035534D02*
X247500000Y-106035534D01*
X247500000Y-123535534D01*
X41964466Y-123535534D01*
X41964466Y-106035534D01*
G36*
X41964466Y-106035534D02*
G01*
X247500000Y-106035534D01*
X247500000Y-123535534D01*
X41964466Y-123535534D01*
X41964466Y-106035534D01*
G37*
%TO.C,J13*%
X44481187Y-47509046D02*
X44481187Y-48224350D01*
X44481187Y-48224350D02*
X44433501Y-48367411D01*
X44433501Y-48367411D02*
X44338127Y-48462785D01*
X44338127Y-48462785D02*
X44195066Y-48510471D01*
X44195066Y-48510471D02*
X44099692Y-48510471D01*
X45482612Y-48510471D02*
X44910369Y-48510471D01*
X45196491Y-48510471D02*
X45196491Y-47509046D01*
X45196491Y-47509046D02*
X45101117Y-47652107D01*
X45101117Y-47652107D02*
X45005743Y-47747481D01*
X45005743Y-47747481D02*
X44910369Y-47795168D01*
X45816420Y-47509046D02*
X46436350Y-47509046D01*
X46436350Y-47509046D02*
X46102542Y-47890542D01*
X46102542Y-47890542D02*
X46245602Y-47890542D01*
X46245602Y-47890542D02*
X46340976Y-47938229D01*
X46340976Y-47938229D02*
X46388663Y-47985915D01*
X46388663Y-47985915D02*
X46436350Y-48081289D01*
X46436350Y-48081289D02*
X46436350Y-48319724D01*
X46436350Y-48319724D02*
X46388663Y-48415098D01*
X46388663Y-48415098D02*
X46340976Y-48462785D01*
X46340976Y-48462785D02*
X46245602Y-48510471D01*
X46245602Y-48510471D02*
X45959481Y-48510471D01*
X45959481Y-48510471D02*
X45864107Y-48462785D01*
X45864107Y-48462785D02*
X45816420Y-48415098D01*
%TO.C,J44*%
X165335476Y-86053687D02*
X165335476Y-86767972D01*
X165335476Y-86767972D02*
X165287857Y-86910829D01*
X165287857Y-86910829D02*
X165192619Y-87006068D01*
X165192619Y-87006068D02*
X165049762Y-87053687D01*
X165049762Y-87053687D02*
X164954524Y-87053687D01*
X166240238Y-86387020D02*
X166240238Y-87053687D01*
X166002143Y-86006068D02*
X165764048Y-86720353D01*
X165764048Y-86720353D02*
X166383095Y-86720353D01*
X167192619Y-86387020D02*
X167192619Y-87053687D01*
X166954524Y-86006068D02*
X166716429Y-86720353D01*
X166716429Y-86720353D02*
X167335476Y-86720353D01*
%TO.C,J38*%
X60335476Y-86053687D02*
X60335476Y-86767972D01*
X60335476Y-86767972D02*
X60287857Y-86910829D01*
X60287857Y-86910829D02*
X60192619Y-87006068D01*
X60192619Y-87006068D02*
X60049762Y-87053687D01*
X60049762Y-87053687D02*
X59954524Y-87053687D01*
X60716429Y-86053687D02*
X61335476Y-86053687D01*
X61335476Y-86053687D02*
X61002143Y-86434639D01*
X61002143Y-86434639D02*
X61145000Y-86434639D01*
X61145000Y-86434639D02*
X61240238Y-86482258D01*
X61240238Y-86482258D02*
X61287857Y-86529877D01*
X61287857Y-86529877D02*
X61335476Y-86625115D01*
X61335476Y-86625115D02*
X61335476Y-86863210D01*
X61335476Y-86863210D02*
X61287857Y-86958448D01*
X61287857Y-86958448D02*
X61240238Y-87006068D01*
X61240238Y-87006068D02*
X61145000Y-87053687D01*
X61145000Y-87053687D02*
X60859286Y-87053687D01*
X60859286Y-87053687D02*
X60764048Y-87006068D01*
X60764048Y-87006068D02*
X60716429Y-86958448D01*
X61906905Y-86482258D02*
X61811667Y-86434639D01*
X61811667Y-86434639D02*
X61764048Y-86387020D01*
X61764048Y-86387020D02*
X61716429Y-86291782D01*
X61716429Y-86291782D02*
X61716429Y-86244163D01*
X61716429Y-86244163D02*
X61764048Y-86148925D01*
X61764048Y-86148925D02*
X61811667Y-86101306D01*
X61811667Y-86101306D02*
X61906905Y-86053687D01*
X61906905Y-86053687D02*
X62097381Y-86053687D01*
X62097381Y-86053687D02*
X62192619Y-86101306D01*
X62192619Y-86101306D02*
X62240238Y-86148925D01*
X62240238Y-86148925D02*
X62287857Y-86244163D01*
X62287857Y-86244163D02*
X62287857Y-86291782D01*
X62287857Y-86291782D02*
X62240238Y-86387020D01*
X62240238Y-86387020D02*
X62192619Y-86434639D01*
X62192619Y-86434639D02*
X62097381Y-86482258D01*
X62097381Y-86482258D02*
X61906905Y-86482258D01*
X61906905Y-86482258D02*
X61811667Y-86529877D01*
X61811667Y-86529877D02*
X61764048Y-86577496D01*
X61764048Y-86577496D02*
X61716429Y-86672734D01*
X61716429Y-86672734D02*
X61716429Y-86863210D01*
X61716429Y-86863210D02*
X61764048Y-86958448D01*
X61764048Y-86958448D02*
X61811667Y-87006068D01*
X61811667Y-87006068D02*
X61906905Y-87053687D01*
X61906905Y-87053687D02*
X62097381Y-87053687D01*
X62097381Y-87053687D02*
X62192619Y-87006068D01*
X62192619Y-87006068D02*
X62240238Y-86958448D01*
X62240238Y-86958448D02*
X62287857Y-86863210D01*
X62287857Y-86863210D02*
X62287857Y-86672734D01*
X62287857Y-86672734D02*
X62240238Y-86577496D01*
X62240238Y-86577496D02*
X62192619Y-86529877D01*
X62192619Y-86529877D02*
X62097381Y-86482258D01*
%TO.C,J11*%
X219631187Y-30073512D02*
X219631187Y-30788816D01*
X219631187Y-30788816D02*
X219583501Y-30931877D01*
X219583501Y-30931877D02*
X219488127Y-31027251D01*
X219488127Y-31027251D02*
X219345066Y-31074937D01*
X219345066Y-31074937D02*
X219249692Y-31074937D01*
X220632612Y-31074937D02*
X220060369Y-31074937D01*
X220346491Y-31074937D02*
X220346491Y-30073512D01*
X220346491Y-30073512D02*
X220251117Y-30216573D01*
X220251117Y-30216573D02*
X220155743Y-30311947D01*
X220155743Y-30311947D02*
X220060369Y-30359634D01*
X221586350Y-31074937D02*
X221014107Y-31074937D01*
X221300229Y-31074937D02*
X221300229Y-30073512D01*
X221300229Y-30073512D02*
X221204855Y-30216573D01*
X221204855Y-30216573D02*
X221109481Y-30311947D01*
X221109481Y-30311947D02*
X221014107Y-30359634D01*
%TO.C,J26*%
X60335476Y-65798153D02*
X60335476Y-66512438D01*
X60335476Y-66512438D02*
X60287857Y-66655295D01*
X60287857Y-66655295D02*
X60192619Y-66750534D01*
X60192619Y-66750534D02*
X60049762Y-66798153D01*
X60049762Y-66798153D02*
X59954524Y-66798153D01*
X60764048Y-65893391D02*
X60811667Y-65845772D01*
X60811667Y-65845772D02*
X60906905Y-65798153D01*
X60906905Y-65798153D02*
X61145000Y-65798153D01*
X61145000Y-65798153D02*
X61240238Y-65845772D01*
X61240238Y-65845772D02*
X61287857Y-65893391D01*
X61287857Y-65893391D02*
X61335476Y-65988629D01*
X61335476Y-65988629D02*
X61335476Y-66083867D01*
X61335476Y-66083867D02*
X61287857Y-66226724D01*
X61287857Y-66226724D02*
X60716429Y-66798153D01*
X60716429Y-66798153D02*
X61335476Y-66798153D01*
X62192619Y-65798153D02*
X62002143Y-65798153D01*
X62002143Y-65798153D02*
X61906905Y-65845772D01*
X61906905Y-65845772D02*
X61859286Y-65893391D01*
X61859286Y-65893391D02*
X61764048Y-66036248D01*
X61764048Y-66036248D02*
X61716429Y-66226724D01*
X61716429Y-66226724D02*
X61716429Y-66607676D01*
X61716429Y-66607676D02*
X61764048Y-66702914D01*
X61764048Y-66702914D02*
X61811667Y-66750534D01*
X61811667Y-66750534D02*
X61906905Y-66798153D01*
X61906905Y-66798153D02*
X62097381Y-66798153D01*
X62097381Y-66798153D02*
X62192619Y-66750534D01*
X62192619Y-66750534D02*
X62240238Y-66702914D01*
X62240238Y-66702914D02*
X62287857Y-66607676D01*
X62287857Y-66607676D02*
X62287857Y-66369581D01*
X62287857Y-66369581D02*
X62240238Y-66274343D01*
X62240238Y-66274343D02*
X62192619Y-66226724D01*
X62192619Y-66226724D02*
X62097381Y-66179105D01*
X62097381Y-66179105D02*
X61906905Y-66179105D01*
X61906905Y-66179105D02*
X61811667Y-66226724D01*
X61811667Y-66226724D02*
X61764048Y-66274343D01*
X61764048Y-66274343D02*
X61716429Y-66369581D01*
%TO.C,J4*%
X97608056Y-30073512D02*
X97608056Y-30788816D01*
X97608056Y-30788816D02*
X97560370Y-30931877D01*
X97560370Y-30931877D02*
X97464996Y-31027251D01*
X97464996Y-31027251D02*
X97321935Y-31074937D01*
X97321935Y-31074937D02*
X97226561Y-31074937D01*
X98514107Y-30407321D02*
X98514107Y-31074937D01*
X98275673Y-30025826D02*
X98037238Y-30741129D01*
X98037238Y-30741129D02*
X98657168Y-30741129D01*
%TO.C,J12*%
X237131187Y-30073512D02*
X237131187Y-30788816D01*
X237131187Y-30788816D02*
X237083501Y-30931877D01*
X237083501Y-30931877D02*
X236988127Y-31027251D01*
X236988127Y-31027251D02*
X236845066Y-31074937D01*
X236845066Y-31074937D02*
X236749692Y-31074937D01*
X238132612Y-31074937D02*
X237560369Y-31074937D01*
X237846491Y-31074937D02*
X237846491Y-30073512D01*
X237846491Y-30073512D02*
X237751117Y-30216573D01*
X237751117Y-30216573D02*
X237655743Y-30311947D01*
X237655743Y-30311947D02*
X237560369Y-30359634D01*
X238514107Y-30168886D02*
X238561794Y-30121199D01*
X238561794Y-30121199D02*
X238657168Y-30073512D01*
X238657168Y-30073512D02*
X238895602Y-30073512D01*
X238895602Y-30073512D02*
X238990976Y-30121199D01*
X238990976Y-30121199D02*
X239038663Y-30168886D01*
X239038663Y-30168886D02*
X239086350Y-30264260D01*
X239086350Y-30264260D02*
X239086350Y-30359634D01*
X239086350Y-30359634D02*
X239038663Y-30502695D01*
X239038663Y-30502695D02*
X238466420Y-31074937D01*
X238466420Y-31074937D02*
X239086350Y-31074937D01*
%TO.C,J36*%
X235335476Y-65798153D02*
X235335476Y-66512438D01*
X235335476Y-66512438D02*
X235287857Y-66655295D01*
X235287857Y-66655295D02*
X235192619Y-66750534D01*
X235192619Y-66750534D02*
X235049762Y-66798153D01*
X235049762Y-66798153D02*
X234954524Y-66798153D01*
X235716429Y-65798153D02*
X236335476Y-65798153D01*
X236335476Y-65798153D02*
X236002143Y-66179105D01*
X236002143Y-66179105D02*
X236145000Y-66179105D01*
X236145000Y-66179105D02*
X236240238Y-66226724D01*
X236240238Y-66226724D02*
X236287857Y-66274343D01*
X236287857Y-66274343D02*
X236335476Y-66369581D01*
X236335476Y-66369581D02*
X236335476Y-66607676D01*
X236335476Y-66607676D02*
X236287857Y-66702914D01*
X236287857Y-66702914D02*
X236240238Y-66750534D01*
X236240238Y-66750534D02*
X236145000Y-66798153D01*
X236145000Y-66798153D02*
X235859286Y-66798153D01*
X235859286Y-66798153D02*
X235764048Y-66750534D01*
X235764048Y-66750534D02*
X235716429Y-66702914D01*
X237192619Y-65798153D02*
X237002143Y-65798153D01*
X237002143Y-65798153D02*
X236906905Y-65845772D01*
X236906905Y-65845772D02*
X236859286Y-65893391D01*
X236859286Y-65893391D02*
X236764048Y-66036248D01*
X236764048Y-66036248D02*
X236716429Y-66226724D01*
X236716429Y-66226724D02*
X236716429Y-66607676D01*
X236716429Y-66607676D02*
X236764048Y-66702914D01*
X236764048Y-66702914D02*
X236811667Y-66750534D01*
X236811667Y-66750534D02*
X236906905Y-66798153D01*
X236906905Y-66798153D02*
X237097381Y-66798153D01*
X237097381Y-66798153D02*
X237192619Y-66750534D01*
X237192619Y-66750534D02*
X237240238Y-66702914D01*
X237240238Y-66702914D02*
X237287857Y-66607676D01*
X237287857Y-66607676D02*
X237287857Y-66369581D01*
X237287857Y-66369581D02*
X237240238Y-66274343D01*
X237240238Y-66274343D02*
X237192619Y-66226724D01*
X237192619Y-66226724D02*
X237097381Y-66179105D01*
X237097381Y-66179105D02*
X236906905Y-66179105D01*
X236906905Y-66179105D02*
X236811667Y-66226724D01*
X236811667Y-66226724D02*
X236764048Y-66274343D01*
X236764048Y-66274343D02*
X236716429Y-66369581D01*
%TO.C,J1*%
X44958056Y-30073512D02*
X44958056Y-30788816D01*
X44958056Y-30788816D02*
X44910370Y-30931877D01*
X44910370Y-30931877D02*
X44814996Y-31027251D01*
X44814996Y-31027251D02*
X44671935Y-31074937D01*
X44671935Y-31074937D02*
X44576561Y-31074937D01*
X45959481Y-31074937D02*
X45387238Y-31074937D01*
X45673360Y-31074937D02*
X45673360Y-30073512D01*
X45673360Y-30073512D02*
X45577986Y-30216573D01*
X45577986Y-30216573D02*
X45482612Y-30311947D01*
X45482612Y-30311947D02*
X45387238Y-30359634D01*
%TO.C,J45*%
X182835476Y-86053687D02*
X182835476Y-86767972D01*
X182835476Y-86767972D02*
X182787857Y-86910829D01*
X182787857Y-86910829D02*
X182692619Y-87006068D01*
X182692619Y-87006068D02*
X182549762Y-87053687D01*
X182549762Y-87053687D02*
X182454524Y-87053687D01*
X183740238Y-86387020D02*
X183740238Y-87053687D01*
X183502143Y-86006068D02*
X183264048Y-86720353D01*
X183264048Y-86720353D02*
X183883095Y-86720353D01*
X184740238Y-86053687D02*
X184264048Y-86053687D01*
X184264048Y-86053687D02*
X184216429Y-86529877D01*
X184216429Y-86529877D02*
X184264048Y-86482258D01*
X184264048Y-86482258D02*
X184359286Y-86434639D01*
X184359286Y-86434639D02*
X184597381Y-86434639D01*
X184597381Y-86434639D02*
X184692619Y-86482258D01*
X184692619Y-86482258D02*
X184740238Y-86529877D01*
X184740238Y-86529877D02*
X184787857Y-86625115D01*
X184787857Y-86625115D02*
X184787857Y-86863210D01*
X184787857Y-86863210D02*
X184740238Y-86958448D01*
X184740238Y-86958448D02*
X184692619Y-87006068D01*
X184692619Y-87006068D02*
X184597381Y-87053687D01*
X184597381Y-87053687D02*
X184359286Y-87053687D01*
X184359286Y-87053687D02*
X184264048Y-87006068D01*
X184264048Y-87006068D02*
X184216429Y-86958448D01*
%TO.C,J10*%
X202131187Y-30073512D02*
X202131187Y-30788816D01*
X202131187Y-30788816D02*
X202083501Y-30931877D01*
X202083501Y-30931877D02*
X201988127Y-31027251D01*
X201988127Y-31027251D02*
X201845066Y-31074937D01*
X201845066Y-31074937D02*
X201749692Y-31074937D01*
X203132612Y-31074937D02*
X202560369Y-31074937D01*
X202846491Y-31074937D02*
X202846491Y-30073512D01*
X202846491Y-30073512D02*
X202751117Y-30216573D01*
X202751117Y-30216573D02*
X202655743Y-30311947D01*
X202655743Y-30311947D02*
X202560369Y-30359634D01*
X203752542Y-30073512D02*
X203847915Y-30073512D01*
X203847915Y-30073512D02*
X203943289Y-30121199D01*
X203943289Y-30121199D02*
X203990976Y-30168886D01*
X203990976Y-30168886D02*
X204038663Y-30264260D01*
X204038663Y-30264260D02*
X204086350Y-30455008D01*
X204086350Y-30455008D02*
X204086350Y-30693442D01*
X204086350Y-30693442D02*
X204038663Y-30884190D01*
X204038663Y-30884190D02*
X203990976Y-30979564D01*
X203990976Y-30979564D02*
X203943289Y-31027251D01*
X203943289Y-31027251D02*
X203847915Y-31074937D01*
X203847915Y-31074937D02*
X203752542Y-31074937D01*
X203752542Y-31074937D02*
X203657168Y-31027251D01*
X203657168Y-31027251D02*
X203609481Y-30979564D01*
X203609481Y-30979564D02*
X203561794Y-30884190D01*
X203561794Y-30884190D02*
X203514107Y-30693442D01*
X203514107Y-30693442D02*
X203514107Y-30455008D01*
X203514107Y-30455008D02*
X203561794Y-30264260D01*
X203561794Y-30264260D02*
X203609481Y-30168886D01*
X203609481Y-30168886D02*
X203657168Y-30121199D01*
X203657168Y-30121199D02*
X203752542Y-30073512D01*
%TO.C,J33*%
X182835476Y-65798153D02*
X182835476Y-66512438D01*
X182835476Y-66512438D02*
X182787857Y-66655295D01*
X182787857Y-66655295D02*
X182692619Y-66750534D01*
X182692619Y-66750534D02*
X182549762Y-66798153D01*
X182549762Y-66798153D02*
X182454524Y-66798153D01*
X183216429Y-65798153D02*
X183835476Y-65798153D01*
X183835476Y-65798153D02*
X183502143Y-66179105D01*
X183502143Y-66179105D02*
X183645000Y-66179105D01*
X183645000Y-66179105D02*
X183740238Y-66226724D01*
X183740238Y-66226724D02*
X183787857Y-66274343D01*
X183787857Y-66274343D02*
X183835476Y-66369581D01*
X183835476Y-66369581D02*
X183835476Y-66607676D01*
X183835476Y-66607676D02*
X183787857Y-66702914D01*
X183787857Y-66702914D02*
X183740238Y-66750534D01*
X183740238Y-66750534D02*
X183645000Y-66798153D01*
X183645000Y-66798153D02*
X183359286Y-66798153D01*
X183359286Y-66798153D02*
X183264048Y-66750534D01*
X183264048Y-66750534D02*
X183216429Y-66702914D01*
X184168810Y-65798153D02*
X184787857Y-65798153D01*
X184787857Y-65798153D02*
X184454524Y-66179105D01*
X184454524Y-66179105D02*
X184597381Y-66179105D01*
X184597381Y-66179105D02*
X184692619Y-66226724D01*
X184692619Y-66226724D02*
X184740238Y-66274343D01*
X184740238Y-66274343D02*
X184787857Y-66369581D01*
X184787857Y-66369581D02*
X184787857Y-66607676D01*
X184787857Y-66607676D02*
X184740238Y-66702914D01*
X184740238Y-66702914D02*
X184692619Y-66750534D01*
X184692619Y-66750534D02*
X184597381Y-66798153D01*
X184597381Y-66798153D02*
X184311667Y-66798153D01*
X184311667Y-66798153D02*
X184216429Y-66750534D01*
X184216429Y-66750534D02*
X184168810Y-66702914D01*
%TO.C,J17*%
X114631187Y-47509046D02*
X114631187Y-48224350D01*
X114631187Y-48224350D02*
X114583501Y-48367411D01*
X114583501Y-48367411D02*
X114488127Y-48462785D01*
X114488127Y-48462785D02*
X114345066Y-48510471D01*
X114345066Y-48510471D02*
X114249692Y-48510471D01*
X115632612Y-48510471D02*
X115060369Y-48510471D01*
X115346491Y-48510471D02*
X115346491Y-47509046D01*
X115346491Y-47509046D02*
X115251117Y-47652107D01*
X115251117Y-47652107D02*
X115155743Y-47747481D01*
X115155743Y-47747481D02*
X115060369Y-47795168D01*
X115966420Y-47509046D02*
X116634037Y-47509046D01*
X116634037Y-47509046D02*
X116204855Y-48510471D01*
%TO.C,J6*%
X132608056Y-30073512D02*
X132608056Y-30788816D01*
X132608056Y-30788816D02*
X132560370Y-30931877D01*
X132560370Y-30931877D02*
X132464996Y-31027251D01*
X132464996Y-31027251D02*
X132321935Y-31074937D01*
X132321935Y-31074937D02*
X132226561Y-31074937D01*
X133514107Y-30073512D02*
X133323360Y-30073512D01*
X133323360Y-30073512D02*
X133227986Y-30121199D01*
X133227986Y-30121199D02*
X133180299Y-30168886D01*
X133180299Y-30168886D02*
X133084925Y-30311947D01*
X133084925Y-30311947D02*
X133037238Y-30502695D01*
X133037238Y-30502695D02*
X133037238Y-30884190D01*
X133037238Y-30884190D02*
X133084925Y-30979564D01*
X133084925Y-30979564D02*
X133132612Y-31027251D01*
X133132612Y-31027251D02*
X133227986Y-31074937D01*
X133227986Y-31074937D02*
X133418733Y-31074937D01*
X133418733Y-31074937D02*
X133514107Y-31027251D01*
X133514107Y-31027251D02*
X133561794Y-30979564D01*
X133561794Y-30979564D02*
X133609481Y-30884190D01*
X133609481Y-30884190D02*
X133609481Y-30645755D01*
X133609481Y-30645755D02*
X133561794Y-30550381D01*
X133561794Y-30550381D02*
X133514107Y-30502695D01*
X133514107Y-30502695D02*
X133418733Y-30455008D01*
X133418733Y-30455008D02*
X133227986Y-30455008D01*
X133227986Y-30455008D02*
X133132612Y-30502695D01*
X133132612Y-30502695D02*
X133084925Y-30550381D01*
X133084925Y-30550381D02*
X133037238Y-30645755D01*
%TO.C,J20*%
X167131187Y-47509046D02*
X167131187Y-48224350D01*
X167131187Y-48224350D02*
X167083501Y-48367411D01*
X167083501Y-48367411D02*
X166988127Y-48462785D01*
X166988127Y-48462785D02*
X166845066Y-48510471D01*
X166845066Y-48510471D02*
X166749692Y-48510471D01*
X167560369Y-47604420D02*
X167608056Y-47556733D01*
X167608056Y-47556733D02*
X167703430Y-47509046D01*
X167703430Y-47509046D02*
X167941864Y-47509046D01*
X167941864Y-47509046D02*
X168037238Y-47556733D01*
X168037238Y-47556733D02*
X168084925Y-47604420D01*
X168084925Y-47604420D02*
X168132612Y-47699794D01*
X168132612Y-47699794D02*
X168132612Y-47795168D01*
X168132612Y-47795168D02*
X168084925Y-47938229D01*
X168084925Y-47938229D02*
X167512682Y-48510471D01*
X167512682Y-48510471D02*
X168132612Y-48510471D01*
X168752542Y-47509046D02*
X168847915Y-47509046D01*
X168847915Y-47509046D02*
X168943289Y-47556733D01*
X168943289Y-47556733D02*
X168990976Y-47604420D01*
X168990976Y-47604420D02*
X169038663Y-47699794D01*
X169038663Y-47699794D02*
X169086350Y-47890542D01*
X169086350Y-47890542D02*
X169086350Y-48128976D01*
X169086350Y-48128976D02*
X169038663Y-48319724D01*
X169038663Y-48319724D02*
X168990976Y-48415098D01*
X168990976Y-48415098D02*
X168943289Y-48462785D01*
X168943289Y-48462785D02*
X168847915Y-48510471D01*
X168847915Y-48510471D02*
X168752542Y-48510471D01*
X168752542Y-48510471D02*
X168657168Y-48462785D01*
X168657168Y-48462785D02*
X168609481Y-48415098D01*
X168609481Y-48415098D02*
X168561794Y-48319724D01*
X168561794Y-48319724D02*
X168514107Y-48128976D01*
X168514107Y-48128976D02*
X168514107Y-47890542D01*
X168514107Y-47890542D02*
X168561794Y-47699794D01*
X168561794Y-47699794D02*
X168609481Y-47604420D01*
X168609481Y-47604420D02*
X168657168Y-47556733D01*
X168657168Y-47556733D02*
X168752542Y-47509046D01*
%TO.C,J16*%
X97131187Y-47509046D02*
X97131187Y-48224350D01*
X97131187Y-48224350D02*
X97083501Y-48367411D01*
X97083501Y-48367411D02*
X96988127Y-48462785D01*
X96988127Y-48462785D02*
X96845066Y-48510471D01*
X96845066Y-48510471D02*
X96749692Y-48510471D01*
X98132612Y-48510471D02*
X97560369Y-48510471D01*
X97846491Y-48510471D02*
X97846491Y-47509046D01*
X97846491Y-47509046D02*
X97751117Y-47652107D01*
X97751117Y-47652107D02*
X97655743Y-47747481D01*
X97655743Y-47747481D02*
X97560369Y-47795168D01*
X98990976Y-47509046D02*
X98800229Y-47509046D01*
X98800229Y-47509046D02*
X98704855Y-47556733D01*
X98704855Y-47556733D02*
X98657168Y-47604420D01*
X98657168Y-47604420D02*
X98561794Y-47747481D01*
X98561794Y-47747481D02*
X98514107Y-47938229D01*
X98514107Y-47938229D02*
X98514107Y-48319724D01*
X98514107Y-48319724D02*
X98561794Y-48415098D01*
X98561794Y-48415098D02*
X98609481Y-48462785D01*
X98609481Y-48462785D02*
X98704855Y-48510471D01*
X98704855Y-48510471D02*
X98895602Y-48510471D01*
X98895602Y-48510471D02*
X98990976Y-48462785D01*
X98990976Y-48462785D02*
X99038663Y-48415098D01*
X99038663Y-48415098D02*
X99086350Y-48319724D01*
X99086350Y-48319724D02*
X99086350Y-48081289D01*
X99086350Y-48081289D02*
X99038663Y-47985915D01*
X99038663Y-47985915D02*
X98990976Y-47938229D01*
X98990976Y-47938229D02*
X98895602Y-47890542D01*
X98895602Y-47890542D02*
X98704855Y-47890542D01*
X98704855Y-47890542D02*
X98609481Y-47938229D01*
X98609481Y-47938229D02*
X98561794Y-47985915D01*
X98561794Y-47985915D02*
X98514107Y-48081289D01*
%TO.C,J18*%
X132131187Y-47509046D02*
X132131187Y-48224350D01*
X132131187Y-48224350D02*
X132083501Y-48367411D01*
X132083501Y-48367411D02*
X131988127Y-48462785D01*
X131988127Y-48462785D02*
X131845066Y-48510471D01*
X131845066Y-48510471D02*
X131749692Y-48510471D01*
X133132612Y-48510471D02*
X132560369Y-48510471D01*
X132846491Y-48510471D02*
X132846491Y-47509046D01*
X132846491Y-47509046D02*
X132751117Y-47652107D01*
X132751117Y-47652107D02*
X132655743Y-47747481D01*
X132655743Y-47747481D02*
X132560369Y-47795168D01*
X133704855Y-47938229D02*
X133609481Y-47890542D01*
X133609481Y-47890542D02*
X133561794Y-47842855D01*
X133561794Y-47842855D02*
X133514107Y-47747481D01*
X133514107Y-47747481D02*
X133514107Y-47699794D01*
X133514107Y-47699794D02*
X133561794Y-47604420D01*
X133561794Y-47604420D02*
X133609481Y-47556733D01*
X133609481Y-47556733D02*
X133704855Y-47509046D01*
X133704855Y-47509046D02*
X133895602Y-47509046D01*
X133895602Y-47509046D02*
X133990976Y-47556733D01*
X133990976Y-47556733D02*
X134038663Y-47604420D01*
X134038663Y-47604420D02*
X134086350Y-47699794D01*
X134086350Y-47699794D02*
X134086350Y-47747481D01*
X134086350Y-47747481D02*
X134038663Y-47842855D01*
X134038663Y-47842855D02*
X133990976Y-47890542D01*
X133990976Y-47890542D02*
X133895602Y-47938229D01*
X133895602Y-47938229D02*
X133704855Y-47938229D01*
X133704855Y-47938229D02*
X133609481Y-47985915D01*
X133609481Y-47985915D02*
X133561794Y-48033602D01*
X133561794Y-48033602D02*
X133514107Y-48128976D01*
X133514107Y-48128976D02*
X133514107Y-48319724D01*
X133514107Y-48319724D02*
X133561794Y-48415098D01*
X133561794Y-48415098D02*
X133609481Y-48462785D01*
X133609481Y-48462785D02*
X133704855Y-48510471D01*
X133704855Y-48510471D02*
X133895602Y-48510471D01*
X133895602Y-48510471D02*
X133990976Y-48462785D01*
X133990976Y-48462785D02*
X134038663Y-48415098D01*
X134038663Y-48415098D02*
X134086350Y-48319724D01*
X134086350Y-48319724D02*
X134086350Y-48128976D01*
X134086350Y-48128976D02*
X134038663Y-48033602D01*
X134038663Y-48033602D02*
X133990976Y-47985915D01*
X133990976Y-47985915D02*
X133895602Y-47938229D01*
%TO.C,J41*%
X112835476Y-86053687D02*
X112835476Y-86767972D01*
X112835476Y-86767972D02*
X112787857Y-86910829D01*
X112787857Y-86910829D02*
X112692619Y-87006068D01*
X112692619Y-87006068D02*
X112549762Y-87053687D01*
X112549762Y-87053687D02*
X112454524Y-87053687D01*
X113740238Y-86387020D02*
X113740238Y-87053687D01*
X113502143Y-86006068D02*
X113264048Y-86720353D01*
X113264048Y-86720353D02*
X113883095Y-86720353D01*
X114787857Y-87053687D02*
X114216429Y-87053687D01*
X114502143Y-87053687D02*
X114502143Y-86053687D01*
X114502143Y-86053687D02*
X114406905Y-86196544D01*
X114406905Y-86196544D02*
X114311667Y-86291782D01*
X114311667Y-86291782D02*
X114216429Y-86339401D01*
%TO.C,J29*%
X112835476Y-65798153D02*
X112835476Y-66512438D01*
X112835476Y-66512438D02*
X112787857Y-66655295D01*
X112787857Y-66655295D02*
X112692619Y-66750534D01*
X112692619Y-66750534D02*
X112549762Y-66798153D01*
X112549762Y-66798153D02*
X112454524Y-66798153D01*
X113264048Y-65893391D02*
X113311667Y-65845772D01*
X113311667Y-65845772D02*
X113406905Y-65798153D01*
X113406905Y-65798153D02*
X113645000Y-65798153D01*
X113645000Y-65798153D02*
X113740238Y-65845772D01*
X113740238Y-65845772D02*
X113787857Y-65893391D01*
X113787857Y-65893391D02*
X113835476Y-65988629D01*
X113835476Y-65988629D02*
X113835476Y-66083867D01*
X113835476Y-66083867D02*
X113787857Y-66226724D01*
X113787857Y-66226724D02*
X113216429Y-66798153D01*
X113216429Y-66798153D02*
X113835476Y-66798153D01*
X114311667Y-66798153D02*
X114502143Y-66798153D01*
X114502143Y-66798153D02*
X114597381Y-66750534D01*
X114597381Y-66750534D02*
X114645000Y-66702914D01*
X114645000Y-66702914D02*
X114740238Y-66560057D01*
X114740238Y-66560057D02*
X114787857Y-66369581D01*
X114787857Y-66369581D02*
X114787857Y-65988629D01*
X114787857Y-65988629D02*
X114740238Y-65893391D01*
X114740238Y-65893391D02*
X114692619Y-65845772D01*
X114692619Y-65845772D02*
X114597381Y-65798153D01*
X114597381Y-65798153D02*
X114406905Y-65798153D01*
X114406905Y-65798153D02*
X114311667Y-65845772D01*
X114311667Y-65845772D02*
X114264048Y-65893391D01*
X114264048Y-65893391D02*
X114216429Y-65988629D01*
X114216429Y-65988629D02*
X114216429Y-66226724D01*
X114216429Y-66226724D02*
X114264048Y-66321962D01*
X114264048Y-66321962D02*
X114311667Y-66369581D01*
X114311667Y-66369581D02*
X114406905Y-66417200D01*
X114406905Y-66417200D02*
X114597381Y-66417200D01*
X114597381Y-66417200D02*
X114692619Y-66369581D01*
X114692619Y-66369581D02*
X114740238Y-66321962D01*
X114740238Y-66321962D02*
X114787857Y-66226724D01*
%TO.C,J46*%
X200335476Y-86053687D02*
X200335476Y-86767972D01*
X200335476Y-86767972D02*
X200287857Y-86910829D01*
X200287857Y-86910829D02*
X200192619Y-87006068D01*
X200192619Y-87006068D02*
X200049762Y-87053687D01*
X200049762Y-87053687D02*
X199954524Y-87053687D01*
X201240238Y-86387020D02*
X201240238Y-87053687D01*
X201002143Y-86006068D02*
X200764048Y-86720353D01*
X200764048Y-86720353D02*
X201383095Y-86720353D01*
X202192619Y-86053687D02*
X202002143Y-86053687D01*
X202002143Y-86053687D02*
X201906905Y-86101306D01*
X201906905Y-86101306D02*
X201859286Y-86148925D01*
X201859286Y-86148925D02*
X201764048Y-86291782D01*
X201764048Y-86291782D02*
X201716429Y-86482258D01*
X201716429Y-86482258D02*
X201716429Y-86863210D01*
X201716429Y-86863210D02*
X201764048Y-86958448D01*
X201764048Y-86958448D02*
X201811667Y-87006068D01*
X201811667Y-87006068D02*
X201906905Y-87053687D01*
X201906905Y-87053687D02*
X202097381Y-87053687D01*
X202097381Y-87053687D02*
X202192619Y-87006068D01*
X202192619Y-87006068D02*
X202240238Y-86958448D01*
X202240238Y-86958448D02*
X202287857Y-86863210D01*
X202287857Y-86863210D02*
X202287857Y-86625115D01*
X202287857Y-86625115D02*
X202240238Y-86529877D01*
X202240238Y-86529877D02*
X202192619Y-86482258D01*
X202192619Y-86482258D02*
X202097381Y-86434639D01*
X202097381Y-86434639D02*
X201906905Y-86434639D01*
X201906905Y-86434639D02*
X201811667Y-86482258D01*
X201811667Y-86482258D02*
X201764048Y-86529877D01*
X201764048Y-86529877D02*
X201716429Y-86625115D01*
%TO.C,J34*%
X200335476Y-65798153D02*
X200335476Y-66512438D01*
X200335476Y-66512438D02*
X200287857Y-66655295D01*
X200287857Y-66655295D02*
X200192619Y-66750534D01*
X200192619Y-66750534D02*
X200049762Y-66798153D01*
X200049762Y-66798153D02*
X199954524Y-66798153D01*
X200716429Y-65798153D02*
X201335476Y-65798153D01*
X201335476Y-65798153D02*
X201002143Y-66179105D01*
X201002143Y-66179105D02*
X201145000Y-66179105D01*
X201145000Y-66179105D02*
X201240238Y-66226724D01*
X201240238Y-66226724D02*
X201287857Y-66274343D01*
X201287857Y-66274343D02*
X201335476Y-66369581D01*
X201335476Y-66369581D02*
X201335476Y-66607676D01*
X201335476Y-66607676D02*
X201287857Y-66702914D01*
X201287857Y-66702914D02*
X201240238Y-66750534D01*
X201240238Y-66750534D02*
X201145000Y-66798153D01*
X201145000Y-66798153D02*
X200859286Y-66798153D01*
X200859286Y-66798153D02*
X200764048Y-66750534D01*
X200764048Y-66750534D02*
X200716429Y-66702914D01*
X202192619Y-66131486D02*
X202192619Y-66798153D01*
X201954524Y-65750534D02*
X201716429Y-66464819D01*
X201716429Y-66464819D02*
X202335476Y-66464819D01*
%TO.C,J47*%
X217835476Y-86053687D02*
X217835476Y-86767972D01*
X217835476Y-86767972D02*
X217787857Y-86910829D01*
X217787857Y-86910829D02*
X217692619Y-87006068D01*
X217692619Y-87006068D02*
X217549762Y-87053687D01*
X217549762Y-87053687D02*
X217454524Y-87053687D01*
X218740238Y-86387020D02*
X218740238Y-87053687D01*
X218502143Y-86006068D02*
X218264048Y-86720353D01*
X218264048Y-86720353D02*
X218883095Y-86720353D01*
X219168810Y-86053687D02*
X219835476Y-86053687D01*
X219835476Y-86053687D02*
X219406905Y-87053687D01*
%TO.C,J43*%
X147835476Y-86053687D02*
X147835476Y-86767972D01*
X147835476Y-86767972D02*
X147787857Y-86910829D01*
X147787857Y-86910829D02*
X147692619Y-87006068D01*
X147692619Y-87006068D02*
X147549762Y-87053687D01*
X147549762Y-87053687D02*
X147454524Y-87053687D01*
X148740238Y-86387020D02*
X148740238Y-87053687D01*
X148502143Y-86006068D02*
X148264048Y-86720353D01*
X148264048Y-86720353D02*
X148883095Y-86720353D01*
X149168810Y-86053687D02*
X149787857Y-86053687D01*
X149787857Y-86053687D02*
X149454524Y-86434639D01*
X149454524Y-86434639D02*
X149597381Y-86434639D01*
X149597381Y-86434639D02*
X149692619Y-86482258D01*
X149692619Y-86482258D02*
X149740238Y-86529877D01*
X149740238Y-86529877D02*
X149787857Y-86625115D01*
X149787857Y-86625115D02*
X149787857Y-86863210D01*
X149787857Y-86863210D02*
X149740238Y-86958448D01*
X149740238Y-86958448D02*
X149692619Y-87006068D01*
X149692619Y-87006068D02*
X149597381Y-87053687D01*
X149597381Y-87053687D02*
X149311667Y-87053687D01*
X149311667Y-87053687D02*
X149216429Y-87006068D01*
X149216429Y-87006068D02*
X149168810Y-86958448D01*
%TO.C,J2*%
X62608056Y-30073512D02*
X62608056Y-30788816D01*
X62608056Y-30788816D02*
X62560370Y-30931877D01*
X62560370Y-30931877D02*
X62464996Y-31027251D01*
X62464996Y-31027251D02*
X62321935Y-31074937D01*
X62321935Y-31074937D02*
X62226561Y-31074937D01*
X63037238Y-30168886D02*
X63084925Y-30121199D01*
X63084925Y-30121199D02*
X63180299Y-30073512D01*
X63180299Y-30073512D02*
X63418733Y-30073512D01*
X63418733Y-30073512D02*
X63514107Y-30121199D01*
X63514107Y-30121199D02*
X63561794Y-30168886D01*
X63561794Y-30168886D02*
X63609481Y-30264260D01*
X63609481Y-30264260D02*
X63609481Y-30359634D01*
X63609481Y-30359634D02*
X63561794Y-30502695D01*
X63561794Y-30502695D02*
X62989551Y-31074937D01*
X62989551Y-31074937D02*
X63609481Y-31074937D01*
%TO.C,J35*%
X217835476Y-65798153D02*
X217835476Y-66512438D01*
X217835476Y-66512438D02*
X217787857Y-66655295D01*
X217787857Y-66655295D02*
X217692619Y-66750534D01*
X217692619Y-66750534D02*
X217549762Y-66798153D01*
X217549762Y-66798153D02*
X217454524Y-66798153D01*
X218216429Y-65798153D02*
X218835476Y-65798153D01*
X218835476Y-65798153D02*
X218502143Y-66179105D01*
X218502143Y-66179105D02*
X218645000Y-66179105D01*
X218645000Y-66179105D02*
X218740238Y-66226724D01*
X218740238Y-66226724D02*
X218787857Y-66274343D01*
X218787857Y-66274343D02*
X218835476Y-66369581D01*
X218835476Y-66369581D02*
X218835476Y-66607676D01*
X218835476Y-66607676D02*
X218787857Y-66702914D01*
X218787857Y-66702914D02*
X218740238Y-66750534D01*
X218740238Y-66750534D02*
X218645000Y-66798153D01*
X218645000Y-66798153D02*
X218359286Y-66798153D01*
X218359286Y-66798153D02*
X218264048Y-66750534D01*
X218264048Y-66750534D02*
X218216429Y-66702914D01*
X219740238Y-65798153D02*
X219264048Y-65798153D01*
X219264048Y-65798153D02*
X219216429Y-66274343D01*
X219216429Y-66274343D02*
X219264048Y-66226724D01*
X219264048Y-66226724D02*
X219359286Y-66179105D01*
X219359286Y-66179105D02*
X219597381Y-66179105D01*
X219597381Y-66179105D02*
X219692619Y-66226724D01*
X219692619Y-66226724D02*
X219740238Y-66274343D01*
X219740238Y-66274343D02*
X219787857Y-66369581D01*
X219787857Y-66369581D02*
X219787857Y-66607676D01*
X219787857Y-66607676D02*
X219740238Y-66702914D01*
X219740238Y-66702914D02*
X219692619Y-66750534D01*
X219692619Y-66750534D02*
X219597381Y-66798153D01*
X219597381Y-66798153D02*
X219359286Y-66798153D01*
X219359286Y-66798153D02*
X219264048Y-66750534D01*
X219264048Y-66750534D02*
X219216429Y-66702914D01*
%TO.C,J28*%
X95335476Y-65798153D02*
X95335476Y-66512438D01*
X95335476Y-66512438D02*
X95287857Y-66655295D01*
X95287857Y-66655295D02*
X95192619Y-66750534D01*
X95192619Y-66750534D02*
X95049762Y-66798153D01*
X95049762Y-66798153D02*
X94954524Y-66798153D01*
X95764048Y-65893391D02*
X95811667Y-65845772D01*
X95811667Y-65845772D02*
X95906905Y-65798153D01*
X95906905Y-65798153D02*
X96145000Y-65798153D01*
X96145000Y-65798153D02*
X96240238Y-65845772D01*
X96240238Y-65845772D02*
X96287857Y-65893391D01*
X96287857Y-65893391D02*
X96335476Y-65988629D01*
X96335476Y-65988629D02*
X96335476Y-66083867D01*
X96335476Y-66083867D02*
X96287857Y-66226724D01*
X96287857Y-66226724D02*
X95716429Y-66798153D01*
X95716429Y-66798153D02*
X96335476Y-66798153D01*
X96906905Y-66226724D02*
X96811667Y-66179105D01*
X96811667Y-66179105D02*
X96764048Y-66131486D01*
X96764048Y-66131486D02*
X96716429Y-66036248D01*
X96716429Y-66036248D02*
X96716429Y-65988629D01*
X96716429Y-65988629D02*
X96764048Y-65893391D01*
X96764048Y-65893391D02*
X96811667Y-65845772D01*
X96811667Y-65845772D02*
X96906905Y-65798153D01*
X96906905Y-65798153D02*
X97097381Y-65798153D01*
X97097381Y-65798153D02*
X97192619Y-65845772D01*
X97192619Y-65845772D02*
X97240238Y-65893391D01*
X97240238Y-65893391D02*
X97287857Y-65988629D01*
X97287857Y-65988629D02*
X97287857Y-66036248D01*
X97287857Y-66036248D02*
X97240238Y-66131486D01*
X97240238Y-66131486D02*
X97192619Y-66179105D01*
X97192619Y-66179105D02*
X97097381Y-66226724D01*
X97097381Y-66226724D02*
X96906905Y-66226724D01*
X96906905Y-66226724D02*
X96811667Y-66274343D01*
X96811667Y-66274343D02*
X96764048Y-66321962D01*
X96764048Y-66321962D02*
X96716429Y-66417200D01*
X96716429Y-66417200D02*
X96716429Y-66607676D01*
X96716429Y-66607676D02*
X96764048Y-66702914D01*
X96764048Y-66702914D02*
X96811667Y-66750534D01*
X96811667Y-66750534D02*
X96906905Y-66798153D01*
X96906905Y-66798153D02*
X97097381Y-66798153D01*
X97097381Y-66798153D02*
X97192619Y-66750534D01*
X97192619Y-66750534D02*
X97240238Y-66702914D01*
X97240238Y-66702914D02*
X97287857Y-66607676D01*
X97287857Y-66607676D02*
X97287857Y-66417200D01*
X97287857Y-66417200D02*
X97240238Y-66321962D01*
X97240238Y-66321962D02*
X97192619Y-66274343D01*
X97192619Y-66274343D02*
X97097381Y-66226724D01*
%TO.C,J37*%
X42685476Y-86053687D02*
X42685476Y-86767972D01*
X42685476Y-86767972D02*
X42637857Y-86910829D01*
X42637857Y-86910829D02*
X42542619Y-87006068D01*
X42542619Y-87006068D02*
X42399762Y-87053687D01*
X42399762Y-87053687D02*
X42304524Y-87053687D01*
X43066429Y-86053687D02*
X43685476Y-86053687D01*
X43685476Y-86053687D02*
X43352143Y-86434639D01*
X43352143Y-86434639D02*
X43495000Y-86434639D01*
X43495000Y-86434639D02*
X43590238Y-86482258D01*
X43590238Y-86482258D02*
X43637857Y-86529877D01*
X43637857Y-86529877D02*
X43685476Y-86625115D01*
X43685476Y-86625115D02*
X43685476Y-86863210D01*
X43685476Y-86863210D02*
X43637857Y-86958448D01*
X43637857Y-86958448D02*
X43590238Y-87006068D01*
X43590238Y-87006068D02*
X43495000Y-87053687D01*
X43495000Y-87053687D02*
X43209286Y-87053687D01*
X43209286Y-87053687D02*
X43114048Y-87006068D01*
X43114048Y-87006068D02*
X43066429Y-86958448D01*
X44018810Y-86053687D02*
X44685476Y-86053687D01*
X44685476Y-86053687D02*
X44256905Y-87053687D01*
%TO.C,J48*%
X235335476Y-86053687D02*
X235335476Y-86767972D01*
X235335476Y-86767972D02*
X235287857Y-86910829D01*
X235287857Y-86910829D02*
X235192619Y-87006068D01*
X235192619Y-87006068D02*
X235049762Y-87053687D01*
X235049762Y-87053687D02*
X234954524Y-87053687D01*
X236240238Y-86387020D02*
X236240238Y-87053687D01*
X236002143Y-86006068D02*
X235764048Y-86720353D01*
X235764048Y-86720353D02*
X236383095Y-86720353D01*
X236906905Y-86482258D02*
X236811667Y-86434639D01*
X236811667Y-86434639D02*
X236764048Y-86387020D01*
X236764048Y-86387020D02*
X236716429Y-86291782D01*
X236716429Y-86291782D02*
X236716429Y-86244163D01*
X236716429Y-86244163D02*
X236764048Y-86148925D01*
X236764048Y-86148925D02*
X236811667Y-86101306D01*
X236811667Y-86101306D02*
X236906905Y-86053687D01*
X236906905Y-86053687D02*
X237097381Y-86053687D01*
X237097381Y-86053687D02*
X237192619Y-86101306D01*
X237192619Y-86101306D02*
X237240238Y-86148925D01*
X237240238Y-86148925D02*
X237287857Y-86244163D01*
X237287857Y-86244163D02*
X237287857Y-86291782D01*
X237287857Y-86291782D02*
X237240238Y-86387020D01*
X237240238Y-86387020D02*
X237192619Y-86434639D01*
X237192619Y-86434639D02*
X237097381Y-86482258D01*
X237097381Y-86482258D02*
X236906905Y-86482258D01*
X236906905Y-86482258D02*
X236811667Y-86529877D01*
X236811667Y-86529877D02*
X236764048Y-86577496D01*
X236764048Y-86577496D02*
X236716429Y-86672734D01*
X236716429Y-86672734D02*
X236716429Y-86863210D01*
X236716429Y-86863210D02*
X236764048Y-86958448D01*
X236764048Y-86958448D02*
X236811667Y-87006068D01*
X236811667Y-87006068D02*
X236906905Y-87053687D01*
X236906905Y-87053687D02*
X237097381Y-87053687D01*
X237097381Y-87053687D02*
X237192619Y-87006068D01*
X237192619Y-87006068D02*
X237240238Y-86958448D01*
X237240238Y-86958448D02*
X237287857Y-86863210D01*
X237287857Y-86863210D02*
X237287857Y-86672734D01*
X237287857Y-86672734D02*
X237240238Y-86577496D01*
X237240238Y-86577496D02*
X237192619Y-86529877D01*
X237192619Y-86529877D02*
X237097381Y-86482258D01*
%TO.C,J22*%
X202131187Y-47509046D02*
X202131187Y-48224350D01*
X202131187Y-48224350D02*
X202083501Y-48367411D01*
X202083501Y-48367411D02*
X201988127Y-48462785D01*
X201988127Y-48462785D02*
X201845066Y-48510471D01*
X201845066Y-48510471D02*
X201749692Y-48510471D01*
X202560369Y-47604420D02*
X202608056Y-47556733D01*
X202608056Y-47556733D02*
X202703430Y-47509046D01*
X202703430Y-47509046D02*
X202941864Y-47509046D01*
X202941864Y-47509046D02*
X203037238Y-47556733D01*
X203037238Y-47556733D02*
X203084925Y-47604420D01*
X203084925Y-47604420D02*
X203132612Y-47699794D01*
X203132612Y-47699794D02*
X203132612Y-47795168D01*
X203132612Y-47795168D02*
X203084925Y-47938229D01*
X203084925Y-47938229D02*
X202512682Y-48510471D01*
X202512682Y-48510471D02*
X203132612Y-48510471D01*
X203514107Y-47604420D02*
X203561794Y-47556733D01*
X203561794Y-47556733D02*
X203657168Y-47509046D01*
X203657168Y-47509046D02*
X203895602Y-47509046D01*
X203895602Y-47509046D02*
X203990976Y-47556733D01*
X203990976Y-47556733D02*
X204038663Y-47604420D01*
X204038663Y-47604420D02*
X204086350Y-47699794D01*
X204086350Y-47699794D02*
X204086350Y-47795168D01*
X204086350Y-47795168D02*
X204038663Y-47938229D01*
X204038663Y-47938229D02*
X203466420Y-48510471D01*
X203466420Y-48510471D02*
X204086350Y-48510471D01*
%TO.C,J40*%
X95335476Y-86053687D02*
X95335476Y-86767972D01*
X95335476Y-86767972D02*
X95287857Y-86910829D01*
X95287857Y-86910829D02*
X95192619Y-87006068D01*
X95192619Y-87006068D02*
X95049762Y-87053687D01*
X95049762Y-87053687D02*
X94954524Y-87053687D01*
X96240238Y-86387020D02*
X96240238Y-87053687D01*
X96002143Y-86006068D02*
X95764048Y-86720353D01*
X95764048Y-86720353D02*
X96383095Y-86720353D01*
X96954524Y-86053687D02*
X97049762Y-86053687D01*
X97049762Y-86053687D02*
X97145000Y-86101306D01*
X97145000Y-86101306D02*
X97192619Y-86148925D01*
X97192619Y-86148925D02*
X97240238Y-86244163D01*
X97240238Y-86244163D02*
X97287857Y-86434639D01*
X97287857Y-86434639D02*
X97287857Y-86672734D01*
X97287857Y-86672734D02*
X97240238Y-86863210D01*
X97240238Y-86863210D02*
X97192619Y-86958448D01*
X97192619Y-86958448D02*
X97145000Y-87006068D01*
X97145000Y-87006068D02*
X97049762Y-87053687D01*
X97049762Y-87053687D02*
X96954524Y-87053687D01*
X96954524Y-87053687D02*
X96859286Y-87006068D01*
X96859286Y-87006068D02*
X96811667Y-86958448D01*
X96811667Y-86958448D02*
X96764048Y-86863210D01*
X96764048Y-86863210D02*
X96716429Y-86672734D01*
X96716429Y-86672734D02*
X96716429Y-86434639D01*
X96716429Y-86434639D02*
X96764048Y-86244163D01*
X96764048Y-86244163D02*
X96811667Y-86148925D01*
X96811667Y-86148925D02*
X96859286Y-86101306D01*
X96859286Y-86101306D02*
X96954524Y-86053687D01*
%TO.C,J21*%
X184631187Y-47509046D02*
X184631187Y-48224350D01*
X184631187Y-48224350D02*
X184583501Y-48367411D01*
X184583501Y-48367411D02*
X184488127Y-48462785D01*
X184488127Y-48462785D02*
X184345066Y-48510471D01*
X184345066Y-48510471D02*
X184249692Y-48510471D01*
X185060369Y-47604420D02*
X185108056Y-47556733D01*
X185108056Y-47556733D02*
X185203430Y-47509046D01*
X185203430Y-47509046D02*
X185441864Y-47509046D01*
X185441864Y-47509046D02*
X185537238Y-47556733D01*
X185537238Y-47556733D02*
X185584925Y-47604420D01*
X185584925Y-47604420D02*
X185632612Y-47699794D01*
X185632612Y-47699794D02*
X185632612Y-47795168D01*
X185632612Y-47795168D02*
X185584925Y-47938229D01*
X185584925Y-47938229D02*
X185012682Y-48510471D01*
X185012682Y-48510471D02*
X185632612Y-48510471D01*
X186586350Y-48510471D02*
X186014107Y-48510471D01*
X186300229Y-48510471D02*
X186300229Y-47509046D01*
X186300229Y-47509046D02*
X186204855Y-47652107D01*
X186204855Y-47652107D02*
X186109481Y-47747481D01*
X186109481Y-47747481D02*
X186014107Y-47795168D01*
%TO.C,J42*%
X130335476Y-86053687D02*
X130335476Y-86767972D01*
X130335476Y-86767972D02*
X130287857Y-86910829D01*
X130287857Y-86910829D02*
X130192619Y-87006068D01*
X130192619Y-87006068D02*
X130049762Y-87053687D01*
X130049762Y-87053687D02*
X129954524Y-87053687D01*
X131240238Y-86387020D02*
X131240238Y-87053687D01*
X131002143Y-86006068D02*
X130764048Y-86720353D01*
X130764048Y-86720353D02*
X131383095Y-86720353D01*
X131716429Y-86148925D02*
X131764048Y-86101306D01*
X131764048Y-86101306D02*
X131859286Y-86053687D01*
X131859286Y-86053687D02*
X132097381Y-86053687D01*
X132097381Y-86053687D02*
X132192619Y-86101306D01*
X132192619Y-86101306D02*
X132240238Y-86148925D01*
X132240238Y-86148925D02*
X132287857Y-86244163D01*
X132287857Y-86244163D02*
X132287857Y-86339401D01*
X132287857Y-86339401D02*
X132240238Y-86482258D01*
X132240238Y-86482258D02*
X131668810Y-87053687D01*
X131668810Y-87053687D02*
X132287857Y-87053687D01*
%TO.C,J39*%
X77685476Y-86053687D02*
X77685476Y-86767972D01*
X77685476Y-86767972D02*
X77637857Y-86910829D01*
X77637857Y-86910829D02*
X77542619Y-87006068D01*
X77542619Y-87006068D02*
X77399762Y-87053687D01*
X77399762Y-87053687D02*
X77304524Y-87053687D01*
X78066429Y-86053687D02*
X78685476Y-86053687D01*
X78685476Y-86053687D02*
X78352143Y-86434639D01*
X78352143Y-86434639D02*
X78495000Y-86434639D01*
X78495000Y-86434639D02*
X78590238Y-86482258D01*
X78590238Y-86482258D02*
X78637857Y-86529877D01*
X78637857Y-86529877D02*
X78685476Y-86625115D01*
X78685476Y-86625115D02*
X78685476Y-86863210D01*
X78685476Y-86863210D02*
X78637857Y-86958448D01*
X78637857Y-86958448D02*
X78590238Y-87006068D01*
X78590238Y-87006068D02*
X78495000Y-87053687D01*
X78495000Y-87053687D02*
X78209286Y-87053687D01*
X78209286Y-87053687D02*
X78114048Y-87006068D01*
X78114048Y-87006068D02*
X78066429Y-86958448D01*
X79161667Y-87053687D02*
X79352143Y-87053687D01*
X79352143Y-87053687D02*
X79447381Y-87006068D01*
X79447381Y-87006068D02*
X79495000Y-86958448D01*
X79495000Y-86958448D02*
X79590238Y-86815591D01*
X79590238Y-86815591D02*
X79637857Y-86625115D01*
X79637857Y-86625115D02*
X79637857Y-86244163D01*
X79637857Y-86244163D02*
X79590238Y-86148925D01*
X79590238Y-86148925D02*
X79542619Y-86101306D01*
X79542619Y-86101306D02*
X79447381Y-86053687D01*
X79447381Y-86053687D02*
X79256905Y-86053687D01*
X79256905Y-86053687D02*
X79161667Y-86101306D01*
X79161667Y-86101306D02*
X79114048Y-86148925D01*
X79114048Y-86148925D02*
X79066429Y-86244163D01*
X79066429Y-86244163D02*
X79066429Y-86482258D01*
X79066429Y-86482258D02*
X79114048Y-86577496D01*
X79114048Y-86577496D02*
X79161667Y-86625115D01*
X79161667Y-86625115D02*
X79256905Y-86672734D01*
X79256905Y-86672734D02*
X79447381Y-86672734D01*
X79447381Y-86672734D02*
X79542619Y-86625115D01*
X79542619Y-86625115D02*
X79590238Y-86577496D01*
X79590238Y-86577496D02*
X79637857Y-86482258D01*
%TO.C,J25*%
X42685476Y-65798153D02*
X42685476Y-66512438D01*
X42685476Y-66512438D02*
X42637857Y-66655295D01*
X42637857Y-66655295D02*
X42542619Y-66750534D01*
X42542619Y-66750534D02*
X42399762Y-66798153D01*
X42399762Y-66798153D02*
X42304524Y-66798153D01*
X43114048Y-65893391D02*
X43161667Y-65845772D01*
X43161667Y-65845772D02*
X43256905Y-65798153D01*
X43256905Y-65798153D02*
X43495000Y-65798153D01*
X43495000Y-65798153D02*
X43590238Y-65845772D01*
X43590238Y-65845772D02*
X43637857Y-65893391D01*
X43637857Y-65893391D02*
X43685476Y-65988629D01*
X43685476Y-65988629D02*
X43685476Y-66083867D01*
X43685476Y-66083867D02*
X43637857Y-66226724D01*
X43637857Y-66226724D02*
X43066429Y-66798153D01*
X43066429Y-66798153D02*
X43685476Y-66798153D01*
X44590238Y-65798153D02*
X44114048Y-65798153D01*
X44114048Y-65798153D02*
X44066429Y-66274343D01*
X44066429Y-66274343D02*
X44114048Y-66226724D01*
X44114048Y-66226724D02*
X44209286Y-66179105D01*
X44209286Y-66179105D02*
X44447381Y-66179105D01*
X44447381Y-66179105D02*
X44542619Y-66226724D01*
X44542619Y-66226724D02*
X44590238Y-66274343D01*
X44590238Y-66274343D02*
X44637857Y-66369581D01*
X44637857Y-66369581D02*
X44637857Y-66607676D01*
X44637857Y-66607676D02*
X44590238Y-66702914D01*
X44590238Y-66702914D02*
X44542619Y-66750534D01*
X44542619Y-66750534D02*
X44447381Y-66798153D01*
X44447381Y-66798153D02*
X44209286Y-66798153D01*
X44209286Y-66798153D02*
X44114048Y-66750534D01*
X44114048Y-66750534D02*
X44066429Y-66702914D01*
%TO.C,J32*%
X165335476Y-65798153D02*
X165335476Y-66512438D01*
X165335476Y-66512438D02*
X165287857Y-66655295D01*
X165287857Y-66655295D02*
X165192619Y-66750534D01*
X165192619Y-66750534D02*
X165049762Y-66798153D01*
X165049762Y-66798153D02*
X164954524Y-66798153D01*
X165716429Y-65798153D02*
X166335476Y-65798153D01*
X166335476Y-65798153D02*
X166002143Y-66179105D01*
X166002143Y-66179105D02*
X166145000Y-66179105D01*
X166145000Y-66179105D02*
X166240238Y-66226724D01*
X166240238Y-66226724D02*
X166287857Y-66274343D01*
X166287857Y-66274343D02*
X166335476Y-66369581D01*
X166335476Y-66369581D02*
X166335476Y-66607676D01*
X166335476Y-66607676D02*
X166287857Y-66702914D01*
X166287857Y-66702914D02*
X166240238Y-66750534D01*
X166240238Y-66750534D02*
X166145000Y-66798153D01*
X166145000Y-66798153D02*
X165859286Y-66798153D01*
X165859286Y-66798153D02*
X165764048Y-66750534D01*
X165764048Y-66750534D02*
X165716429Y-66702914D01*
X166716429Y-65893391D02*
X166764048Y-65845772D01*
X166764048Y-65845772D02*
X166859286Y-65798153D01*
X166859286Y-65798153D02*
X167097381Y-65798153D01*
X167097381Y-65798153D02*
X167192619Y-65845772D01*
X167192619Y-65845772D02*
X167240238Y-65893391D01*
X167240238Y-65893391D02*
X167287857Y-65988629D01*
X167287857Y-65988629D02*
X167287857Y-66083867D01*
X167287857Y-66083867D02*
X167240238Y-66226724D01*
X167240238Y-66226724D02*
X166668810Y-66798153D01*
X166668810Y-66798153D02*
X167287857Y-66798153D01*
%TO.C,J19*%
X149631187Y-47509046D02*
X149631187Y-48224350D01*
X149631187Y-48224350D02*
X149583501Y-48367411D01*
X149583501Y-48367411D02*
X149488127Y-48462785D01*
X149488127Y-48462785D02*
X149345066Y-48510471D01*
X149345066Y-48510471D02*
X149249692Y-48510471D01*
X150632612Y-48510471D02*
X150060369Y-48510471D01*
X150346491Y-48510471D02*
X150346491Y-47509046D01*
X150346491Y-47509046D02*
X150251117Y-47652107D01*
X150251117Y-47652107D02*
X150155743Y-47747481D01*
X150155743Y-47747481D02*
X150060369Y-47795168D01*
X151109481Y-48510471D02*
X151300229Y-48510471D01*
X151300229Y-48510471D02*
X151395602Y-48462785D01*
X151395602Y-48462785D02*
X151443289Y-48415098D01*
X151443289Y-48415098D02*
X151538663Y-48272037D01*
X151538663Y-48272037D02*
X151586350Y-48081289D01*
X151586350Y-48081289D02*
X151586350Y-47699794D01*
X151586350Y-47699794D02*
X151538663Y-47604420D01*
X151538663Y-47604420D02*
X151490976Y-47556733D01*
X151490976Y-47556733D02*
X151395602Y-47509046D01*
X151395602Y-47509046D02*
X151204855Y-47509046D01*
X151204855Y-47509046D02*
X151109481Y-47556733D01*
X151109481Y-47556733D02*
X151061794Y-47604420D01*
X151061794Y-47604420D02*
X151014107Y-47699794D01*
X151014107Y-47699794D02*
X151014107Y-47938229D01*
X151014107Y-47938229D02*
X151061794Y-48033602D01*
X151061794Y-48033602D02*
X151109481Y-48081289D01*
X151109481Y-48081289D02*
X151204855Y-48128976D01*
X151204855Y-48128976D02*
X151395602Y-48128976D01*
X151395602Y-48128976D02*
X151490976Y-48081289D01*
X151490976Y-48081289D02*
X151538663Y-48033602D01*
X151538663Y-48033602D02*
X151586350Y-47938229D01*
%TO.C,J23*%
X219631187Y-47509046D02*
X219631187Y-48224350D01*
X219631187Y-48224350D02*
X219583501Y-48367411D01*
X219583501Y-48367411D02*
X219488127Y-48462785D01*
X219488127Y-48462785D02*
X219345066Y-48510471D01*
X219345066Y-48510471D02*
X219249692Y-48510471D01*
X220060369Y-47604420D02*
X220108056Y-47556733D01*
X220108056Y-47556733D02*
X220203430Y-47509046D01*
X220203430Y-47509046D02*
X220441864Y-47509046D01*
X220441864Y-47509046D02*
X220537238Y-47556733D01*
X220537238Y-47556733D02*
X220584925Y-47604420D01*
X220584925Y-47604420D02*
X220632612Y-47699794D01*
X220632612Y-47699794D02*
X220632612Y-47795168D01*
X220632612Y-47795168D02*
X220584925Y-47938229D01*
X220584925Y-47938229D02*
X220012682Y-48510471D01*
X220012682Y-48510471D02*
X220632612Y-48510471D01*
X220966420Y-47509046D02*
X221586350Y-47509046D01*
X221586350Y-47509046D02*
X221252542Y-47890542D01*
X221252542Y-47890542D02*
X221395602Y-47890542D01*
X221395602Y-47890542D02*
X221490976Y-47938229D01*
X221490976Y-47938229D02*
X221538663Y-47985915D01*
X221538663Y-47985915D02*
X221586350Y-48081289D01*
X221586350Y-48081289D02*
X221586350Y-48319724D01*
X221586350Y-48319724D02*
X221538663Y-48415098D01*
X221538663Y-48415098D02*
X221490976Y-48462785D01*
X221490976Y-48462785D02*
X221395602Y-48510471D01*
X221395602Y-48510471D02*
X221109481Y-48510471D01*
X221109481Y-48510471D02*
X221014107Y-48462785D01*
X221014107Y-48462785D02*
X220966420Y-48415098D01*
%TO.C,J14*%
X62131187Y-47509046D02*
X62131187Y-48224350D01*
X62131187Y-48224350D02*
X62083501Y-48367411D01*
X62083501Y-48367411D02*
X61988127Y-48462785D01*
X61988127Y-48462785D02*
X61845066Y-48510471D01*
X61845066Y-48510471D02*
X61749692Y-48510471D01*
X63132612Y-48510471D02*
X62560369Y-48510471D01*
X62846491Y-48510471D02*
X62846491Y-47509046D01*
X62846491Y-47509046D02*
X62751117Y-47652107D01*
X62751117Y-47652107D02*
X62655743Y-47747481D01*
X62655743Y-47747481D02*
X62560369Y-47795168D01*
X63990976Y-47842855D02*
X63990976Y-48510471D01*
X63752542Y-47461360D02*
X63514107Y-48176663D01*
X63514107Y-48176663D02*
X64134037Y-48176663D01*
%TO.C,J5*%
X115108056Y-30073512D02*
X115108056Y-30788816D01*
X115108056Y-30788816D02*
X115060370Y-30931877D01*
X115060370Y-30931877D02*
X114964996Y-31027251D01*
X114964996Y-31027251D02*
X114821935Y-31074937D01*
X114821935Y-31074937D02*
X114726561Y-31074937D01*
X116061794Y-30073512D02*
X115584925Y-30073512D01*
X115584925Y-30073512D02*
X115537238Y-30550381D01*
X115537238Y-30550381D02*
X115584925Y-30502695D01*
X115584925Y-30502695D02*
X115680299Y-30455008D01*
X115680299Y-30455008D02*
X115918733Y-30455008D01*
X115918733Y-30455008D02*
X116014107Y-30502695D01*
X116014107Y-30502695D02*
X116061794Y-30550381D01*
X116061794Y-30550381D02*
X116109481Y-30645755D01*
X116109481Y-30645755D02*
X116109481Y-30884190D01*
X116109481Y-30884190D02*
X116061794Y-30979564D01*
X116061794Y-30979564D02*
X116014107Y-31027251D01*
X116014107Y-31027251D02*
X115918733Y-31074937D01*
X115918733Y-31074937D02*
X115680299Y-31074937D01*
X115680299Y-31074937D02*
X115584925Y-31027251D01*
X115584925Y-31027251D02*
X115537238Y-30979564D01*
%TO.C,J30*%
X130335476Y-65798153D02*
X130335476Y-66512438D01*
X130335476Y-66512438D02*
X130287857Y-66655295D01*
X130287857Y-66655295D02*
X130192619Y-66750534D01*
X130192619Y-66750534D02*
X130049762Y-66798153D01*
X130049762Y-66798153D02*
X129954524Y-66798153D01*
X130716429Y-65798153D02*
X131335476Y-65798153D01*
X131335476Y-65798153D02*
X131002143Y-66179105D01*
X131002143Y-66179105D02*
X131145000Y-66179105D01*
X131145000Y-66179105D02*
X131240238Y-66226724D01*
X131240238Y-66226724D02*
X131287857Y-66274343D01*
X131287857Y-66274343D02*
X131335476Y-66369581D01*
X131335476Y-66369581D02*
X131335476Y-66607676D01*
X131335476Y-66607676D02*
X131287857Y-66702914D01*
X131287857Y-66702914D02*
X131240238Y-66750534D01*
X131240238Y-66750534D02*
X131145000Y-66798153D01*
X131145000Y-66798153D02*
X130859286Y-66798153D01*
X130859286Y-66798153D02*
X130764048Y-66750534D01*
X130764048Y-66750534D02*
X130716429Y-66702914D01*
X131954524Y-65798153D02*
X132049762Y-65798153D01*
X132049762Y-65798153D02*
X132145000Y-65845772D01*
X132145000Y-65845772D02*
X132192619Y-65893391D01*
X132192619Y-65893391D02*
X132240238Y-65988629D01*
X132240238Y-65988629D02*
X132287857Y-66179105D01*
X132287857Y-66179105D02*
X132287857Y-66417200D01*
X132287857Y-66417200D02*
X132240238Y-66607676D01*
X132240238Y-66607676D02*
X132192619Y-66702914D01*
X132192619Y-66702914D02*
X132145000Y-66750534D01*
X132145000Y-66750534D02*
X132049762Y-66798153D01*
X132049762Y-66798153D02*
X131954524Y-66798153D01*
X131954524Y-66798153D02*
X131859286Y-66750534D01*
X131859286Y-66750534D02*
X131811667Y-66702914D01*
X131811667Y-66702914D02*
X131764048Y-66607676D01*
X131764048Y-66607676D02*
X131716429Y-66417200D01*
X131716429Y-66417200D02*
X131716429Y-66179105D01*
X131716429Y-66179105D02*
X131764048Y-65988629D01*
X131764048Y-65988629D02*
X131811667Y-65893391D01*
X131811667Y-65893391D02*
X131859286Y-65845772D01*
X131859286Y-65845772D02*
X131954524Y-65798153D01*
%TO.C,J24*%
X237131187Y-47509046D02*
X237131187Y-48224350D01*
X237131187Y-48224350D02*
X237083501Y-48367411D01*
X237083501Y-48367411D02*
X236988127Y-48462785D01*
X236988127Y-48462785D02*
X236845066Y-48510471D01*
X236845066Y-48510471D02*
X236749692Y-48510471D01*
X237560369Y-47604420D02*
X237608056Y-47556733D01*
X237608056Y-47556733D02*
X237703430Y-47509046D01*
X237703430Y-47509046D02*
X237941864Y-47509046D01*
X237941864Y-47509046D02*
X238037238Y-47556733D01*
X238037238Y-47556733D02*
X238084925Y-47604420D01*
X238084925Y-47604420D02*
X238132612Y-47699794D01*
X238132612Y-47699794D02*
X238132612Y-47795168D01*
X238132612Y-47795168D02*
X238084925Y-47938229D01*
X238084925Y-47938229D02*
X237512682Y-48510471D01*
X237512682Y-48510471D02*
X238132612Y-48510471D01*
X238990976Y-47842855D02*
X238990976Y-48510471D01*
X238752542Y-47461360D02*
X238514107Y-48176663D01*
X238514107Y-48176663D02*
X239134037Y-48176663D01*
%TO.C,J9*%
X185108056Y-30073512D02*
X185108056Y-30788816D01*
X185108056Y-30788816D02*
X185060370Y-30931877D01*
X185060370Y-30931877D02*
X184964996Y-31027251D01*
X184964996Y-31027251D02*
X184821935Y-31074937D01*
X184821935Y-31074937D02*
X184726561Y-31074937D01*
X185632612Y-31074937D02*
X185823360Y-31074937D01*
X185823360Y-31074937D02*
X185918733Y-31027251D01*
X185918733Y-31027251D02*
X185966420Y-30979564D01*
X185966420Y-30979564D02*
X186061794Y-30836503D01*
X186061794Y-30836503D02*
X186109481Y-30645755D01*
X186109481Y-30645755D02*
X186109481Y-30264260D01*
X186109481Y-30264260D02*
X186061794Y-30168886D01*
X186061794Y-30168886D02*
X186014107Y-30121199D01*
X186014107Y-30121199D02*
X185918733Y-30073512D01*
X185918733Y-30073512D02*
X185727986Y-30073512D01*
X185727986Y-30073512D02*
X185632612Y-30121199D01*
X185632612Y-30121199D02*
X185584925Y-30168886D01*
X185584925Y-30168886D02*
X185537238Y-30264260D01*
X185537238Y-30264260D02*
X185537238Y-30502695D01*
X185537238Y-30502695D02*
X185584925Y-30598068D01*
X185584925Y-30598068D02*
X185632612Y-30645755D01*
X185632612Y-30645755D02*
X185727986Y-30693442D01*
X185727986Y-30693442D02*
X185918733Y-30693442D01*
X185918733Y-30693442D02*
X186014107Y-30645755D01*
X186014107Y-30645755D02*
X186061794Y-30598068D01*
X186061794Y-30598068D02*
X186109481Y-30502695D01*
%TO.C,J7*%
X150108056Y-30073512D02*
X150108056Y-30788816D01*
X150108056Y-30788816D02*
X150060370Y-30931877D01*
X150060370Y-30931877D02*
X149964996Y-31027251D01*
X149964996Y-31027251D02*
X149821935Y-31074937D01*
X149821935Y-31074937D02*
X149726561Y-31074937D01*
X150489551Y-30073512D02*
X151157168Y-30073512D01*
X151157168Y-30073512D02*
X150727986Y-31074937D01*
%TO.C,J3*%
X79958056Y-30073512D02*
X79958056Y-30788816D01*
X79958056Y-30788816D02*
X79910370Y-30931877D01*
X79910370Y-30931877D02*
X79814996Y-31027251D01*
X79814996Y-31027251D02*
X79671935Y-31074937D01*
X79671935Y-31074937D02*
X79576561Y-31074937D01*
X80339551Y-30073512D02*
X80959481Y-30073512D01*
X80959481Y-30073512D02*
X80625673Y-30455008D01*
X80625673Y-30455008D02*
X80768733Y-30455008D01*
X80768733Y-30455008D02*
X80864107Y-30502695D01*
X80864107Y-30502695D02*
X80911794Y-30550381D01*
X80911794Y-30550381D02*
X80959481Y-30645755D01*
X80959481Y-30645755D02*
X80959481Y-30884190D01*
X80959481Y-30884190D02*
X80911794Y-30979564D01*
X80911794Y-30979564D02*
X80864107Y-31027251D01*
X80864107Y-31027251D02*
X80768733Y-31074937D01*
X80768733Y-31074937D02*
X80482612Y-31074937D01*
X80482612Y-31074937D02*
X80387238Y-31027251D01*
X80387238Y-31027251D02*
X80339551Y-30979564D01*
%TO.C,J15*%
X79481187Y-47509046D02*
X79481187Y-48224350D01*
X79481187Y-48224350D02*
X79433501Y-48367411D01*
X79433501Y-48367411D02*
X79338127Y-48462785D01*
X79338127Y-48462785D02*
X79195066Y-48510471D01*
X79195066Y-48510471D02*
X79099692Y-48510471D01*
X80482612Y-48510471D02*
X79910369Y-48510471D01*
X80196491Y-48510471D02*
X80196491Y-47509046D01*
X80196491Y-47509046D02*
X80101117Y-47652107D01*
X80101117Y-47652107D02*
X80005743Y-47747481D01*
X80005743Y-47747481D02*
X79910369Y-47795168D01*
X81388663Y-47509046D02*
X80911794Y-47509046D01*
X80911794Y-47509046D02*
X80864107Y-47985915D01*
X80864107Y-47985915D02*
X80911794Y-47938229D01*
X80911794Y-47938229D02*
X81007168Y-47890542D01*
X81007168Y-47890542D02*
X81245602Y-47890542D01*
X81245602Y-47890542D02*
X81340976Y-47938229D01*
X81340976Y-47938229D02*
X81388663Y-47985915D01*
X81388663Y-47985915D02*
X81436350Y-48081289D01*
X81436350Y-48081289D02*
X81436350Y-48319724D01*
X81436350Y-48319724D02*
X81388663Y-48415098D01*
X81388663Y-48415098D02*
X81340976Y-48462785D01*
X81340976Y-48462785D02*
X81245602Y-48510471D01*
X81245602Y-48510471D02*
X81007168Y-48510471D01*
X81007168Y-48510471D02*
X80911794Y-48462785D01*
X80911794Y-48462785D02*
X80864107Y-48415098D01*
%TO.C,J27*%
X77685476Y-65798153D02*
X77685476Y-66512438D01*
X77685476Y-66512438D02*
X77637857Y-66655295D01*
X77637857Y-66655295D02*
X77542619Y-66750534D01*
X77542619Y-66750534D02*
X77399762Y-66798153D01*
X77399762Y-66798153D02*
X77304524Y-66798153D01*
X78114048Y-65893391D02*
X78161667Y-65845772D01*
X78161667Y-65845772D02*
X78256905Y-65798153D01*
X78256905Y-65798153D02*
X78495000Y-65798153D01*
X78495000Y-65798153D02*
X78590238Y-65845772D01*
X78590238Y-65845772D02*
X78637857Y-65893391D01*
X78637857Y-65893391D02*
X78685476Y-65988629D01*
X78685476Y-65988629D02*
X78685476Y-66083867D01*
X78685476Y-66083867D02*
X78637857Y-66226724D01*
X78637857Y-66226724D02*
X78066429Y-66798153D01*
X78066429Y-66798153D02*
X78685476Y-66798153D01*
X79018810Y-65798153D02*
X79685476Y-65798153D01*
X79685476Y-65798153D02*
X79256905Y-66798153D01*
%TO.C,J31*%
X147835476Y-65798153D02*
X147835476Y-66512438D01*
X147835476Y-66512438D02*
X147787857Y-66655295D01*
X147787857Y-66655295D02*
X147692619Y-66750534D01*
X147692619Y-66750534D02*
X147549762Y-66798153D01*
X147549762Y-66798153D02*
X147454524Y-66798153D01*
X148216429Y-65798153D02*
X148835476Y-65798153D01*
X148835476Y-65798153D02*
X148502143Y-66179105D01*
X148502143Y-66179105D02*
X148645000Y-66179105D01*
X148645000Y-66179105D02*
X148740238Y-66226724D01*
X148740238Y-66226724D02*
X148787857Y-66274343D01*
X148787857Y-66274343D02*
X148835476Y-66369581D01*
X148835476Y-66369581D02*
X148835476Y-66607676D01*
X148835476Y-66607676D02*
X148787857Y-66702914D01*
X148787857Y-66702914D02*
X148740238Y-66750534D01*
X148740238Y-66750534D02*
X148645000Y-66798153D01*
X148645000Y-66798153D02*
X148359286Y-66798153D01*
X148359286Y-66798153D02*
X148264048Y-66750534D01*
X148264048Y-66750534D02*
X148216429Y-66702914D01*
X149787857Y-66798153D02*
X149216429Y-66798153D01*
X149502143Y-66798153D02*
X149502143Y-65798153D01*
X149502143Y-65798153D02*
X149406905Y-65941010D01*
X149406905Y-65941010D02*
X149311667Y-66036248D01*
X149311667Y-66036248D02*
X149216429Y-66083867D01*
%TO.C,J8*%
X167608056Y-30073512D02*
X167608056Y-30788816D01*
X167608056Y-30788816D02*
X167560370Y-30931877D01*
X167560370Y-30931877D02*
X167464996Y-31027251D01*
X167464996Y-31027251D02*
X167321935Y-31074937D01*
X167321935Y-31074937D02*
X167226561Y-31074937D01*
X168227986Y-30502695D02*
X168132612Y-30455008D01*
X168132612Y-30455008D02*
X168084925Y-30407321D01*
X168084925Y-30407321D02*
X168037238Y-30311947D01*
X168037238Y-30311947D02*
X168037238Y-30264260D01*
X168037238Y-30264260D02*
X168084925Y-30168886D01*
X168084925Y-30168886D02*
X168132612Y-30121199D01*
X168132612Y-30121199D02*
X168227986Y-30073512D01*
X168227986Y-30073512D02*
X168418733Y-30073512D01*
X168418733Y-30073512D02*
X168514107Y-30121199D01*
X168514107Y-30121199D02*
X168561794Y-30168886D01*
X168561794Y-30168886D02*
X168609481Y-30264260D01*
X168609481Y-30264260D02*
X168609481Y-30311947D01*
X168609481Y-30311947D02*
X168561794Y-30407321D01*
X168561794Y-30407321D02*
X168514107Y-30455008D01*
X168514107Y-30455008D02*
X168418733Y-30502695D01*
X168418733Y-30502695D02*
X168227986Y-30502695D01*
X168227986Y-30502695D02*
X168132612Y-30550381D01*
X168132612Y-30550381D02*
X168084925Y-30598068D01*
X168084925Y-30598068D02*
X168037238Y-30693442D01*
X168037238Y-30693442D02*
X168037238Y-30884190D01*
X168037238Y-30884190D02*
X168084925Y-30979564D01*
X168084925Y-30979564D02*
X168132612Y-31027251D01*
X168132612Y-31027251D02*
X168227986Y-31074937D01*
X168227986Y-31074937D02*
X168418733Y-31074937D01*
X168418733Y-31074937D02*
X168514107Y-31027251D01*
X168514107Y-31027251D02*
X168561794Y-30979564D01*
X168561794Y-30979564D02*
X168609481Y-30884190D01*
X168609481Y-30884190D02*
X168609481Y-30693442D01*
X168609481Y-30693442D02*
X168561794Y-30598068D01*
X168561794Y-30598068D02*
X168514107Y-30550381D01*
X168514107Y-30550381D02*
X168418733Y-30502695D01*
D11*
%TO.C,J13*%
X42150000Y-51156068D02*
X42150000Y-52526068D01*
X42150000Y-56056068D02*
X42150000Y-57426068D01*
X43616000Y-51156068D02*
X42150000Y-51156068D01*
X43616000Y-57426068D02*
X42150000Y-57426068D01*
X52850000Y-51156068D02*
X51384000Y-51156068D01*
X52850000Y-51156068D02*
X52850000Y-52526068D01*
X52850000Y-56056068D02*
X52850000Y-57426068D01*
X52850000Y-57426068D02*
X51384000Y-57426068D01*
X51383999Y-51156069D02*
G75*
G03*
X43616001Y-51156069I-3883999J-3148850D01*
G01*
X43616001Y-57426067D02*
G75*
G03*
X51383999Y-57426067I3883999J3148850D01*
G01*
D12*
%TO.C,J44*%
X165675000Y-87491068D02*
X165675000Y-97991068D01*
X168945000Y-84341068D02*
X168945000Y-85141068D01*
X168945000Y-84341068D02*
X169805000Y-84341068D01*
X169375000Y-97991068D02*
X165675000Y-97991068D01*
X169455000Y-87491068D02*
X165675000Y-87491068D01*
X174675000Y-87491068D02*
X170895000Y-87491068D01*
X174675000Y-87491068D02*
X174675000Y-97991068D01*
X174675000Y-97991068D02*
X170975000Y-97991068D01*
X171975000Y-91991068D02*
G75*
G03*
X171975000Y-91991068I-1800000J0D01*
G01*
%TO.C,J38*%
X60675000Y-87491068D02*
X60675000Y-97991068D01*
X63945000Y-84341068D02*
X63945000Y-85141068D01*
X63945000Y-84341068D02*
X64805000Y-84341068D01*
X64375000Y-97991068D02*
X60675000Y-97991068D01*
X64455000Y-87491068D02*
X60675000Y-87491068D01*
X69675000Y-87491068D02*
X65895000Y-87491068D01*
X69675000Y-87491068D02*
X69675000Y-97991068D01*
X69675000Y-97991068D02*
X65975000Y-97991068D01*
X66975000Y-91991068D02*
G75*
G03*
X66975000Y-91991068I-1800000J0D01*
G01*
D11*
%TO.C,J11*%
X217300000Y-33720534D02*
X217300000Y-35090534D01*
X217300000Y-38620534D02*
X217300000Y-39990534D01*
X218766000Y-33720534D02*
X217300000Y-33720534D01*
X218766000Y-39990534D02*
X217300000Y-39990534D01*
X228000000Y-33720534D02*
X226534000Y-33720534D01*
X228000000Y-33720534D02*
X228000000Y-35090534D01*
X228000000Y-38620534D02*
X228000000Y-39990534D01*
X228000000Y-39990534D02*
X226534000Y-39990534D01*
X226533999Y-33720535D02*
G75*
G03*
X218766001Y-33720535I-3883999J-3148850D01*
G01*
X218766001Y-39990533D02*
G75*
G03*
X226533999Y-39990533I3883999J3148850D01*
G01*
D12*
%TO.C,J26*%
X60675000Y-67235534D02*
X60675000Y-77735534D01*
X63945000Y-64085534D02*
X63945000Y-64885534D01*
X63945000Y-64085534D02*
X64805000Y-64085534D01*
X64375000Y-77735534D02*
X60675000Y-77735534D01*
X64455000Y-67235534D02*
X60675000Y-67235534D01*
X69675000Y-67235534D02*
X65895000Y-67235534D01*
X69675000Y-67235534D02*
X69675000Y-77735534D01*
X69675000Y-77735534D02*
X65975000Y-77735534D01*
X66975000Y-71735534D02*
G75*
G03*
X66975000Y-71735534I-1800000J0D01*
G01*
D11*
%TO.C,J4*%
X94800000Y-33720534D02*
X94800000Y-35090534D01*
X94800000Y-38620534D02*
X94800000Y-39990534D01*
X96266000Y-33720534D02*
X94800000Y-33720534D01*
X96266000Y-39990534D02*
X94800000Y-39990534D01*
X105500000Y-33720534D02*
X104034000Y-33720534D01*
X105500000Y-33720534D02*
X105500000Y-35090534D01*
X105500000Y-38620534D02*
X105500000Y-39990534D01*
X105500000Y-39990534D02*
X104034000Y-39990534D01*
X104033999Y-33720535D02*
G75*
G03*
X96266001Y-33720535I-3883999J-3148850D01*
G01*
X96266001Y-39990533D02*
G75*
G03*
X104033999Y-39990533I3883999J3148850D01*
G01*
%TO.C,J12*%
X234800000Y-33720534D02*
X234800000Y-35090534D01*
X234800000Y-38620534D02*
X234800000Y-39990534D01*
X236266000Y-33720534D02*
X234800000Y-33720534D01*
X236266000Y-39990534D02*
X234800000Y-39990534D01*
X245500000Y-33720534D02*
X244034000Y-33720534D01*
X245500000Y-33720534D02*
X245500000Y-35090534D01*
X245500000Y-38620534D02*
X245500000Y-39990534D01*
X245500000Y-39990534D02*
X244034000Y-39990534D01*
X244033999Y-33720535D02*
G75*
G03*
X236266001Y-33720535I-3883999J-3148850D01*
G01*
X236266001Y-39990533D02*
G75*
G03*
X244033999Y-39990533I3883999J3148850D01*
G01*
D12*
%TO.C,J36*%
X235675000Y-67235534D02*
X235675000Y-77735534D01*
X238945000Y-64085534D02*
X238945000Y-64885534D01*
X238945000Y-64085534D02*
X239805000Y-64085534D01*
X239375000Y-77735534D02*
X235675000Y-77735534D01*
X239455000Y-67235534D02*
X235675000Y-67235534D01*
X244675000Y-67235534D02*
X240895000Y-67235534D01*
X244675000Y-67235534D02*
X244675000Y-77735534D01*
X244675000Y-77735534D02*
X240975000Y-77735534D01*
X241975000Y-71735534D02*
G75*
G03*
X241975000Y-71735534I-1800000J0D01*
G01*
D11*
%TO.C,J1*%
X42150000Y-33720534D02*
X42150000Y-35090534D01*
X42150000Y-38620534D02*
X42150000Y-39990534D01*
X43616000Y-33720534D02*
X42150000Y-33720534D01*
X43616000Y-39990534D02*
X42150000Y-39990534D01*
X52850000Y-33720534D02*
X51384000Y-33720534D01*
X52850000Y-33720534D02*
X52850000Y-35090534D01*
X52850000Y-38620534D02*
X52850000Y-39990534D01*
X52850000Y-39990534D02*
X51384000Y-39990534D01*
X51383999Y-33720535D02*
G75*
G03*
X43616001Y-33720535I-3883999J-3148850D01*
G01*
X43616001Y-39990533D02*
G75*
G03*
X51383999Y-39990533I3883999J3148850D01*
G01*
D12*
%TO.C,J45*%
X183175000Y-87491068D02*
X183175000Y-97991068D01*
X186445000Y-84341068D02*
X186445000Y-85141068D01*
X186445000Y-84341068D02*
X187305000Y-84341068D01*
X186875000Y-97991068D02*
X183175000Y-97991068D01*
X186955000Y-87491068D02*
X183175000Y-87491068D01*
X192175000Y-87491068D02*
X188395000Y-87491068D01*
X192175000Y-87491068D02*
X192175000Y-97991068D01*
X192175000Y-97991068D02*
X188475000Y-97991068D01*
X189475000Y-91991068D02*
G75*
G03*
X189475000Y-91991068I-1800000J0D01*
G01*
D11*
%TO.C,J10*%
X199800000Y-33720534D02*
X199800000Y-35090534D01*
X199800000Y-38620534D02*
X199800000Y-39990534D01*
X201266000Y-33720534D02*
X199800000Y-33720534D01*
X201266000Y-39990534D02*
X199800000Y-39990534D01*
X210500000Y-33720534D02*
X209034000Y-33720534D01*
X210500000Y-33720534D02*
X210500000Y-35090534D01*
X210500000Y-38620534D02*
X210500000Y-39990534D01*
X210500000Y-39990534D02*
X209034000Y-39990534D01*
X209033999Y-33720535D02*
G75*
G03*
X201266001Y-33720535I-3883999J-3148850D01*
G01*
X201266001Y-39990533D02*
G75*
G03*
X209033999Y-39990533I3883999J3148850D01*
G01*
D12*
%TO.C,J33*%
X183175000Y-67235534D02*
X183175000Y-77735534D01*
X186445000Y-64085534D02*
X186445000Y-64885534D01*
X186445000Y-64085534D02*
X187305000Y-64085534D01*
X186875000Y-77735534D02*
X183175000Y-77735534D01*
X186955000Y-67235534D02*
X183175000Y-67235534D01*
X192175000Y-67235534D02*
X188395000Y-67235534D01*
X192175000Y-67235534D02*
X192175000Y-77735534D01*
X192175000Y-77735534D02*
X188475000Y-77735534D01*
X189475000Y-71735534D02*
G75*
G03*
X189475000Y-71735534I-1800000J0D01*
G01*
D11*
%TO.C,J17*%
X112300000Y-51156068D02*
X112300000Y-52526068D01*
X112300000Y-56056068D02*
X112300000Y-57426068D01*
X113766000Y-51156068D02*
X112300000Y-51156068D01*
X113766000Y-57426068D02*
X112300000Y-57426068D01*
X123000000Y-51156068D02*
X121534000Y-51156068D01*
X123000000Y-51156068D02*
X123000000Y-52526068D01*
X123000000Y-56056068D02*
X123000000Y-57426068D01*
X123000000Y-57426068D02*
X121534000Y-57426068D01*
X121533999Y-51156069D02*
G75*
G03*
X113766001Y-51156069I-3883999J-3148850D01*
G01*
X113766001Y-57426067D02*
G75*
G03*
X121533999Y-57426067I3883999J3148850D01*
G01*
%TO.C,J6*%
X129800000Y-33720534D02*
X129800000Y-35090534D01*
X129800000Y-38620534D02*
X129800000Y-39990534D01*
X131266000Y-33720534D02*
X129800000Y-33720534D01*
X131266000Y-39990534D02*
X129800000Y-39990534D01*
X140500000Y-33720534D02*
X139034000Y-33720534D01*
X140500000Y-33720534D02*
X140500000Y-35090534D01*
X140500000Y-38620534D02*
X140500000Y-39990534D01*
X140500000Y-39990534D02*
X139034000Y-39990534D01*
X139033999Y-33720535D02*
G75*
G03*
X131266001Y-33720535I-3883999J-3148850D01*
G01*
X131266001Y-39990533D02*
G75*
G03*
X139033999Y-39990533I3883999J3148850D01*
G01*
%TO.C,J20*%
X164800000Y-51156068D02*
X164800000Y-52526068D01*
X164800000Y-56056068D02*
X164800000Y-57426068D01*
X166266000Y-51156068D02*
X164800000Y-51156068D01*
X166266000Y-57426068D02*
X164800000Y-57426068D01*
X175500000Y-51156068D02*
X174034000Y-51156068D01*
X175500000Y-51156068D02*
X175500000Y-52526068D01*
X175500000Y-56056068D02*
X175500000Y-57426068D01*
X175500000Y-57426068D02*
X174034000Y-57426068D01*
X174033999Y-51156069D02*
G75*
G03*
X166266001Y-51156069I-3883999J-3148850D01*
G01*
X166266001Y-57426067D02*
G75*
G03*
X174033999Y-57426067I3883999J3148850D01*
G01*
%TO.C,J16*%
X94800000Y-51156068D02*
X94800000Y-52526068D01*
X94800000Y-56056068D02*
X94800000Y-57426068D01*
X96266000Y-51156068D02*
X94800000Y-51156068D01*
X96266000Y-57426068D02*
X94800000Y-57426068D01*
X105500000Y-51156068D02*
X104034000Y-51156068D01*
X105500000Y-51156068D02*
X105500000Y-52526068D01*
X105500000Y-56056068D02*
X105500000Y-57426068D01*
X105500000Y-57426068D02*
X104034000Y-57426068D01*
X104033999Y-51156069D02*
G75*
G03*
X96266001Y-51156069I-3883999J-3148850D01*
G01*
X96266001Y-57426067D02*
G75*
G03*
X104033999Y-57426067I3883999J3148850D01*
G01*
%TO.C,J18*%
X129800000Y-51156068D02*
X129800000Y-52526068D01*
X129800000Y-56056068D02*
X129800000Y-57426068D01*
X131266000Y-51156068D02*
X129800000Y-51156068D01*
X131266000Y-57426068D02*
X129800000Y-57426068D01*
X140500000Y-51156068D02*
X139034000Y-51156068D01*
X140500000Y-51156068D02*
X140500000Y-52526068D01*
X140500000Y-56056068D02*
X140500000Y-57426068D01*
X140500000Y-57426068D02*
X139034000Y-57426068D01*
X139033999Y-51156069D02*
G75*
G03*
X131266001Y-51156069I-3883999J-3148850D01*
G01*
X131266001Y-57426067D02*
G75*
G03*
X139033999Y-57426067I3883999J3148850D01*
G01*
D12*
%TO.C,J41*%
X113175000Y-87491068D02*
X113175000Y-97991068D01*
X116445000Y-84341068D02*
X116445000Y-85141068D01*
X116445000Y-84341068D02*
X117305000Y-84341068D01*
X116875000Y-97991068D02*
X113175000Y-97991068D01*
X116955000Y-87491068D02*
X113175000Y-87491068D01*
X122175000Y-87491068D02*
X118395000Y-87491068D01*
X122175000Y-87491068D02*
X122175000Y-97991068D01*
X122175000Y-97991068D02*
X118475000Y-97991068D01*
X119475000Y-91991068D02*
G75*
G03*
X119475000Y-91991068I-1800000J0D01*
G01*
%TO.C,J29*%
X113175000Y-67235534D02*
X113175000Y-77735534D01*
X116445000Y-64085534D02*
X116445000Y-64885534D01*
X116445000Y-64085534D02*
X117305000Y-64085534D01*
X116875000Y-77735534D02*
X113175000Y-77735534D01*
X116955000Y-67235534D02*
X113175000Y-67235534D01*
X122175000Y-67235534D02*
X118395000Y-67235534D01*
X122175000Y-67235534D02*
X122175000Y-77735534D01*
X122175000Y-77735534D02*
X118475000Y-77735534D01*
X119475000Y-71735534D02*
G75*
G03*
X119475000Y-71735534I-1800000J0D01*
G01*
%TO.C,J46*%
X200675000Y-87491068D02*
X200675000Y-97991068D01*
X203945000Y-84341068D02*
X203945000Y-85141068D01*
X203945000Y-84341068D02*
X204805000Y-84341068D01*
X204375000Y-97991068D02*
X200675000Y-97991068D01*
X204455000Y-87491068D02*
X200675000Y-87491068D01*
X209675000Y-87491068D02*
X205895000Y-87491068D01*
X209675000Y-87491068D02*
X209675000Y-97991068D01*
X209675000Y-97991068D02*
X205975000Y-97991068D01*
X206975000Y-91991068D02*
G75*
G03*
X206975000Y-91991068I-1800000J0D01*
G01*
%TO.C,J34*%
X200675000Y-67235534D02*
X200675000Y-77735534D01*
X203945000Y-64085534D02*
X203945000Y-64885534D01*
X203945000Y-64085534D02*
X204805000Y-64085534D01*
X204375000Y-77735534D02*
X200675000Y-77735534D01*
X204455000Y-67235534D02*
X200675000Y-67235534D01*
X209675000Y-67235534D02*
X205895000Y-67235534D01*
X209675000Y-67235534D02*
X209675000Y-77735534D01*
X209675000Y-77735534D02*
X205975000Y-77735534D01*
X206975000Y-71735534D02*
G75*
G03*
X206975000Y-71735534I-1800000J0D01*
G01*
%TO.C,J47*%
X218175000Y-87491068D02*
X218175000Y-97991068D01*
X221445000Y-84341068D02*
X221445000Y-85141068D01*
X221445000Y-84341068D02*
X222305000Y-84341068D01*
X221875000Y-97991068D02*
X218175000Y-97991068D01*
X221955000Y-87491068D02*
X218175000Y-87491068D01*
X227175000Y-87491068D02*
X223395000Y-87491068D01*
X227175000Y-87491068D02*
X227175000Y-97991068D01*
X227175000Y-97991068D02*
X223475000Y-97991068D01*
X224475000Y-91991068D02*
G75*
G03*
X224475000Y-91991068I-1800000J0D01*
G01*
%TO.C,J43*%
X148175000Y-87491068D02*
X148175000Y-97991068D01*
X151445000Y-84341068D02*
X151445000Y-85141068D01*
X151445000Y-84341068D02*
X152305000Y-84341068D01*
X151875000Y-97991068D02*
X148175000Y-97991068D01*
X151955000Y-87491068D02*
X148175000Y-87491068D01*
X157175000Y-87491068D02*
X153395000Y-87491068D01*
X157175000Y-87491068D02*
X157175000Y-97991068D01*
X157175000Y-97991068D02*
X153475000Y-97991068D01*
X154475000Y-91991068D02*
G75*
G03*
X154475000Y-91991068I-1800000J0D01*
G01*
D11*
%TO.C,J2*%
X59800000Y-33720534D02*
X59800000Y-35090534D01*
X59800000Y-38620534D02*
X59800000Y-39990534D01*
X61266000Y-33720534D02*
X59800000Y-33720534D01*
X61266000Y-39990534D02*
X59800000Y-39990534D01*
X70500000Y-33720534D02*
X69034000Y-33720534D01*
X70500000Y-33720534D02*
X70500000Y-35090534D01*
X70500000Y-38620534D02*
X70500000Y-39990534D01*
X70500000Y-39990534D02*
X69034000Y-39990534D01*
X69033999Y-33720535D02*
G75*
G03*
X61266001Y-33720535I-3883999J-3148850D01*
G01*
X61266001Y-39990533D02*
G75*
G03*
X69033999Y-39990533I3883999J3148850D01*
G01*
D12*
%TO.C,J35*%
X218175000Y-67235534D02*
X218175000Y-77735534D01*
X221445000Y-64085534D02*
X221445000Y-64885534D01*
X221445000Y-64085534D02*
X222305000Y-64085534D01*
X221875000Y-77735534D02*
X218175000Y-77735534D01*
X221955000Y-67235534D02*
X218175000Y-67235534D01*
X227175000Y-67235534D02*
X223395000Y-67235534D01*
X227175000Y-67235534D02*
X227175000Y-77735534D01*
X227175000Y-77735534D02*
X223475000Y-77735534D01*
X224475000Y-71735534D02*
G75*
G03*
X224475000Y-71735534I-1800000J0D01*
G01*
%TO.C,J28*%
X95675000Y-67235534D02*
X95675000Y-77735534D01*
X98945000Y-64085534D02*
X98945000Y-64885534D01*
X98945000Y-64085534D02*
X99805000Y-64085534D01*
X99375000Y-77735534D02*
X95675000Y-77735534D01*
X99455000Y-67235534D02*
X95675000Y-67235534D01*
X104675000Y-67235534D02*
X100895000Y-67235534D01*
X104675000Y-67235534D02*
X104675000Y-77735534D01*
X104675000Y-77735534D02*
X100975000Y-77735534D01*
X101975000Y-71735534D02*
G75*
G03*
X101975000Y-71735534I-1800000J0D01*
G01*
%TO.C,J37*%
X43025000Y-87491068D02*
X43025000Y-97991068D01*
X46295000Y-84341068D02*
X46295000Y-85141068D01*
X46295000Y-84341068D02*
X47155000Y-84341068D01*
X46725000Y-97991068D02*
X43025000Y-97991068D01*
X46805000Y-87491068D02*
X43025000Y-87491068D01*
X52025000Y-87491068D02*
X48245000Y-87491068D01*
X52025000Y-87491068D02*
X52025000Y-97991068D01*
X52025000Y-97991068D02*
X48325000Y-97991068D01*
X49325000Y-91991068D02*
G75*
G03*
X49325000Y-91991068I-1800000J0D01*
G01*
%TO.C,J48*%
X235675000Y-87491068D02*
X235675000Y-97991068D01*
X238945000Y-84341068D02*
X238945000Y-85141068D01*
X238945000Y-84341068D02*
X239805000Y-84341068D01*
X239375000Y-97991068D02*
X235675000Y-97991068D01*
X239455000Y-87491068D02*
X235675000Y-87491068D01*
X244675000Y-87491068D02*
X240895000Y-87491068D01*
X244675000Y-87491068D02*
X244675000Y-97991068D01*
X244675000Y-97991068D02*
X240975000Y-97991068D01*
X241975000Y-91991068D02*
G75*
G03*
X241975000Y-91991068I-1800000J0D01*
G01*
D11*
%TO.C,J22*%
X199800000Y-51156068D02*
X199800000Y-52526068D01*
X199800000Y-56056068D02*
X199800000Y-57426068D01*
X201266000Y-51156068D02*
X199800000Y-51156068D01*
X201266000Y-57426068D02*
X199800000Y-57426068D01*
X210500000Y-51156068D02*
X209034000Y-51156068D01*
X210500000Y-51156068D02*
X210500000Y-52526068D01*
X210500000Y-56056068D02*
X210500000Y-57426068D01*
X210500000Y-57426068D02*
X209034000Y-57426068D01*
X209033999Y-51156069D02*
G75*
G03*
X201266001Y-51156069I-3883999J-3148850D01*
G01*
X201266001Y-57426067D02*
G75*
G03*
X209033999Y-57426067I3883999J3148850D01*
G01*
D12*
%TO.C,J40*%
X95675000Y-87491068D02*
X95675000Y-97991068D01*
X98945000Y-84341068D02*
X98945000Y-85141068D01*
X98945000Y-84341068D02*
X99805000Y-84341068D01*
X99375000Y-97991068D02*
X95675000Y-97991068D01*
X99455000Y-87491068D02*
X95675000Y-87491068D01*
X104675000Y-87491068D02*
X100895000Y-87491068D01*
X104675000Y-87491068D02*
X104675000Y-97991068D01*
X104675000Y-97991068D02*
X100975000Y-97991068D01*
X101975000Y-91991068D02*
G75*
G03*
X101975000Y-91991068I-1800000J0D01*
G01*
D11*
%TO.C,J21*%
X182300000Y-51156068D02*
X182300000Y-52526068D01*
X182300000Y-56056068D02*
X182300000Y-57426068D01*
X183766000Y-51156068D02*
X182300000Y-51156068D01*
X183766000Y-57426068D02*
X182300000Y-57426068D01*
X193000000Y-51156068D02*
X191534000Y-51156068D01*
X193000000Y-51156068D02*
X193000000Y-52526068D01*
X193000000Y-56056068D02*
X193000000Y-57426068D01*
X193000000Y-57426068D02*
X191534000Y-57426068D01*
X191533999Y-51156069D02*
G75*
G03*
X183766001Y-51156069I-3883999J-3148850D01*
G01*
X183766001Y-57426067D02*
G75*
G03*
X191533999Y-57426067I3883999J3148850D01*
G01*
D12*
%TO.C,J42*%
X130675000Y-87491068D02*
X130675000Y-97991068D01*
X133945000Y-84341068D02*
X133945000Y-85141068D01*
X133945000Y-84341068D02*
X134805000Y-84341068D01*
X134375000Y-97991068D02*
X130675000Y-97991068D01*
X134455000Y-87491068D02*
X130675000Y-87491068D01*
X139675000Y-87491068D02*
X135895000Y-87491068D01*
X139675000Y-87491068D02*
X139675000Y-97991068D01*
X139675000Y-97991068D02*
X135975000Y-97991068D01*
X136975000Y-91991068D02*
G75*
G03*
X136975000Y-91991068I-1800000J0D01*
G01*
%TO.C,J39*%
X78025000Y-87491068D02*
X78025000Y-97991068D01*
X81295000Y-84341068D02*
X81295000Y-85141068D01*
X81295000Y-84341068D02*
X82155000Y-84341068D01*
X81725000Y-97991068D02*
X78025000Y-97991068D01*
X81805000Y-87491068D02*
X78025000Y-87491068D01*
X87025000Y-87491068D02*
X83245000Y-87491068D01*
X87025000Y-87491068D02*
X87025000Y-97991068D01*
X87025000Y-97991068D02*
X83325000Y-97991068D01*
X84325000Y-91991068D02*
G75*
G03*
X84325000Y-91991068I-1800000J0D01*
G01*
%TO.C,J25*%
X43025000Y-67235534D02*
X43025000Y-77735534D01*
X46295000Y-64085534D02*
X46295000Y-64885534D01*
X46295000Y-64085534D02*
X47155000Y-64085534D01*
X46725000Y-77735534D02*
X43025000Y-77735534D01*
X46805000Y-67235534D02*
X43025000Y-67235534D01*
X52025000Y-67235534D02*
X48245000Y-67235534D01*
X52025000Y-67235534D02*
X52025000Y-77735534D01*
X52025000Y-77735534D02*
X48325000Y-77735534D01*
X49325000Y-71735534D02*
G75*
G03*
X49325000Y-71735534I-1800000J0D01*
G01*
%TO.C,J32*%
X165675000Y-67235534D02*
X165675000Y-77735534D01*
X168945000Y-64085534D02*
X168945000Y-64885534D01*
X168945000Y-64085534D02*
X169805000Y-64085534D01*
X169375000Y-77735534D02*
X165675000Y-77735534D01*
X169455000Y-67235534D02*
X165675000Y-67235534D01*
X174675000Y-67235534D02*
X170895000Y-67235534D01*
X174675000Y-67235534D02*
X174675000Y-77735534D01*
X174675000Y-77735534D02*
X170975000Y-77735534D01*
X171975000Y-71735534D02*
G75*
G03*
X171975000Y-71735534I-1800000J0D01*
G01*
%TO.C,G\u002A\u002A\u002A*%
G36*
X51608485Y-22413939D02*
G01*
X51608485Y-22721818D01*
X46259091Y-22721818D01*
X40909697Y-22721818D01*
X40909697Y-22413939D01*
X40909697Y-22106061D01*
X46259091Y-22106061D01*
X51608485Y-22106061D01*
X51608485Y-22413939D01*
G37*
G36*
X51608485Y-23222121D02*
G01*
X51608485Y-23491515D01*
X46259091Y-23491515D01*
X40909697Y-23491515D01*
X40909697Y-23222121D01*
X40909697Y-22952727D01*
X46259091Y-22952727D01*
X51608485Y-22952727D01*
X51608485Y-23222121D01*
G37*
G36*
X51608485Y-23991818D02*
G01*
X51608485Y-24261212D01*
X46259091Y-24261212D01*
X40909697Y-24261212D01*
X40909697Y-23991818D01*
X40909697Y-23722424D01*
X46259091Y-23722424D01*
X51608485Y-23722424D01*
X51608485Y-23991818D01*
G37*
G36*
X51608485Y-24800000D02*
G01*
X51608485Y-25107879D01*
X46259091Y-25107879D01*
X40909697Y-25107879D01*
X40909697Y-24800000D01*
X40909697Y-24492121D01*
X46259091Y-24492121D01*
X51608485Y-24492121D01*
X51608485Y-24800000D01*
G37*
G36*
X51608485Y-25608182D02*
G01*
X51608485Y-25877576D01*
X46259091Y-25877576D01*
X40909697Y-25877576D01*
X40909697Y-25608182D01*
X40909697Y-25338788D01*
X46259091Y-25338788D01*
X51608485Y-25338788D01*
X51608485Y-25608182D01*
G37*
G36*
X51608485Y-26377879D02*
G01*
X51608485Y-26647273D01*
X46259091Y-26647273D01*
X40909697Y-26647273D01*
X40909697Y-26377879D01*
X40909697Y-26108485D01*
X46259091Y-26108485D01*
X51608485Y-26108485D01*
X51608485Y-26377879D01*
G37*
G36*
X51608485Y-27186061D02*
G01*
X51608485Y-27493939D01*
X46259091Y-27493939D01*
X40909697Y-27493939D01*
X40909697Y-27186061D01*
X40909697Y-26878182D01*
X46259091Y-26878182D01*
X51608485Y-26878182D01*
X51608485Y-27186061D01*
G37*
G36*
X53903210Y-22356212D02*
G01*
X53879091Y-22606364D01*
X53128637Y-22628393D01*
X52378182Y-22650423D01*
X52378182Y-22378242D01*
X52378182Y-22106061D01*
X53152756Y-22106061D01*
X53927329Y-22106061D01*
X53903210Y-22356212D01*
G37*
G36*
X54687273Y-24761515D02*
G01*
X54687273Y-25030909D01*
X53532728Y-25030909D01*
X52378182Y-25030909D01*
X52378182Y-24761515D01*
X52378182Y-24492121D01*
X53532728Y-24492121D01*
X54687273Y-24492121D01*
X54687273Y-24761515D01*
G37*
G36*
X56669243Y-24509306D02*
G01*
X57804546Y-24530606D01*
X57828665Y-24780758D01*
X57852784Y-25030909D01*
X56693362Y-25030909D01*
X55533940Y-25030909D01*
X55533940Y-24759458D01*
X55533940Y-24488006D01*
X56669243Y-24509306D01*
G37*
G36*
X57804546Y-23953333D02*
G01*
X57804546Y-24222727D01*
X57049275Y-24244815D01*
X56294005Y-24266903D01*
X56318063Y-23975421D01*
X56342121Y-23683939D01*
X57073334Y-23683939D01*
X57804546Y-23683939D01*
X57804546Y-23953333D01*
G37*
G36*
X57828665Y-22356212D02*
G01*
X57804546Y-22606364D01*
X57054091Y-22628393D01*
X56303637Y-22650423D01*
X56303637Y-22378242D01*
X56303637Y-22106061D01*
X57078210Y-22106061D01*
X57852784Y-22106061D01*
X57828665Y-22356212D01*
G37*
G36*
X63365606Y-24508576D02*
G01*
X64116061Y-24530606D01*
X64116061Y-24761515D01*
X64116061Y-24992424D01*
X63365606Y-25014454D01*
X62615152Y-25036484D01*
X62615152Y-24761515D01*
X62615152Y-24486547D01*
X63365606Y-24508576D01*
G37*
G36*
X67214091Y-26124940D02*
G01*
X67964546Y-26146970D01*
X67988665Y-26397121D01*
X68012784Y-26647273D01*
X67238210Y-26647273D01*
X66463637Y-26647273D01*
X66463637Y-26375092D01*
X66463637Y-26102910D01*
X67214091Y-26124940D01*
G37*
G36*
X67964546Y-23953333D02*
G01*
X67964546Y-24222727D01*
X67209275Y-24244815D01*
X66454005Y-24266903D01*
X66478063Y-23975421D01*
X66502121Y-23683939D01*
X67233334Y-23683939D01*
X67964546Y-23683939D01*
X67964546Y-23953333D01*
G37*
G36*
X67964546Y-25569697D02*
G01*
X67964546Y-25839091D01*
X67209275Y-25861179D01*
X66454005Y-25883266D01*
X66478063Y-25591785D01*
X66502121Y-25300303D01*
X67233334Y-25300303D01*
X67964546Y-25300303D01*
X67964546Y-25569697D01*
G37*
G36*
X68791970Y-22124174D02*
G01*
X71120303Y-22144546D01*
X71120303Y-22375455D01*
X71120303Y-22606364D01*
X68791970Y-22626735D01*
X66463637Y-22647106D01*
X66463637Y-22375455D01*
X66463637Y-22103803D01*
X68791970Y-22124174D01*
G37*
G36*
X68791970Y-24510235D02*
G01*
X71120303Y-24530606D01*
X71120303Y-24761515D01*
X71120303Y-24992424D01*
X68791970Y-25012795D01*
X66463637Y-25033166D01*
X66463637Y-24761515D01*
X66463637Y-24489864D01*
X68791970Y-24510235D01*
G37*
G36*
X71120303Y-27186061D02*
G01*
X71120303Y-27455455D01*
X68787256Y-27475833D01*
X66454209Y-27496211D01*
X66478165Y-27206439D01*
X66502121Y-26916667D01*
X68811212Y-26916667D01*
X71120303Y-26916667D01*
X71120303Y-27186061D01*
G37*
G36*
X71890000Y-23953333D02*
G01*
X71890000Y-24222727D01*
X71134730Y-24244815D01*
X70379459Y-24266903D01*
X70403518Y-23975421D01*
X70427576Y-23683939D01*
X71158788Y-23683939D01*
X71890000Y-23683939D01*
X71890000Y-23953333D01*
G37*
G36*
X71890000Y-25569697D02*
G01*
X71890000Y-25839091D01*
X71134730Y-25861179D01*
X70379459Y-25883266D01*
X70403518Y-25591785D01*
X70427576Y-25300303D01*
X71158788Y-25300303D01*
X71890000Y-25300303D01*
X71890000Y-25569697D01*
G37*
G36*
X71928485Y-26377879D02*
G01*
X71928485Y-26647273D01*
X71158788Y-26647273D01*
X70389091Y-26647273D01*
X70389091Y-26377879D01*
X70389091Y-26108485D01*
X71158788Y-26108485D01*
X71928485Y-26108485D01*
X71928485Y-26377879D01*
G37*
G36*
X77451061Y-22122516D02*
G01*
X78201515Y-22144546D01*
X78201515Y-22375455D01*
X78201515Y-22606364D01*
X77451061Y-22628393D01*
X76700606Y-22650423D01*
X76700606Y-22375455D01*
X76700606Y-22100486D01*
X77451061Y-22122516D01*
G37*
G36*
X77451061Y-24508576D02*
G01*
X78201515Y-24530606D01*
X78201515Y-24761515D01*
X78201515Y-24992424D01*
X77451061Y-25014454D01*
X76700606Y-25036484D01*
X76700606Y-24761515D01*
X76700606Y-24486547D01*
X77451061Y-24508576D01*
G37*
G36*
X77451061Y-26124940D02*
G01*
X78201515Y-26146970D01*
X78201515Y-26377879D01*
X78201515Y-26608788D01*
X77451061Y-26630818D01*
X76700606Y-26652847D01*
X76700606Y-26377879D01*
X76700606Y-26102910D01*
X77451061Y-26124940D01*
G37*
G36*
X78201515Y-25569697D02*
G01*
X78201515Y-25839091D01*
X77446245Y-25861179D01*
X76690974Y-25883266D01*
X76715033Y-25591785D01*
X76739091Y-25300303D01*
X77470303Y-25300303D01*
X78201515Y-25300303D01*
X78201515Y-25569697D01*
G37*
G36*
X86860606Y-24758728D02*
G01*
X86860606Y-25030909D01*
X86086033Y-25030909D01*
X85311459Y-25030909D01*
X85335578Y-24780758D01*
X85359697Y-24530606D01*
X86110152Y-24508576D01*
X86860606Y-24486547D01*
X86860606Y-24758728D01*
G37*
G36*
X90016364Y-26375092D02*
G01*
X90016364Y-26647273D01*
X89241790Y-26647273D01*
X88467217Y-26647273D01*
X88491336Y-26397121D01*
X88515455Y-26146970D01*
X89265909Y-26124940D01*
X90016364Y-26102910D01*
X90016364Y-26375092D01*
G37*
G36*
X247265455Y-22413939D02*
G01*
X247265455Y-22721818D01*
X172450909Y-22721818D01*
X97636364Y-22721818D01*
X97636364Y-22413939D01*
X97636364Y-22106061D01*
X172450909Y-22106061D01*
X247265455Y-22106061D01*
X247265455Y-22413939D01*
G37*
G36*
X247265455Y-23222121D02*
G01*
X247265455Y-23491515D01*
X172450909Y-23491515D01*
X97636364Y-23491515D01*
X97636364Y-23222121D01*
X97636364Y-22952727D01*
X172450909Y-22952727D01*
X247265455Y-22952727D01*
X247265455Y-23222121D01*
G37*
G36*
X247265455Y-23991818D02*
G01*
X247265455Y-24261212D01*
X172450909Y-24261212D01*
X97636364Y-24261212D01*
X97636364Y-23991818D01*
X97636364Y-23722424D01*
X172450909Y-23722424D01*
X247265455Y-23722424D01*
X247265455Y-23991818D01*
G37*
G36*
X247265455Y-24800000D02*
G01*
X247265455Y-25107879D01*
X172450909Y-25107879D01*
X97636364Y-25107879D01*
X97636364Y-24800000D01*
X97636364Y-24492121D01*
X172450909Y-24492121D01*
X247265455Y-24492121D01*
X247265455Y-24800000D01*
G37*
G36*
X247265455Y-25608182D02*
G01*
X247265455Y-25877576D01*
X172450909Y-25877576D01*
X97636364Y-25877576D01*
X97636364Y-25608182D01*
X97636364Y-25338788D01*
X172450909Y-25338788D01*
X247265455Y-25338788D01*
X247265455Y-25608182D01*
G37*
G36*
X247265455Y-26377879D02*
G01*
X247265455Y-26647273D01*
X172450909Y-26647273D01*
X97636364Y-26647273D01*
X97636364Y-26377879D01*
X97636364Y-26108485D01*
X172450909Y-26108485D01*
X247265455Y-26108485D01*
X247265455Y-26377879D01*
G37*
G36*
X247265455Y-27186061D02*
G01*
X247265455Y-27493939D01*
X172450909Y-27493939D01*
X97636364Y-27493939D01*
X97636364Y-27186061D01*
X97636364Y-26878182D01*
X172450909Y-26878182D01*
X247265455Y-26878182D01*
X247265455Y-27186061D01*
G37*
G36*
X53656467Y-23666352D02*
G01*
X53816072Y-23713102D01*
X53891615Y-23799814D01*
X53906107Y-23934436D01*
X53903013Y-23975217D01*
X53879091Y-24222727D01*
X53123821Y-24244815D01*
X52368550Y-24266903D01*
X52392609Y-23975421D01*
X52416667Y-23683939D01*
X52993033Y-23660955D01*
X53389791Y-23651619D01*
X53656467Y-23666352D01*
G37*
G36*
X97097576Y-22375455D02*
G01*
X97097576Y-22644849D01*
X96379192Y-22644849D01*
X96060563Y-22639674D01*
X95802528Y-22625795D01*
X95642098Y-22605680D01*
X95609495Y-22593535D01*
X95571896Y-22485878D01*
X95558182Y-22324141D01*
X95558182Y-22106061D01*
X96327879Y-22106061D01*
X97097576Y-22106061D01*
X97097576Y-22375455D01*
G37*
G36*
X53128637Y-22892213D02*
G01*
X53879091Y-22914243D01*
X53879091Y-23183636D01*
X53879091Y-23453030D01*
X53182633Y-23474956D01*
X52868794Y-23479048D01*
X52615409Y-23471533D01*
X52460298Y-23454027D01*
X52432178Y-23442885D01*
X52395246Y-23335372D01*
X52378300Y-23146792D01*
X52378182Y-23129536D01*
X52378182Y-22870183D01*
X53128637Y-22892213D01*
G37*
G36*
X67214091Y-22892213D02*
G01*
X67964546Y-22914243D01*
X67964546Y-23183636D01*
X67964546Y-23453030D01*
X67268087Y-23474956D01*
X66954248Y-23479048D01*
X66700864Y-23471533D01*
X66545753Y-23454027D01*
X66517633Y-23442885D01*
X66480701Y-23335372D01*
X66463754Y-23146792D01*
X66463637Y-23129536D01*
X66463637Y-22870183D01*
X67214091Y-22892213D01*
G37*
G36*
X77451061Y-22892213D02*
G01*
X78201515Y-22914243D01*
X78201515Y-23183636D01*
X78201515Y-23453030D01*
X77505057Y-23474956D01*
X77191218Y-23479048D01*
X76937833Y-23471533D01*
X76782722Y-23454027D01*
X76754603Y-23442885D01*
X76717671Y-23335372D01*
X76700724Y-23146792D01*
X76700606Y-23129536D01*
X76700606Y-22870183D01*
X77451061Y-22892213D01*
G37*
G36*
X55084462Y-26892286D02*
G01*
X55101092Y-26893474D01*
X55303204Y-26917444D01*
X55398605Y-26978418D01*
X55434405Y-27119442D01*
X55442374Y-27205303D01*
X55466263Y-27493939D01*
X55120896Y-27493939D01*
X54892232Y-27478988D01*
X54778421Y-27425240D01*
X54747671Y-27359243D01*
X54738499Y-27173700D01*
X54751755Y-27047413D01*
X54791508Y-26935226D01*
X54886835Y-26890380D01*
X55084462Y-26892286D01*
G37*
G36*
X59758922Y-24495428D02*
G01*
X59978409Y-24509077D01*
X60104338Y-24538662D01*
X60166862Y-24589776D01*
X60187165Y-24635217D01*
X60221356Y-24804364D01*
X60183493Y-24918263D01*
X60053529Y-24987155D01*
X59811418Y-25021283D01*
X59437113Y-25030889D01*
X59412674Y-25030909D01*
X58689697Y-25030909D01*
X58689697Y-24761515D01*
X58689697Y-24492121D01*
X59415723Y-24492121D01*
X59758922Y-24495428D01*
G37*
G36*
X59758922Y-26111792D02*
G01*
X59978409Y-26125441D01*
X60104338Y-26155026D01*
X60166862Y-26206139D01*
X60187165Y-26251581D01*
X60221356Y-26420728D01*
X60183493Y-26534626D01*
X60053529Y-26603519D01*
X59811418Y-26637647D01*
X59437113Y-26647252D01*
X59412674Y-26647273D01*
X58689697Y-26647273D01*
X58689697Y-26377879D01*
X58689697Y-26108485D01*
X59415723Y-26108485D01*
X59758922Y-26111792D01*
G37*
G36*
X63939765Y-23693884D02*
G01*
X64085614Y-23771814D01*
X64141609Y-23902692D01*
X64139195Y-24023715D01*
X64123179Y-24114880D01*
X64081226Y-24173830D01*
X63984100Y-24208871D01*
X63802567Y-24228304D01*
X63507392Y-24240435D01*
X63360790Y-24244815D01*
X62605520Y-24266903D01*
X62629578Y-23975421D01*
X62653637Y-23683939D01*
X63296096Y-23661464D01*
X63683460Y-23660051D01*
X63939765Y-23693884D01*
G37*
G36*
X74120574Y-23697720D02*
G01*
X74261362Y-23779342D01*
X74305171Y-23915605D01*
X74283189Y-24067788D01*
X74254367Y-24157306D01*
X74201912Y-24213814D01*
X74095107Y-24244902D01*
X73903235Y-24258158D01*
X73595578Y-24261170D01*
X73500251Y-24261212D01*
X72765859Y-24261212D01*
X72789748Y-23972576D01*
X72813637Y-23683939D01*
X73475352Y-23661872D01*
X73864630Y-23661608D01*
X74120574Y-23697720D01*
G37*
G36*
X78025220Y-23693884D02*
G01*
X78171069Y-23771814D01*
X78227063Y-23902692D01*
X78224649Y-24023715D01*
X78208634Y-24114880D01*
X78166680Y-24173830D01*
X78069554Y-24208871D01*
X77888021Y-24228304D01*
X77592847Y-24240435D01*
X77446245Y-24244815D01*
X76690974Y-24266903D01*
X76715033Y-23975421D01*
X76739091Y-23683939D01*
X77381551Y-23661464D01*
X77768915Y-23660051D01*
X78025220Y-23693884D01*
G37*
G36*
X80549091Y-24761515D02*
G01*
X80549091Y-25030909D01*
X79826114Y-25030909D01*
X79463084Y-25024917D01*
X79229849Y-25004700D01*
X79102646Y-24966903D01*
X79061681Y-24922878D01*
X79045951Y-24762508D01*
X79062424Y-24653485D01*
X79093750Y-24577929D01*
X79160138Y-24530476D01*
X79292191Y-24504667D01*
X79520511Y-24494042D01*
X79826856Y-24492121D01*
X80549091Y-24492121D01*
X80549091Y-24761515D01*
G37*
G36*
X80549091Y-26377879D02*
G01*
X80549091Y-26647273D01*
X79826114Y-26647273D01*
X79463084Y-26641280D01*
X79229849Y-26621064D01*
X79102646Y-26583266D01*
X79061681Y-26539242D01*
X79045951Y-26378871D01*
X79062424Y-26269848D01*
X79093750Y-26194292D01*
X79160138Y-26146840D01*
X79292191Y-26121031D01*
X79520511Y-26110405D01*
X79826856Y-26108485D01*
X80549091Y-26108485D01*
X80549091Y-26377879D01*
G37*
G36*
X83704849Y-26375092D02*
G01*
X83704849Y-26647273D01*
X82971221Y-26647273D01*
X82608754Y-26641772D01*
X82374910Y-26622888D01*
X82244686Y-26587045D01*
X82195014Y-26536314D01*
X82171572Y-26365398D01*
X82179079Y-26286163D01*
X82209735Y-26220773D01*
X82290710Y-26177424D01*
X82450525Y-26150190D01*
X82717701Y-26133148D01*
X82955286Y-26124940D01*
X83704849Y-26102910D01*
X83704849Y-26375092D01*
G37*
G36*
X84073208Y-24494706D02*
G01*
X84288752Y-24506766D01*
X84411590Y-24534762D01*
X84472325Y-24585152D01*
X84498789Y-24653485D01*
X84526691Y-24817298D01*
X84493542Y-24925938D01*
X84377093Y-24990401D01*
X84155096Y-25021682D01*
X83805300Y-25030778D01*
X83735099Y-25030909D01*
X83012121Y-25030909D01*
X83012121Y-24761515D01*
X83012121Y-24492121D01*
X83734356Y-24492121D01*
X84073208Y-24494706D01*
G37*
G36*
X86860606Y-26375092D02*
G01*
X86860606Y-26647273D01*
X86126978Y-26647273D01*
X85764512Y-26641772D01*
X85530668Y-26622888D01*
X85400443Y-26587045D01*
X85350772Y-26536314D01*
X85327330Y-26365398D01*
X85334837Y-26286163D01*
X85365493Y-26220773D01*
X85446468Y-26177424D01*
X85606283Y-26150190D01*
X85873458Y-26133148D01*
X86111043Y-26124940D01*
X86860606Y-26102910D01*
X86860606Y-26375092D01*
G37*
G36*
X90085860Y-23661872D02*
G01*
X90747576Y-23683939D01*
X90771465Y-23972576D01*
X90795353Y-24261212D01*
X90060961Y-24261212D01*
X89720660Y-24259539D01*
X89503579Y-24249458D01*
X89379001Y-24223383D01*
X89316208Y-24173724D01*
X89284483Y-24092893D01*
X89278023Y-24067788D01*
X89258105Y-23881931D01*
X89320816Y-23757928D01*
X89484332Y-23686644D01*
X89766831Y-23658948D01*
X90085860Y-23661872D01*
G37*
G36*
X90786061Y-24758728D02*
G01*
X90786061Y-25030909D01*
X90052433Y-25030909D01*
X89689966Y-25025409D01*
X89456122Y-25006524D01*
X89325898Y-24970681D01*
X89276226Y-24919951D01*
X89252784Y-24749034D01*
X89260291Y-24669799D01*
X89290948Y-24604410D01*
X89371922Y-24561060D01*
X89531737Y-24533826D01*
X89798913Y-24516785D01*
X90036498Y-24508576D01*
X90786061Y-24486547D01*
X90786061Y-24758728D01*
G37*
G36*
X93941818Y-22372667D02*
G01*
X93941818Y-22644849D01*
X93208191Y-22644849D01*
X92845724Y-22639348D01*
X92611880Y-22620463D01*
X92481656Y-22584621D01*
X92431984Y-22533890D01*
X92408542Y-22362974D01*
X92416049Y-22283739D01*
X92446705Y-22218349D01*
X92527680Y-22174999D01*
X92687495Y-22147766D01*
X92954670Y-22130724D01*
X93192256Y-22122516D01*
X93941818Y-22100486D01*
X93941818Y-22372667D01*
G37*
G36*
X59929993Y-23661918D02*
G01*
X60050937Y-23691175D01*
X60120388Y-23748164D01*
X60152107Y-23799367D01*
X60201381Y-23990006D01*
X60189684Y-24110180D01*
X60152914Y-24180884D01*
X60076746Y-24225424D01*
X59930738Y-24249706D01*
X59684447Y-24259633D01*
X59411076Y-24261212D01*
X58680405Y-24261212D01*
X58704293Y-23972576D01*
X58728182Y-23683939D01*
X59397388Y-23661763D01*
X59723497Y-23654184D01*
X59929993Y-23661918D01*
G37*
G36*
X59971458Y-26889940D02*
G01*
X60089394Y-26913467D01*
X60147714Y-26963573D01*
X60177827Y-27047251D01*
X60181499Y-27061721D01*
X60213869Y-27247393D01*
X60185644Y-27371205D01*
X60074972Y-27445366D01*
X59860002Y-27482087D01*
X59518884Y-27493578D01*
X59408028Y-27493939D01*
X58680405Y-27493939D01*
X58704293Y-27205303D01*
X58728182Y-26916667D01*
X59431113Y-26894656D01*
X59762500Y-26886000D01*
X59971458Y-26889940D01*
G37*
G36*
X73844099Y-24493941D02*
G01*
X74060143Y-24504367D01*
X74183810Y-24530849D01*
X74245877Y-24580836D01*
X74277124Y-24661778D01*
X74281841Y-24680171D01*
X74299873Y-24855029D01*
X74278764Y-24949565D01*
X74180322Y-24987910D01*
X73956881Y-25015641D01*
X73637194Y-25029746D01*
X73501821Y-25030909D01*
X72775152Y-25030909D01*
X72775152Y-24761515D01*
X72775152Y-24492121D01*
X73504897Y-24492121D01*
X73844099Y-24493941D01*
G37*
G36*
X73844099Y-26110305D02*
G01*
X74060143Y-26120731D01*
X74183810Y-26147213D01*
X74245877Y-26197200D01*
X74277124Y-26278142D01*
X74281841Y-26296535D01*
X74299873Y-26471393D01*
X74278764Y-26565928D01*
X74180322Y-26604274D01*
X73956881Y-26632005D01*
X73637194Y-26646110D01*
X73501821Y-26647273D01*
X72775152Y-26647273D01*
X72775152Y-26377879D01*
X72775152Y-26108485D01*
X73504897Y-26108485D01*
X73844099Y-26110305D01*
G37*
G36*
X73849543Y-22114428D02*
G01*
X74111539Y-22137521D01*
X74259059Y-22172332D01*
X74278764Y-22187405D01*
X74300296Y-22318952D01*
X74281841Y-22456799D01*
X74252869Y-22544091D01*
X74198606Y-22599089D01*
X74088272Y-22629245D01*
X73891089Y-22642006D01*
X73576278Y-22644823D01*
X73504897Y-22644849D01*
X72775152Y-22644849D01*
X72775152Y-22375455D01*
X72775152Y-22106061D01*
X73501821Y-22106061D01*
X73849543Y-22114428D01*
G37*
G36*
X74065964Y-25276097D02*
G01*
X74186818Y-25300799D01*
X74247823Y-25350125D01*
X74275170Y-25412950D01*
X74294364Y-25617747D01*
X74276061Y-25723636D01*
X74239640Y-25795618D01*
X74165429Y-25840962D01*
X74022876Y-25865703D01*
X73781425Y-25875874D01*
X73496531Y-25877576D01*
X72765859Y-25877576D01*
X72789748Y-25588939D01*
X72813637Y-25300303D01*
X73519528Y-25278253D01*
X73853967Y-25270441D01*
X74065964Y-25276097D01*
G37*
G36*
X79687342Y-23657209D02*
G01*
X79841400Y-23661763D01*
X80510606Y-23683939D01*
X80534495Y-23972576D01*
X80558384Y-24261212D01*
X79831502Y-24261212D01*
X79491830Y-24258809D01*
X79275464Y-24247191D01*
X79151795Y-24219749D01*
X79090212Y-24169871D01*
X79061111Y-24094829D01*
X79059033Y-23894121D01*
X79094897Y-23784016D01*
X79149939Y-23714070D01*
X79244844Y-23673253D01*
X79412887Y-23656116D01*
X79687342Y-23657209D01*
G37*
G36*
X79687342Y-25273573D02*
G01*
X79841400Y-25278126D01*
X80510606Y-25300303D01*
X80534495Y-25588939D01*
X80558384Y-25877576D01*
X79831502Y-25877576D01*
X79491830Y-25875172D01*
X79275464Y-25863555D01*
X79151795Y-25836113D01*
X79090212Y-25786234D01*
X79061111Y-25711193D01*
X79059033Y-25510485D01*
X79094897Y-25400379D01*
X79149939Y-25330434D01*
X79244844Y-25289617D01*
X79412887Y-25272480D01*
X79687342Y-25273573D01*
G37*
G36*
X80534495Y-23164394D02*
G01*
X80510606Y-23453030D01*
X79808335Y-23475033D01*
X79475358Y-23482888D01*
X79265132Y-23477353D01*
X79146666Y-23452810D01*
X79088968Y-23403643D01*
X79065087Y-23340336D01*
X79049492Y-23132040D01*
X79064365Y-23029697D01*
X79096376Y-22957647D01*
X79166870Y-22912309D01*
X79306125Y-22887609D01*
X79544422Y-22877469D01*
X79831502Y-22875758D01*
X80558384Y-22875758D01*
X80534495Y-23164394D01*
G37*
G36*
X83690253Y-23164394D02*
G01*
X83666364Y-23453030D01*
X82960472Y-23475081D01*
X82626034Y-23482892D01*
X82414036Y-23477236D01*
X82293183Y-23452535D01*
X82232177Y-23403209D01*
X82204831Y-23340384D01*
X82185636Y-23135586D01*
X82203940Y-23029697D01*
X82240361Y-22957716D01*
X82314571Y-22912372D01*
X82457124Y-22887631D01*
X82698575Y-22877459D01*
X82983470Y-22875758D01*
X83714141Y-22875758D01*
X83690253Y-23164394D01*
G37*
G36*
X84256995Y-23663530D02*
G01*
X84378398Y-23693794D01*
X84446042Y-23750912D01*
X84466316Y-23784016D01*
X84511103Y-23976207D01*
X84500102Y-24094829D01*
X84469307Y-24172436D01*
X84405785Y-24221267D01*
X84278924Y-24247932D01*
X84058114Y-24259043D01*
X83729710Y-24261212D01*
X83002829Y-24261212D01*
X83026718Y-23972576D01*
X83050606Y-23683939D01*
X83719813Y-23661763D01*
X84048557Y-23654669D01*
X84256995Y-23663530D01*
G37*
G36*
X84256995Y-25279893D02*
G01*
X84378398Y-25310158D01*
X84446042Y-25367276D01*
X84466316Y-25400379D01*
X84511103Y-25592571D01*
X84500102Y-25711193D01*
X84469307Y-25788800D01*
X84405785Y-25837631D01*
X84278924Y-25864296D01*
X84058114Y-25875407D01*
X83729710Y-25877576D01*
X83002829Y-25877576D01*
X83026718Y-25588939D01*
X83050606Y-25300303D01*
X83719813Y-25278126D01*
X84048557Y-25271032D01*
X84256995Y-25279893D01*
G37*
G36*
X86233616Y-23660475D02*
G01*
X86245755Y-23660955D01*
X86822121Y-23683939D01*
X86846010Y-23972576D01*
X86869899Y-24261212D01*
X86146869Y-24261212D01*
X85827181Y-24256070D01*
X85568017Y-24242273D01*
X85406245Y-24222263D01*
X85372525Y-24209899D01*
X85334827Y-24102156D01*
X85321212Y-23941972D01*
X85341844Y-23806779D01*
X85419603Y-23718266D01*
X85578287Y-23669200D01*
X85841693Y-23652347D01*
X86233616Y-23660475D01*
G37*
G36*
X86846010Y-25588939D02*
G01*
X86869899Y-25877576D01*
X86131625Y-25877576D01*
X85766830Y-25872014D01*
X85531132Y-25853028D01*
X85400012Y-25817165D01*
X85351195Y-25767719D01*
X85327593Y-25605664D01*
X85334368Y-25479083D01*
X85353715Y-25396161D01*
X85403143Y-25343874D01*
X85512482Y-25315172D01*
X85711564Y-25303005D01*
X86030220Y-25300323D01*
X86090909Y-25300303D01*
X86822121Y-25300303D01*
X86846010Y-25588939D01*
G37*
G36*
X89208182Y-27186061D02*
G01*
X89208182Y-27455455D01*
X87301284Y-27476046D01*
X86698101Y-27481347D01*
X86231719Y-27482093D01*
X85885044Y-27477490D01*
X85640984Y-27466743D01*
X85482447Y-27449058D01*
X85392339Y-27423641D01*
X85353568Y-27389696D01*
X85351712Y-27385431D01*
X85327689Y-27222125D01*
X85334368Y-27095446D01*
X85359697Y-26916667D01*
X87283940Y-26916667D01*
X89208182Y-26916667D01*
X89208182Y-27186061D01*
G37*
G36*
X90041684Y-25278253D02*
G01*
X90747576Y-25300303D01*
X90771465Y-25588939D01*
X90795353Y-25877576D01*
X90064682Y-25877576D01*
X89722116Y-25874716D01*
X89502890Y-25862113D01*
X89376450Y-25833734D01*
X89312243Y-25783545D01*
X89285152Y-25723636D01*
X89267129Y-25519899D01*
X89286043Y-25412950D01*
X89321308Y-25339237D01*
X89390727Y-25294729D01*
X89525596Y-25273846D01*
X89757212Y-25271011D01*
X90041684Y-25278253D01*
G37*
G36*
X93314828Y-23660475D02*
G01*
X93326967Y-23660955D01*
X93903334Y-23683939D01*
X93927222Y-23972576D01*
X93951111Y-24261212D01*
X93228081Y-24261212D01*
X92908393Y-24256070D01*
X92649229Y-24242273D01*
X92487458Y-24222263D01*
X92453738Y-24209899D01*
X92416039Y-24102156D01*
X92402424Y-23941972D01*
X92423056Y-23806779D01*
X92500816Y-23718266D01*
X92659499Y-23669200D01*
X92922905Y-23652347D01*
X93314828Y-23660475D01*
G37*
G36*
X95087735Y-26110305D02*
G01*
X95303780Y-26120731D01*
X95427446Y-26147213D01*
X95489514Y-26197200D01*
X95520760Y-26278142D01*
X95525477Y-26296535D01*
X95543509Y-26471393D01*
X95522401Y-26565928D01*
X95423958Y-26604274D01*
X95200517Y-26632005D01*
X94880830Y-26646110D01*
X94745458Y-26647273D01*
X94018788Y-26647273D01*
X94018788Y-26377879D01*
X94018788Y-26108485D01*
X94748534Y-26108485D01*
X95087735Y-26110305D01*
G37*
G36*
X95309601Y-25276097D02*
G01*
X95430454Y-25300799D01*
X95491459Y-25350125D01*
X95518806Y-25412950D01*
X95538001Y-25617747D01*
X95519697Y-25723636D01*
X95483276Y-25795618D01*
X95409066Y-25840962D01*
X95266512Y-25865703D01*
X95025062Y-25875874D01*
X94740167Y-25877576D01*
X94009496Y-25877576D01*
X94033384Y-25588939D01*
X94057273Y-25300303D01*
X94763165Y-25278253D01*
X95097603Y-25270441D01*
X95309601Y-25276097D01*
G37*
G36*
X95309601Y-26892461D02*
G01*
X95430454Y-26917162D01*
X95491459Y-26966488D01*
X95518806Y-27029313D01*
X95538001Y-27234111D01*
X95519697Y-27340000D01*
X95483276Y-27411981D01*
X95409066Y-27457326D01*
X95266512Y-27482066D01*
X95025062Y-27492238D01*
X94740167Y-27493939D01*
X94009496Y-27493939D01*
X94033384Y-27205303D01*
X94057273Y-26916667D01*
X94763165Y-26894616D01*
X95097603Y-26886805D01*
X95309601Y-26892461D01*
G37*
G36*
X97082980Y-23972576D02*
G01*
X97106869Y-24261212D01*
X96368594Y-24261212D01*
X96003800Y-24255650D01*
X95768102Y-24236664D01*
X95636982Y-24200801D01*
X95588164Y-24151355D01*
X95564563Y-23989301D01*
X95571338Y-23862719D01*
X95590685Y-23779798D01*
X95640113Y-23727511D01*
X95749452Y-23698808D01*
X95948534Y-23686641D01*
X96267190Y-23683959D01*
X96327879Y-23683939D01*
X97059091Y-23683939D01*
X97082980Y-23972576D01*
G37*
G36*
X57804546Y-23183636D02*
G01*
X57804546Y-23453030D01*
X57091275Y-23475178D01*
X56740581Y-23481181D01*
X56515979Y-23470750D01*
X56390187Y-23440618D01*
X56335921Y-23387518D01*
X56334734Y-23384564D01*
X56310224Y-23219810D01*
X56316792Y-23093022D01*
X56336140Y-23010101D01*
X56385567Y-22957814D01*
X56494907Y-22929111D01*
X56693988Y-22916944D01*
X57012645Y-22914262D01*
X57073334Y-22914243D01*
X57804546Y-22914243D01*
X57804546Y-23183636D01*
G37*
G36*
X63298441Y-25430964D02*
G01*
X63334839Y-25625947D01*
X63325900Y-25740008D01*
X63306908Y-25779254D01*
X63261863Y-25810264D01*
X63174381Y-25833999D01*
X63028085Y-25851423D01*
X62806592Y-25863497D01*
X62493523Y-25871186D01*
X62072496Y-25875452D01*
X61527132Y-25877257D01*
X60985165Y-25877576D01*
X58680405Y-25877576D01*
X58704293Y-25588939D01*
X58728182Y-25300303D01*
X60981595Y-25279895D01*
X63235007Y-25259487D01*
X63298441Y-25430964D01*
G37*
G36*
X71890000Y-23183636D02*
G01*
X71890000Y-23453030D01*
X71176730Y-23475178D01*
X70826036Y-23481181D01*
X70601434Y-23470750D01*
X70475641Y-23440618D01*
X70421375Y-23387518D01*
X70420188Y-23384564D01*
X70395679Y-23219810D01*
X70402247Y-23093022D01*
X70421594Y-23010101D01*
X70471022Y-22957814D01*
X70580361Y-22929111D01*
X70779443Y-22916944D01*
X71098099Y-22914262D01*
X71158788Y-22914243D01*
X71890000Y-22914243D01*
X71890000Y-23183636D01*
G37*
G36*
X86846180Y-23161549D02*
G01*
X86822121Y-23453030D01*
X86108851Y-23475178D01*
X85758157Y-23481181D01*
X85533555Y-23470750D01*
X85407762Y-23440618D01*
X85353496Y-23387518D01*
X85352310Y-23384564D01*
X85327800Y-23219810D01*
X85334368Y-23093022D01*
X85354154Y-23010898D01*
X85404987Y-22957521D01*
X85516164Y-22925352D01*
X85716982Y-22906851D01*
X86036736Y-22894481D01*
X86114968Y-22892155D01*
X86870238Y-22870067D01*
X86846180Y-23161549D01*
G37*
G36*
X89977879Y-23183636D02*
G01*
X89977879Y-23453030D01*
X89264609Y-23475178D01*
X88913914Y-23481181D01*
X88689312Y-23470750D01*
X88563520Y-23440618D01*
X88509254Y-23387518D01*
X88508067Y-23384564D01*
X88483558Y-23219810D01*
X88490125Y-23093022D01*
X88509473Y-23010101D01*
X88558901Y-22957814D01*
X88668240Y-22929111D01*
X88867322Y-22916944D01*
X89185978Y-22914262D01*
X89246667Y-22914243D01*
X89977879Y-22914243D01*
X89977879Y-23183636D01*
G37*
G36*
X93927392Y-23161549D02*
G01*
X93903334Y-23453030D01*
X93190063Y-23475178D01*
X92839369Y-23481181D01*
X92614767Y-23470750D01*
X92488975Y-23440618D01*
X92434709Y-23387518D01*
X92433522Y-23384564D01*
X92409012Y-23219810D01*
X92415580Y-23093022D01*
X92435366Y-23010898D01*
X92486199Y-22957521D01*
X92597376Y-22925352D01*
X92798194Y-22906851D01*
X93117948Y-22894481D01*
X93196180Y-22892155D01*
X93951450Y-22870067D01*
X93927392Y-23161549D01*
G37*
G36*
X97059091Y-23183636D02*
G01*
X97059091Y-23453030D01*
X96345821Y-23475178D01*
X95995126Y-23481181D01*
X95770525Y-23470750D01*
X95644732Y-23440618D01*
X95590466Y-23387518D01*
X95589279Y-23384564D01*
X95564770Y-23219810D01*
X95571338Y-23093022D01*
X95590685Y-23010101D01*
X95640113Y-22957814D01*
X95749452Y-22929111D01*
X95948534Y-22916944D01*
X96267190Y-22914262D01*
X96327879Y-22914243D01*
X97059091Y-22914243D01*
X97059091Y-23183636D01*
G37*
G36*
X63365606Y-22892213D02*
G01*
X63710569Y-22904331D01*
X63930999Y-22921238D01*
X64056278Y-22950490D01*
X64115788Y-22999642D01*
X64138911Y-23076250D01*
X64141212Y-23091661D01*
X64139519Y-23269718D01*
X64060522Y-23387977D01*
X63883280Y-23457018D01*
X63586853Y-23487418D01*
X63349768Y-23491515D01*
X63051433Y-23485652D01*
X62815152Y-23470063D01*
X62680873Y-23447747D01*
X62666465Y-23440202D01*
X62631400Y-23334706D01*
X62615270Y-23147254D01*
X62615152Y-23129536D01*
X62615152Y-22870183D01*
X63365606Y-22892213D01*
G37*
G36*
X73843926Y-22877458D02*
G01*
X74059845Y-22887668D01*
X74183484Y-22914049D01*
X74245670Y-22964262D01*
X74277231Y-23045968D01*
X74283189Y-23069181D01*
X74301307Y-23253692D01*
X74234048Y-23378027D01*
X74063085Y-23452196D01*
X73770092Y-23486204D01*
X73509768Y-23491515D01*
X73211433Y-23485652D01*
X72975152Y-23470063D01*
X72840873Y-23447747D01*
X72826465Y-23440202D01*
X72791244Y-23334573D01*
X72775241Y-23147563D01*
X72775152Y-23132323D01*
X72775152Y-22875758D01*
X73504897Y-22875758D01*
X73843926Y-22877458D01*
G37*
G36*
X59757470Y-22878757D02*
G01*
X59975877Y-22891727D01*
X60101489Y-22920630D01*
X60164853Y-22971426D01*
X60189684Y-23026790D01*
X60193539Y-23214855D01*
X60153677Y-23334668D01*
X60094761Y-23412737D01*
X59997660Y-23459808D01*
X59827578Y-23483433D01*
X59549719Y-23491164D01*
X59431030Y-23491515D01*
X59131073Y-23485712D01*
X58893046Y-23470271D01*
X58756644Y-23448143D01*
X58741010Y-23440202D01*
X58705790Y-23334573D01*
X58689786Y-23147563D01*
X58689697Y-23132323D01*
X58689697Y-22875758D01*
X59415723Y-22875758D01*
X59757470Y-22878757D01*
G37*
G36*
X94488397Y-24505862D02*
G01*
X94778637Y-24509768D01*
X96289394Y-24530606D01*
X96313513Y-24780758D01*
X96337632Y-25030909D01*
X94801597Y-25030909D01*
X94260908Y-25029058D01*
X93855830Y-25022670D01*
X93568069Y-25010492D01*
X93379332Y-24991270D01*
X93271325Y-24963754D01*
X93225755Y-24926689D01*
X93224106Y-24922878D01*
X93208496Y-24762848D01*
X93225265Y-24651889D01*
X93244701Y-24596167D01*
X93283427Y-24555210D01*
X93362071Y-24527133D01*
X93501262Y-24510046D01*
X93721627Y-24502064D01*
X94043796Y-24501299D01*
X94488397Y-24505862D01*
G37*
G36*
X57041347Y-25452730D02*
G01*
X57071047Y-25580332D01*
X57077419Y-25679425D01*
X57044083Y-25753613D01*
X56954662Y-25806502D01*
X56792776Y-25841693D01*
X56542047Y-25862793D01*
X56186095Y-25873404D01*
X55708543Y-25877130D01*
X55110606Y-25877576D01*
X54507515Y-25876244D01*
X54041482Y-25871609D01*
X53695647Y-25862713D01*
X53453145Y-25848597D01*
X53297116Y-25828302D01*
X53210695Y-25800871D01*
X53177861Y-25767719D01*
X53154260Y-25605664D01*
X53161035Y-25479083D01*
X53186364Y-25300303D01*
X55089561Y-25279720D01*
X56992758Y-25259137D01*
X57041347Y-25452730D01*
G37*
G36*
X82935152Y-22375455D02*
G01*
X82935152Y-22644849D01*
X81019886Y-22644849D01*
X80428543Y-22644474D01*
X79972927Y-22642349D01*
X79634828Y-22636974D01*
X79396035Y-22626846D01*
X79238337Y-22610464D01*
X79143522Y-22586327D01*
X79093380Y-22552934D01*
X79069698Y-22508784D01*
X79062424Y-22483485D01*
X79036146Y-22370600D01*
X79034381Y-22282818D01*
X79073493Y-22216982D01*
X79169851Y-22169936D01*
X79339820Y-22138523D01*
X79599768Y-22119586D01*
X79966060Y-22109968D01*
X80455063Y-22106512D01*
X81019144Y-22106061D01*
X82935152Y-22106061D01*
X82935152Y-22375455D01*
G37*
G36*
X89232401Y-22354880D02*
G01*
X89208182Y-22606364D01*
X87301284Y-22626955D01*
X86698948Y-22632277D01*
X86233318Y-22633096D01*
X85887201Y-22628603D01*
X85643407Y-22617991D01*
X85484747Y-22600449D01*
X85394030Y-22575170D01*
X85354065Y-22541346D01*
X85351289Y-22535239D01*
X85327461Y-22362969D01*
X85334963Y-22283739D01*
X85352539Y-22240839D01*
X85398608Y-22207382D01*
X85490936Y-22181928D01*
X85647288Y-22163041D01*
X85885428Y-22149283D01*
X86223123Y-22139216D01*
X86678136Y-22131403D01*
X87268234Y-22124405D01*
X87309176Y-22123971D01*
X89256619Y-22103396D01*
X89232401Y-22354880D01*
G37*
G36*
X61647217Y-22106618D02*
G01*
X62167018Y-22108918D01*
X62565546Y-22113904D01*
X62859134Y-22122519D01*
X63064114Y-22135707D01*
X63196817Y-22154411D01*
X63273578Y-22179574D01*
X63310726Y-22212139D01*
X63322129Y-22240758D01*
X63334839Y-22437388D01*
X63325463Y-22510152D01*
X63307773Y-22548613D01*
X63262190Y-22579003D01*
X63172418Y-22602264D01*
X63022160Y-22619338D01*
X62795119Y-22631164D01*
X62474999Y-22638684D01*
X62045503Y-22642840D01*
X61490334Y-22644573D01*
X60993144Y-22644849D01*
X58689697Y-22644849D01*
X58689697Y-22375455D01*
X58689697Y-22106061D01*
X60989811Y-22106061D01*
X61647217Y-22106618D01*
G37*
G36*
X76854720Y-26889397D02*
G01*
X77090768Y-26897152D01*
X77246031Y-26912022D01*
X77338794Y-26935279D01*
X77387342Y-26968194D01*
X77409960Y-27012041D01*
X77415289Y-27030797D01*
X77430487Y-27239072D01*
X77415635Y-27340000D01*
X77397465Y-27387501D01*
X77358801Y-27424074D01*
X77281489Y-27451148D01*
X77147375Y-27470146D01*
X76938304Y-27482494D01*
X76636122Y-27489620D01*
X76222675Y-27492947D01*
X75679808Y-27493902D01*
X75455468Y-27493939D01*
X73535556Y-27493939D01*
X73559445Y-27205303D01*
X73583334Y-26916667D01*
X75479010Y-26896100D01*
X76067126Y-26890143D01*
X76519601Y-26887484D01*
X76854720Y-26889397D01*
G37*
G36*
X80234871Y-26888736D02*
G01*
X80771920Y-26893650D01*
X81000990Y-26896100D01*
X82896667Y-26916667D01*
X82896667Y-27186061D01*
X82896667Y-27455455D01*
X81000990Y-27476021D01*
X80412875Y-27481978D01*
X79960400Y-27484637D01*
X79625281Y-27482724D01*
X79389232Y-27474969D01*
X79233969Y-27460099D01*
X79141206Y-27436843D01*
X79092658Y-27403927D01*
X79070041Y-27360081D01*
X79064711Y-27341324D01*
X79049696Y-27132201D01*
X79064711Y-27030797D01*
X79082461Y-26982693D01*
X79119541Y-26945979D01*
X79194236Y-26919382D01*
X79324831Y-26901632D01*
X79529612Y-26891456D01*
X79826864Y-26887581D01*
X80234871Y-26888736D01*
G37*
G36*
X55836781Y-26119309D02*
G01*
X56040006Y-26129348D01*
X56159899Y-26151338D01*
X56219970Y-26187623D01*
X56243730Y-26240549D01*
X56243861Y-26241159D01*
X56252146Y-26438560D01*
X56240917Y-26512576D01*
X56214140Y-26565652D01*
X56147698Y-26602758D01*
X56017956Y-26626682D01*
X55801284Y-26640212D01*
X55474048Y-26646135D01*
X55099214Y-26647273D01*
X54648188Y-26644475D01*
X54329385Y-26634693D01*
X54121165Y-26615841D01*
X54001888Y-26585837D01*
X53949917Y-26542596D01*
X53947136Y-26536314D01*
X53923732Y-26365415D01*
X53931275Y-26286163D01*
X53954931Y-26231532D01*
X54017129Y-26192344D01*
X54141240Y-26165354D01*
X54350636Y-26147314D01*
X54668688Y-26134977D01*
X55086297Y-26125704D01*
X55526714Y-26118876D01*
X55836781Y-26119309D01*
G37*
D11*
%TO.C,J19*%
X147300000Y-51156068D02*
X147300000Y-52526068D01*
X147300000Y-56056068D02*
X147300000Y-57426068D01*
X148766000Y-51156068D02*
X147300000Y-51156068D01*
X148766000Y-57426068D02*
X147300000Y-57426068D01*
X158000000Y-51156068D02*
X156534000Y-51156068D01*
X158000000Y-51156068D02*
X158000000Y-52526068D01*
X158000000Y-56056068D02*
X158000000Y-57426068D01*
X158000000Y-57426068D02*
X156534000Y-57426068D01*
X156533999Y-51156069D02*
G75*
G03*
X148766001Y-51156069I-3883999J-3148850D01*
G01*
X148766001Y-57426067D02*
G75*
G03*
X156533999Y-57426067I3883999J3148850D01*
G01*
%TO.C,J23*%
X217300000Y-51156068D02*
X217300000Y-52526068D01*
X217300000Y-56056068D02*
X217300000Y-57426068D01*
X218766000Y-51156068D02*
X217300000Y-51156068D01*
X218766000Y-57426068D02*
X217300000Y-57426068D01*
X228000000Y-51156068D02*
X226534000Y-51156068D01*
X228000000Y-51156068D02*
X228000000Y-52526068D01*
X228000000Y-56056068D02*
X228000000Y-57426068D01*
X228000000Y-57426068D02*
X226534000Y-57426068D01*
X226533999Y-51156069D02*
G75*
G03*
X218766001Y-51156069I-3883999J-3148850D01*
G01*
X218766001Y-57426067D02*
G75*
G03*
X226533999Y-57426067I3883999J3148850D01*
G01*
%TO.C,J14*%
X59800000Y-51156068D02*
X59800000Y-52526068D01*
X59800000Y-56056068D02*
X59800000Y-57426068D01*
X61266000Y-51156068D02*
X59800000Y-51156068D01*
X61266000Y-57426068D02*
X59800000Y-57426068D01*
X70500000Y-51156068D02*
X69034000Y-51156068D01*
X70500000Y-51156068D02*
X70500000Y-52526068D01*
X70500000Y-56056068D02*
X70500000Y-57426068D01*
X70500000Y-57426068D02*
X69034000Y-57426068D01*
X69033999Y-51156069D02*
G75*
G03*
X61266001Y-51156069I-3883999J-3148850D01*
G01*
X61266001Y-57426067D02*
G75*
G03*
X69033999Y-57426067I3883999J3148850D01*
G01*
%TO.C,J5*%
X112300000Y-33720534D02*
X112300000Y-35090534D01*
X112300000Y-38620534D02*
X112300000Y-39990534D01*
X113766000Y-33720534D02*
X112300000Y-33720534D01*
X113766000Y-39990534D02*
X112300000Y-39990534D01*
X123000000Y-33720534D02*
X121534000Y-33720534D01*
X123000000Y-33720534D02*
X123000000Y-35090534D01*
X123000000Y-38620534D02*
X123000000Y-39990534D01*
X123000000Y-39990534D02*
X121534000Y-39990534D01*
X121533999Y-33720535D02*
G75*
G03*
X113766001Y-33720535I-3883999J-3148850D01*
G01*
X113766001Y-39990533D02*
G75*
G03*
X121533999Y-39990533I3883999J3148850D01*
G01*
D12*
%TO.C,J30*%
X130675000Y-67235534D02*
X130675000Y-77735534D01*
X133945000Y-64085534D02*
X133945000Y-64885534D01*
X133945000Y-64085534D02*
X134805000Y-64085534D01*
X134375000Y-77735534D02*
X130675000Y-77735534D01*
X134455000Y-67235534D02*
X130675000Y-67235534D01*
X139675000Y-67235534D02*
X135895000Y-67235534D01*
X139675000Y-67235534D02*
X139675000Y-77735534D01*
X139675000Y-77735534D02*
X135975000Y-77735534D01*
X136975000Y-71735534D02*
G75*
G03*
X136975000Y-71735534I-1800000J0D01*
G01*
D11*
%TO.C,J24*%
X234800000Y-51156068D02*
X234800000Y-52526068D01*
X234800000Y-56056068D02*
X234800000Y-57426068D01*
X236266000Y-51156068D02*
X234800000Y-51156068D01*
X236266000Y-57426068D02*
X234800000Y-57426068D01*
X245500000Y-51156068D02*
X244034000Y-51156068D01*
X245500000Y-51156068D02*
X245500000Y-52526068D01*
X245500000Y-56056068D02*
X245500000Y-57426068D01*
X245500000Y-57426068D02*
X244034000Y-57426068D01*
X244033999Y-51156069D02*
G75*
G03*
X236266001Y-51156069I-3883999J-3148850D01*
G01*
X236266001Y-57426067D02*
G75*
G03*
X244033999Y-57426067I3883999J3148850D01*
G01*
%TO.C,J9*%
X182300000Y-33720534D02*
X182300000Y-35090534D01*
X182300000Y-38620534D02*
X182300000Y-39990534D01*
X183766000Y-33720534D02*
X182300000Y-33720534D01*
X183766000Y-39990534D02*
X182300000Y-39990534D01*
X193000000Y-33720534D02*
X191534000Y-33720534D01*
X193000000Y-33720534D02*
X193000000Y-35090534D01*
X193000000Y-38620534D02*
X193000000Y-39990534D01*
X193000000Y-39990534D02*
X191534000Y-39990534D01*
X191533999Y-33720535D02*
G75*
G03*
X183766001Y-33720535I-3883999J-3148850D01*
G01*
X183766001Y-39990533D02*
G75*
G03*
X191533999Y-39990533I3883999J3148850D01*
G01*
%TO.C,J7*%
X147300000Y-33720534D02*
X147300000Y-35090534D01*
X147300000Y-38620534D02*
X147300000Y-39990534D01*
X148766000Y-33720534D02*
X147300000Y-33720534D01*
X148766000Y-39990534D02*
X147300000Y-39990534D01*
X158000000Y-33720534D02*
X156534000Y-33720534D01*
X158000000Y-33720534D02*
X158000000Y-35090534D01*
X158000000Y-38620534D02*
X158000000Y-39990534D01*
X158000000Y-39990534D02*
X156534000Y-39990534D01*
X156533999Y-33720535D02*
G75*
G03*
X148766001Y-33720535I-3883999J-3148850D01*
G01*
X148766001Y-39990533D02*
G75*
G03*
X156533999Y-39990533I3883999J3148850D01*
G01*
%TO.C,J3*%
X77150000Y-33720534D02*
X77150000Y-35090534D01*
X77150000Y-38620534D02*
X77150000Y-39990534D01*
X78616000Y-33720534D02*
X77150000Y-33720534D01*
X78616000Y-39990534D02*
X77150000Y-39990534D01*
X87850000Y-33720534D02*
X86384000Y-33720534D01*
X87850000Y-33720534D02*
X87850000Y-35090534D01*
X87850000Y-38620534D02*
X87850000Y-39990534D01*
X87850000Y-39990534D02*
X86384000Y-39990534D01*
X86383999Y-33720535D02*
G75*
G03*
X78616001Y-33720535I-3883999J-3148850D01*
G01*
X78616001Y-39990533D02*
G75*
G03*
X86383999Y-39990533I3883999J3148850D01*
G01*
%TO.C,J15*%
X77150000Y-51156068D02*
X77150000Y-52526068D01*
X77150000Y-56056068D02*
X77150000Y-57426068D01*
X78616000Y-51156068D02*
X77150000Y-51156068D01*
X78616000Y-57426068D02*
X77150000Y-57426068D01*
X87850000Y-51156068D02*
X86384000Y-51156068D01*
X87850000Y-51156068D02*
X87850000Y-52526068D01*
X87850000Y-56056068D02*
X87850000Y-57426068D01*
X87850000Y-57426068D02*
X86384000Y-57426068D01*
X86383999Y-51156069D02*
G75*
G03*
X78616001Y-51156069I-3883999J-3148850D01*
G01*
X78616001Y-57426067D02*
G75*
G03*
X86383999Y-57426067I3883999J3148850D01*
G01*
D12*
%TO.C,J27*%
X78025000Y-67235534D02*
X78025000Y-77735534D01*
X81295000Y-64085534D02*
X81295000Y-64885534D01*
X81295000Y-64085534D02*
X82155000Y-64085534D01*
X81725000Y-77735534D02*
X78025000Y-77735534D01*
X81805000Y-67235534D02*
X78025000Y-67235534D01*
X87025000Y-67235534D02*
X83245000Y-67235534D01*
X87025000Y-67235534D02*
X87025000Y-77735534D01*
X87025000Y-77735534D02*
X83325000Y-77735534D01*
X84325000Y-71735534D02*
G75*
G03*
X84325000Y-71735534I-1800000J0D01*
G01*
%TO.C,J31*%
X148175000Y-67235534D02*
X148175000Y-77735534D01*
X151445000Y-64085534D02*
X151445000Y-64885534D01*
X151445000Y-64085534D02*
X152305000Y-64085534D01*
X151875000Y-77735534D02*
X148175000Y-77735534D01*
X151955000Y-67235534D02*
X148175000Y-67235534D01*
X157175000Y-67235534D02*
X153395000Y-67235534D01*
X157175000Y-67235534D02*
X157175000Y-77735534D01*
X157175000Y-77735534D02*
X153475000Y-77735534D01*
X154475000Y-71735534D02*
G75*
G03*
X154475000Y-71735534I-1800000J0D01*
G01*
D11*
%TO.C,J8*%
X164800000Y-33720534D02*
X164800000Y-35090534D01*
X164800000Y-38620534D02*
X164800000Y-39990534D01*
X166266000Y-33720534D02*
X164800000Y-33720534D01*
X166266000Y-39990534D02*
X164800000Y-39990534D01*
X175500000Y-33720534D02*
X174034000Y-33720534D01*
X175500000Y-33720534D02*
X175500000Y-35090534D01*
X175500000Y-38620534D02*
X175500000Y-39990534D01*
X175500000Y-39990534D02*
X174034000Y-39990534D01*
X174033999Y-33720535D02*
G75*
G03*
X166266001Y-33720535I-3883999J-3148850D01*
G01*
X166266001Y-39990533D02*
G75*
G03*
X174033999Y-39990533I3883999J3148850D01*
G01*
%TD*%
M02*
