M48
; DRILL file {KiCad 7.0.1-0} date 2023 May 06, Saturday 12:03:45
; FORMAT={-:-/ absolute / inch / decimal}
; #@! TF.CreationDate,2023-05-06T12:03:45+02:00
; #@! TF.GenerationSoftware,Kicad,Pcbnew,7.0.1-0
; #@! TF.FileFunction,Plated,1,2,PTH
FMAT,2
INCH
; #@! TA.AperFunction,Plated,PTH,ComponentDrill
T1C0.0480
; #@! TA.AperFunction,Plated,PTH,ComponentDrill
T2C0.0559
; #@! TA.AperFunction,Plated,PTH,ComponentDrill
T3C0.0563
; #@! TA.AperFunction,Plated,PTH,ComponentDrill
T4C0.0669
; #@! TA.AperFunction,Plated,PTH,ComponentDrill
T5C0.0787
; #@! TA.AperFunction,Plated,PTH,ComponentDrill
T6C0.1260
%
G90
G05
T1
X1.8711Y-2.5691
X1.8711Y-3.3666
X2.5659Y-2.5691
X2.5659Y-3.3666
X3.249Y-2.5691
X3.249Y-3.3666
X3.9439Y-2.5691
X3.9439Y-3.3666
X4.6329Y-2.5691
X4.6329Y-3.3666
X5.3219Y-2.5691
X5.3219Y-3.3666
X6.0108Y-2.5691
X6.0108Y-3.3666
X6.6998Y-2.5691
X6.6998Y-3.3666
X7.3888Y-2.5691
X7.3888Y-3.3666
X8.0778Y-2.5691
X8.0778Y-3.3666
X8.7667Y-2.5691
X8.7667Y-3.3666
X9.4557Y-2.5691
X9.4557Y-3.3666
T2
X1.8711Y-2.6912
X1.8711Y-3.4886
X2.5659Y-2.6912
X2.5659Y-3.4886
X3.249Y-2.6912
X3.249Y-3.4886
X3.9439Y-2.6912
X3.9439Y-3.4886
X4.6329Y-2.6912
X4.6329Y-3.4886
X5.3219Y-2.6912
X5.3219Y-3.4886
X6.0108Y-2.6912
X6.0108Y-3.4886
X6.6998Y-2.6912
X6.6998Y-3.4886
X7.3888Y-2.6912
X7.3888Y-3.4886
X8.0778Y-2.6912
X8.0778Y-3.4886
X8.7667Y-2.6912
X8.7667Y-3.4886
X9.4557Y-2.6912
X9.4557Y-3.4886
T3
X1.8711Y-3.0179
X1.8711Y-3.8154
X2.5659Y-3.0179
X2.5659Y-3.8154
X3.249Y-3.0179
X3.249Y-3.8154
X3.9439Y-3.0179
X3.9439Y-3.8154
X4.6329Y-3.0179
X4.6329Y-3.8154
X5.3219Y-3.0179
X5.3219Y-3.8154
X6.0108Y-3.0179
X6.0108Y-3.8154
X6.6998Y-3.0179
X6.6998Y-3.8154
X7.3888Y-3.0179
X7.3888Y-3.8154
X8.0778Y-3.0179
X8.0778Y-3.8154
X8.7667Y-3.0179
X8.7667Y-3.8154
X9.4557Y-3.0179
X9.4557Y-3.8154
T4
X1.8701Y-1.388
X1.8701Y-2.0745
X2.565Y-1.388
X2.565Y-2.0745
X3.248Y-1.388
X3.248Y-2.0745
X3.9429Y-1.388
X3.9429Y-2.0745
X4.6319Y-1.388
X4.6319Y-2.0745
X5.3209Y-1.388
X5.3209Y-2.0745
X6.0098Y-1.388
X6.0098Y-2.0745
X6.6988Y-1.388
X6.6988Y-2.0745
X7.3878Y-1.388
X7.3878Y-2.0745
X8.0768Y-1.388
X8.0768Y-2.0745
X8.7657Y-1.388
X8.7657Y-2.0745
X9.4547Y-1.388
X9.4547Y-2.0745
T5
X1.6673Y-1.451
X1.6673Y-2.1374
X2.0728Y-1.451
X2.0728Y-2.1374
X2.3622Y-1.451
X2.3622Y-2.1374
X2.7677Y-1.451
X2.7677Y-2.1374
X3.0453Y-1.451
X3.0453Y-2.1374
X3.4508Y-1.451
X3.4508Y-2.1374
X3.7402Y-1.451
X3.7402Y-2.1374
X4.1457Y-1.451
X4.1457Y-2.1374
X4.4291Y-1.451
X4.4291Y-2.1374
X4.8346Y-1.451
X4.8346Y-2.1374
X5.1181Y-1.451
X5.1181Y-2.1374
X5.5236Y-1.451
X5.5236Y-2.1374
X5.8071Y-1.451
X5.8071Y-2.1374
X6.2126Y-1.451
X6.2126Y-2.1374
X6.4961Y-1.451
X6.4961Y-2.1374
X6.9016Y-1.451
X6.9016Y-2.1374
X7.185Y-1.451
X7.185Y-2.1374
X7.5906Y-1.451
X7.5906Y-2.1374
X7.874Y-1.451
X7.874Y-2.1374
X8.2795Y-1.451
X8.2795Y-2.1374
X8.563Y-1.451
X8.563Y-2.1374
X8.9685Y-1.451
X8.9685Y-2.1374
X9.252Y-1.451
X9.252Y-2.1374
X9.6575Y-1.451
X9.6575Y-2.1374
T6
X1.4724Y-0.7638
X1.4724Y-4.9882
X9.8465Y-0.7638
X9.8465Y-4.9882
T0
M30
